<svg xmlns="http://www.w3.org/2000/svg" xmlns:xlink="http://www.w3.org/1999/xlink" version="1.2" width="187.27mm" height="76.95mm" viewBox="-4.1366 -0.0000 106.5665 43.7893">
<style type="text/css">
<![CDATA[
tspan { white-space: pre; }
]]>
</style>
<g transform="translate(36.1699, 4.4153)">
<rect x="0.0000" y="-2.0000" width="0.1900" height="4.0000" ry="0.0000" fill="currentColor"/>
</g>
<g transform="translate(8.5358, 6.4153)">
<line stroke-linejoin="round" stroke-linecap="round" stroke-width="0.1000" stroke="currentColor" x1="0.0500" y1="0" x2="93.8441" y2="0"/>
</g>
<g transform="translate(8.5358, 5.4153)">
<line stroke-linejoin="round" stroke-linecap="round" stroke-width="0.1000" stroke="currentColor" x1="0.0500" y1="0" x2="93.8441" y2="0"/>
</g>
<g transform="translate(8.5358, 4.4153)">
<line stroke-linejoin="round" stroke-linecap="round" stroke-width="0.1000" stroke="currentColor" x1="0.0500" y1="0" x2="93.8441" y2="0"/>
</g>
<g transform="translate(8.5358, 3.4153)">
<line stroke-linejoin="round" stroke-linecap="round" stroke-width="0.1000" stroke="currentColor" x1="0.0500" y1="0" x2="93.8441" y2="0"/>
</g>
<g transform="translate(8.5358, 2.4153)">
<line stroke-linejoin="round" stroke-linecap="round" stroke-width="0.1000" stroke="currentColor" x1="0.0500" y1="0" x2="93.8441" y2="0"/>
</g>
<g transform="translate(102.2399, 13.6317)">
<rect x="0.0000" y="-2.0000" width="0.1900" height="4.0000" ry="0.0000" fill="currentColor"/>
</g>
<g transform="translate(102.2399, 4.4153)">
<rect x="0.0000" y="-2.0000" width="0.1900" height="4.0000" ry="0.0000" fill="currentColor"/>
</g>
<g transform="translate(76.1977, 13.6317)">
<rect x="0.0000" y="-2.0000" width="0.1900" height="4.0000" ry="0.0000" fill="currentColor"/>
</g>
<g transform="translate(0.0000, 16.6317)">
<rect x="98.5674" y="-0.1000" width="1.9563" height="0.2000" ry="0.1000" fill="currentColor"/>
</g>
<g transform="translate(0.0000, 16.6317)">
<rect x="86.0386" y="-0.1000" width="1.9563" height="0.2000" ry="0.1000" fill="currentColor"/>
</g>
<g transform="translate(0.0000, 16.6317)">
<rect x="82.9064" y="-0.1000" width="1.9563" height="0.2000" ry="0.1000" fill="currentColor"/>
</g>
<g transform="translate(0.0000, 16.6317)">
<rect x="79.7742" y="-0.1000" width="1.9563" height="0.2000" ry="0.1000" fill="currentColor"/>
</g>
<g transform="translate(0.0000, 16.6317)">
<rect x="31.3797" y="-0.1000" width="1.9563" height="0.2000" ry="0.1000" fill="currentColor"/>
</g>
<g transform="translate(8.5358, 15.6317)">
<line stroke-linejoin="round" stroke-linecap="round" stroke-width="0.1000" stroke="currentColor" x1="0.0500" y1="0" x2="93.8441" y2="0"/>
</g>
<g transform="translate(8.5358, 14.6317)">
<line stroke-linejoin="round" stroke-linecap="round" stroke-width="0.1000" stroke="currentColor" x1="0.0500" y1="0" x2="93.8441" y2="0"/>
</g>
<g transform="translate(8.5358, 13.6317)">
<line stroke-linejoin="round" stroke-linecap="round" stroke-width="0.1000" stroke="currentColor" x1="0.0500" y1="0" x2="93.8441" y2="0"/>
</g>
<g transform="translate(8.5358, 12.6317)">
<line stroke-linejoin="round" stroke-linecap="round" stroke-width="0.1000" stroke="currentColor" x1="0.0500" y1="0" x2="93.8441" y2="0"/>
</g>
<g transform="translate(8.5358, 11.6317)">
<line stroke-linejoin="round" stroke-linecap="round" stroke-width="0.1000" stroke="currentColor" x1="0.0500" y1="0" x2="93.8441" y2="0"/>
</g>
<g transform="translate(76.1977, 4.4153)">
<rect x="0.0000" y="-2.0000" width="0.1900" height="4.0000" ry="0.0000" fill="currentColor"/>
</g>
<g transform="translate(45.4555, 13.6317)">
<rect x="0.0000" y="-2.0000" width="0.1900" height="4.0000" ry="0.0000" fill="currentColor"/>
</g>
<g transform="translate(45.4555, 4.4153)">
<rect x="0.0000" y="-2.0000" width="0.1900" height="4.0000" ry="0.0000" fill="currentColor"/>
</g>
<g transform="translate(36.1699, 13.6317)">
<rect x="0.0000" y="-2.0000" width="0.1900" height="4.0000" ry="0.0000" fill="currentColor"/>
</g>
<g transform="translate(64.6515, 4.9153)">
<path transform="scale(0.0040, -0.0040)" d="M0 -46c0 91 116 182 217 182c63 0 109 -35 109 -90c0 -87 -110 -182 -220 -182c-67 0 -106 39 -106 90z" fill="currentColor"/>
</g>
<g transform="translate(50.2677, 1.2139)">
<text font-family="serif" font-style="italic" font-size="1.7459" text-anchor="start" fill="currentColor">
<tspan>3</tspan>
</text>
</g>
<g transform="translate(22.1397, 4.4153)">
<path transform="scale(0.0040, -0.0040)" d="M365 0h-355c-6 0 -10 4 -10 10v136c0 6 4 10 10 10h355c6 0 10 -4 10 -10v-136c0 -6 -4 -10 -10 -10z" fill="currentColor"/>
</g>
<g transform="translate(9.3358, 5.4153)">
<path transform="scale(0.0040, -0.0040)" d="M266 -635h-6c-108 0 -195 88 -195 197c0 58 53 103 112 103c54 0 95 -47 95 -103c0 -52 -43 -95 -95 -95c-11 0 -21 2 -31 6c26 -39 68 -65 117 -65h4zM401 151c19 -89 48 -242 60 -354c76 27 112 94 112 163c0 89 -60 179 -172 191zM74 28c0 -112 98 -247 278 -247
c21 0 44 2 68 6c-7 64 -29 203 -63 364c-79 -8 -124 -61 -124 -119c0 -44 25 -91 81 -123c5 -5 7 -10 7 -15c0 -11 -10 -22 -22 -22c-15 0 -126 62 -126 187c0 88 58 174 160 197c-14 58 -29 117 -46 175c-107 -121 -213 -243 -213 -403zM357 1194c28 0 143 -206 143 -361
c0 -143 -86 -255 -180 -364c21 -68 39 -138 56 -207c5 0 10 1 14 1c155 0 255 -129 255 -262c0 -113 -74 -212 -180 -245c3 -35 5 -70 5 -105c0 -19 -1 -39 -2 -58c-7 -119 -88 -225 -202 -228l1 43c93 2 153 92 159 191c1 18 2 37 2 55c0 31 -1 61 -4 92
c-28 -5 -55 -8 -80 -8c-239 0 -342 217 -342 374c0 177 131 306 248 441c-29 96 -52 170 -52 346c0 189 144 295 159 295zM247 782c0 -55 12 -115 35 -190c82 100 147 202 147 326c0 40 -6 82 -21 127c-49 -24 -161 -97 -161 -263z" fill="currentColor"/>
</g>
<g transform="translate(12.8408, 4.4153)">
<path transform="scale(0.0040, -0.0040)" d="M27 41l-1 -66v-11c0 -22 1 -44 4 -66c45 38 93 80 93 139c0 33 -14 67 -43 67c-31 0 -52 -30 -53 -63zM-15 -138l-12 595c8 5 18 8 27 8s19 -3 27 -8l-7 -345c25 21 58 34 91 34c52 0 89 -48 89 -102c0 -80 -86 -117 -147 -169c-15 -13 -24 -38 -45 -38
c-13 0 -23 11 -23 25z" fill="currentColor"/>
</g>
<g transform="translate(13.7608, 2.9153)">
<path transform="scale(0.0040, -0.0040)" d="M27 41l-1 -66v-11c0 -22 1 -44 4 -66c45 38 93 80 93 139c0 33 -14 67 -43 67c-31 0 -52 -30 -53 -63zM-15 -138l-12 595c8 5 18 8 27 8s19 -3 27 -8l-7 -345c25 21 58 34 91 34c52 0 89 -48 89 -102c0 -80 -86 -117 -147 -169c-15 -13 -24 -38 -45 -38
c-13 0 -23 11 -23 25z" fill="currentColor"/>
</g>
<g transform="translate(14.6808, 4.9153)">
<path transform="scale(0.0040, -0.0040)" d="M27 41l-1 -66v-11c0 -22 1 -44 4 -66c45 38 93 80 93 139c0 33 -14 67 -43 67c-31 0 -52 -30 -53 -63zM-15 -138l-12 595c8 5 18 8 27 8s19 -3 27 -8l-7 -345c25 21 58 34 91 34c52 0 89 -48 89 -102c0 -80 -86 -117 -147 -169c-15 -13 -24 -38 -45 -38
c-13 0 -23 11 -23 25z" fill="currentColor"/>
</g>
<g transform="translate(15.6008, 3.4153)">
<path transform="scale(0.0040, -0.0040)" d="M27 41l-1 -66v-11c0 -22 1 -44 4 -66c45 38 93 80 93 139c0 33 -14 67 -43 67c-31 0 -52 -30 -53 -63zM-15 -138l-12 595c8 5 18 8 27 8s19 -3 27 -8l-7 -345c25 21 58 34 91 34c52 0 89 -48 89 -102c0 -80 -86 -117 -147 -169c-15 -13 -24 -38 -45 -38
c-13 0 -23 11 -23 25z" fill="currentColor"/>
</g>
<g transform="translate(16.5208, 5.4153)">
<path transform="scale(0.0040, -0.0040)" d="M27 41l-1 -66v-11c0 -22 1 -44 4 -66c45 38 93 80 93 139c0 33 -14 67 -43 67c-31 0 -52 -30 -53 -63zM-15 -138l-12 595c8 5 18 8 27 8s19 -3 27 -8l-7 -345c25 21 58 34 91 34c52 0 89 -48 89 -102c0 -80 -86 -117 -147 -169c-15 -13 -24 -38 -45 -38
c-13 0 -23 11 -23 25z" fill="currentColor"/>
</g>
<g transform="translate(18.4708, 4.4153)">
<path transform="scale(0.0040, -0.0040)" d="M433 -89c0 -22 -50 -174 -183 -174c-59 0 -250 19 -250 263c0 62 18 262 250 262c116 0 176 -106 176 -163c0 -40 -30 -72 -67 -72c-31 0 -75 25 -75 75c0 38 27 77 72 77c4 0 9 0 14 -1c-28 37 -72 59 -120 59c-106 0 -113 -73 -113 -186v-51v-51
c0 -113 7 -187 113 -187c80 0 139 70 158 151c2 7 7 10 12 10c6 0 13 -4 13 -12z" fill="currentColor"/>
</g>
<g transform="translate(22.1397, 13.6317)">
<path transform="scale(0.0040, -0.0040)" d="M365 0h-355c-6 0 -10 4 -10 10v136c0 6 4 10 10 10h355c6 0 10 -4 10 -10v-136c0 -6 -4 -10 -10 -10z" fill="currentColor"/>
</g>
<g transform="translate(9.3358, 14.6317)">
<path transform="scale(0.0040, -0.0040)" d="M266 -635h-6c-108 0 -195 88 -195 197c0 58 53 103 112 103c54 0 95 -47 95 -103c0 -52 -43 -95 -95 -95c-11 0 -21 2 -31 6c26 -39 68 -65 117 -65h4zM401 151c19 -89 48 -242 60 -354c76 27 112 94 112 163c0 89 -60 179 -172 191zM74 28c0 -112 98 -247 278 -247
c21 0 44 2 68 6c-7 64 -29 203 -63 364c-79 -8 -124 -61 -124 -119c0 -44 25 -91 81 -123c5 -5 7 -10 7 -15c0 -11 -10 -22 -22 -22c-15 0 -126 62 -126 187c0 88 58 174 160 197c-14 58 -29 117 -46 175c-107 -121 -213 -243 -213 -403zM357 1194c28 0 143 -206 143 -361
c0 -143 -86 -255 -180 -364c21 -68 39 -138 56 -207c5 0 10 1 14 1c155 0 255 -129 255 -262c0 -113 -74 -212 -180 -245c3 -35 5 -70 5 -105c0 -19 -1 -39 -2 -58c-7 -119 -88 -225 -202 -228l1 43c93 2 153 92 159 191c1 18 2 37 2 55c0 31 -1 61 -4 92
c-28 -5 -55 -8 -80 -8c-239 0 -342 217 -342 374c0 177 131 306 248 441c-29 96 -52 170 -52 346c0 189 144 295 159 295zM247 782c0 -55 12 -115 35 -190c82 100 147 202 147 326c0 40 -6 82 -21 127c-49 -24 -161 -97 -161 -263z" fill="currentColor"/>
</g>
<g transform="translate(12.8408, 13.6317)">
<path transform="scale(0.0040, -0.0040)" d="M27 41l-1 -66v-11c0 -22 1 -44 4 -66c45 38 93 80 93 139c0 33 -14 67 -43 67c-31 0 -52 -30 -53 -63zM-15 -138l-12 595c8 5 18 8 27 8s19 -3 27 -8l-7 -345c25 21 58 34 91 34c52 0 89 -48 89 -102c0 -80 -86 -117 -147 -169c-15 -13 -24 -38 -45 -38
c-13 0 -23 11 -23 25z" fill="currentColor"/>
</g>
<g transform="translate(13.7608, 12.1317)">
<path transform="scale(0.0040, -0.0040)" d="M27 41l-1 -66v-11c0 -22 1 -44 4 -66c45 38 93 80 93 139c0 33 -14 67 -43 67c-31 0 -52 -30 -53 -63zM-15 -138l-12 595c8 5 18 8 27 8s19 -3 27 -8l-7 -345c25 21 58 34 91 34c52 0 89 -48 89 -102c0 -80 -86 -117 -147 -169c-15 -13 -24 -38 -45 -38
c-13 0 -23 11 -23 25z" fill="currentColor"/>
</g>
<g transform="translate(14.6808, 14.1317)">
<path transform="scale(0.0040, -0.0040)" d="M27 41l-1 -66v-11c0 -22 1 -44 4 -66c45 38 93 80 93 139c0 33 -14 67 -43 67c-31 0 -52 -30 -53 -63zM-15 -138l-12 595c8 5 18 8 27 8s19 -3 27 -8l-7 -345c25 21 58 34 91 34c52 0 89 -48 89 -102c0 -80 -86 -117 -147 -169c-15 -13 -24 -38 -45 -38
c-13 0 -23 11 -23 25z" fill="currentColor"/>
</g>
<g transform="translate(15.6008, 12.6317)">
<path transform="scale(0.0040, -0.0040)" d="M27 41l-1 -66v-11c0 -22 1 -44 4 -66c45 38 93 80 93 139c0 33 -14 67 -43 67c-31 0 -52 -30 -53 -63zM-15 -138l-12 595c8 5 18 8 27 8s19 -3 27 -8l-7 -345c25 21 58 34 91 34c52 0 89 -48 89 -102c0 -80 -86 -117 -147 -169c-15 -13 -24 -38 -45 -38
c-13 0 -23 11 -23 25z" fill="currentColor"/>
</g>
<g transform="translate(16.5208, 14.6317)">
<path transform="scale(0.0040, -0.0040)" d="M27 41l-1 -66v-11c0 -22 1 -44 4 -66c45 38 93 80 93 139c0 33 -14 67 -43 67c-31 0 -52 -30 -53 -63zM-15 -138l-12 595c8 5 18 8 27 8s19 -3 27 -8l-7 -345c25 21 58 34 91 34c52 0 89 -48 89 -102c0 -80 -86 -117 -147 -169c-15 -13 -24 -38 -45 -38
c-13 0 -23 11 -23 25z" fill="currentColor"/>
</g>
<g transform="translate(18.4708, 13.6317)">
<path transform="scale(0.0040, -0.0040)" d="M433 -89c0 -22 -50 -174 -183 -174c-59 0 -250 19 -250 263c0 62 18 262 250 262c116 0 176 -106 176 -163c0 -40 -30 -72 -67 -72c-31 0 -75 25 -75 75c0 38 27 77 72 77c4 0 9 0 14 -1c-28 37 -72 59 -120 59c-106 0 -113 -73 -113 -186v-51v-51
c0 -113 7 -187 113 -187c80 0 139 70 158 151c2 7 7 10 12 10c6 0 13 -4 13 -12z" fill="currentColor"/>
</g>
<g transform="translate(6.0775, 1.4422)">
<text font-family="serif" font-size="1.7459" text-anchor="start" fill="currentColor">
<tspan>101</tspan>
</text>
</g>
<g transform="translate(81.2744, 13.6317)">
<polygon stroke-linejoin="round" stroke-linecap="round" stroke-width="0.0800" fill="currentColor" stroke="currentColor" points="6.3544 -0.2000 6.3544 0.2000 0.0400 0.2000 0.0400 -0.2000"/>
</g>
<g transform="translate(27.7744, 4.4153)">
<path transform="scale(0.0040, -0.0040)" d="M-6 78c0 59 124 83 124 182c0 24 -8 49 -25 69l-35 42c-3 3 -4 7 -4 10c0 9 9 15 17 15c4 0 8 -1 11 -5l151 -180c7 -9 10 -17 10 -25c0 -59 -124 -83 -124 -182c0 -24 7 -49 24 -69l84 -99c3 -3 4 -7 4 -10c0 -9 -8 -16 -16 -16s-45 44 -109 44c-16 0 -53 0 -53 -67
c0 -62 30 -97 30 -100c0 -4 -4 -7 -8 -7c-13 0 -98 130 -98 204c0 41 27 42 40 42c33 0 78 -13 119 -31l-132 158c-7 9 -10 17 -10 25z" fill="currentColor"/>
</g>
<g transform="translate(27.7744, 13.6317)">
<path transform="scale(0.0040, -0.0040)" d="M-6 78c0 59 124 83 124 182c0 24 -8 49 -25 69l-35 42c-3 3 -4 7 -4 10c0 9 9 15 17 15c4 0 8 -1 11 -5l151 -180c7 -9 10 -17 10 -25c0 -59 -124 -83 -124 -182c0 -24 7 -49 24 -69l84 -99c3 -3 4 -7 4 -10c0 -9 -8 -16 -16 -16s-45 44 -109 44c-16 0 -53 0 -53 -67
c0 -62 30 -97 30 -100c0 -4 -4 -7 -8 -7c-13 0 -98 130 -98 204c0 41 27 42 40 42c33 0 78 -13 119 -31l-132 158c-7 9 -10 17 -10 25z" fill="currentColor"/>
</g>
<g transform="translate(31.7058, 6.9153)">
<path transform="scale(0.0040, -0.0040)" d="M0 -46c0 91 116 182 217 182c63 0 109 -35 109 -90c0 -87 -110 -182 -220 -182c-67 0 -106 39 -106 90z" fill="currentColor"/>
</g>
<g transform="translate(31.1287, 9.9632)">
<text font-family="serif" font-size="2.4697" text-anchor="start" fill="currentColor">
<tspan>あ</tspan>
</text>
</g>
<g transform="translate(31.7058, 17.1317)">
<path transform="scale(0.0040, -0.0040)" d="M0 -46c0 91 116 182 217 182c63 0 109 -35 109 -90c0 -87 -110 -182 -220 -182c-67 0 -106 39 -106 90z" fill="currentColor"/>
</g>
<g transform="translate(31.1287, 20.1796)">
<text font-family="serif" font-size="2.4697" text-anchor="start" fill="currentColor">
<tspan>あ</tspan>
</text>
</g>
<g transform="translate(32.9450, 4.4153)">
<rect x="-0.0650" y="-1.0000" width="0.1300" height="3.3138" ry="0.0400" fill="currentColor"/>
</g>
<g transform="translate(32.9450, 13.6317)">
<rect x="-0.0650" y="-0.0000" width="0.1300" height="3.3138" ry="0.0400" fill="currentColor"/>
</g>
<g transform="translate(38.2054, 4.4153)">
<path transform="scale(0.0040, -0.0040)" d="M347 -26c0 102 -89 139 -133 139c-23 0 -70 -10 -70 -89c0 -91 76 -136 132 -136c22 0 71 8 71 86zM245 136c144 0 246 -65 246 -136s-102 -136 -246 -136s-245 65 -245 136s101 136 245 136z" fill="currentColor"/>
</g>
<g transform="translate(8.4758, 9.0235)">
<rect x="0.0000" y="-6.6582" width="0.1600" height="13.3164" ry="0.0500" fill="currentColor"/>
</g>
<g transform="translate(37.9573, 9.9632)">
<text font-family="serif" font-size="2.4697" text-anchor="start" fill="currentColor">
<tspan>あ</tspan>
</text>
</g>
<g transform="translate(38.2054, 14.6317)">
<path transform="scale(0.0040, -0.0040)" d="M347 -26c0 102 -89 139 -133 139c-23 0 -70 -10 -70 -89c0 -91 76 -136 132 -136c22 0 71 8 71 86zM245 136c144 0 246 -65 246 -136s-102 -136 -246 -136s-245 65 -245 136s101 136 245 136z" fill="currentColor"/>
</g>
<g transform="translate(7.2258, 2.1403)">
<path transform="scale(0.0040, -0.0040)" d="M0 -56v87c0 14 11 25 25 25h50c159 0 271 136 362 270c3 5 8 7 12 7c8 0 17 -7 17 -16c0 -3 -1 -6 -3 -9c-99 -144 -215 -364 -388 -364h-75z" fill="currentColor"/>
</g>
<g transform="translate(7.2258, 15.9067)">
<path transform="scale(0.0040, -0.0040)" d="M0 56h75c173 0 289 -220 388 -364c2 -3 3 -6 3 -9c0 -9 -9 -16 -17 -16c-4 0 -9 2 -12 7c-91 134 -203 270 -362 270h-50c-14 0 -25 11 -25 25v87z" fill="currentColor"/>
</g>
<g transform="translate(7.2258, 9.0235)">
<rect x="0.0000" y="-6.7032" width="0.4500" height="13.4064" ry="0.0000" fill="currentColor"/>
</g>
<g transform="translate(37.9573, 20.1796)">
<text font-family="serif" font-size="2.4697" text-anchor="start" fill="currentColor">
<tspan>あ</tspan>
</text>
</g>
<g transform="translate(69.1749, 1.6053)">
<polygon stroke-linejoin="round" stroke-linecap="round" stroke-width="0.0800" fill="currentColor" stroke="currentColor" points="5.5928 0.4200 5.5928 0.8200 0.0400 0.2000 0.0400 -0.2000"/>
</g>
<g transform="translate(46.5299, 4.4153)">
<path transform="scale(0.0040, -0.0040)" d="M0 -46c0 91 116 182 217 182c63 0 109 -35 109 -90c0 -87 -110 -182 -220 -182c-67 0 -106 39 -106 90z" fill="currentColor"/>
</g>
<g transform="translate(45.9529, 9.9632)">
<text font-family="serif" font-size="2.4697" text-anchor="start" fill="currentColor">
<tspan>あ</tspan>
</text>
</g>
<g transform="translate(47.7691, 4.4153)">
<rect x="-0.0650" y="-2.8032" width="0.1300" height="2.6170" ry="0.0400" fill="currentColor"/>
</g>
<g transform="translate(49.4382, 4.9153)">
<path transform="scale(0.0040, -0.0040)" d="M0 -46c0 91 116 182 217 182c63 0 109 -35 109 -90c0 -87 -110 -182 -220 -182c-67 0 -106 39 -106 90z" fill="currentColor"/>
</g>
<g transform="translate(48.8612, 9.9632)">
<text font-family="serif" font-size="2.4697" text-anchor="start" fill="currentColor">
<tspan>め</tspan>
</text>
</g>
<g transform="translate(50.6774, 4.4153)">
<rect x="-0.0650" y="-2.5000" width="0.1300" height="2.8138" ry="0.0400" fill="currentColor"/>
</g>
<g transform="translate(62.6935, 2.4153)">
<polygon stroke-linejoin="round" stroke-linecap="round" stroke-width="0.0800" fill="currentColor" stroke="currentColor" points="3.2222 -0.3900 3.2222 0.0100 0.0400 0.2000 0.0400 -0.2000"/>
</g>
<g transform="translate(52.3466, 5.4153)">
<path transform="scale(0.0040, -0.0040)" d="M0 -46c0 91 116 182 217 182c63 0 109 -35 109 -90c0 -87 -110 -182 -220 -182c-67 0 -106 39 -106 90z" fill="currentColor"/>
</g>
<g transform="translate(51.7695, 9.9632)">
<text font-family="serif" font-size="2.4697" text-anchor="start" fill="currentColor">
<tspan>が</tspan>
</text>
</g>
<g transform="translate(53.5858, 4.4153)">
<rect x="-0.0650" y="-2.1968" width="0.1300" height="3.0106" ry="0.0400" fill="currentColor"/>
</g>
<g transform="translate(55.2549, 5.9153)">
<path transform="scale(0.0040, -0.0040)" d="M0 -46c0 91 116 182 217 182c63 0 109 -35 109 -90c0 -87 -110 -182 -220 -182c-67 0 -106 39 -106 90z" fill="currentColor"/>
</g>
<g transform="translate(54.6778, 9.9632)">
<text font-family="serif" font-size="2.4697" text-anchor="start" fill="currentColor">
<tspan>フ</tspan>
</text>
</g>
<g transform="translate(56.4941, 4.4153)">
<rect x="-0.0650" y="-1.8138" width="0.1300" height="3.1276" ry="0.0400" fill="currentColor"/>
</g>
<g transform="translate(71.5816, 1.2135)">
<text font-family="serif" font-style="italic" font-size="1.7459" text-anchor="start" fill="currentColor">
<tspan>3</tspan>
</text>
</g>
<g transform="translate(58.3871, 5.4153)">
<path transform="scale(0.0040, -0.0040)" d="M0 -46c0 91 116 182 217 182c63 0 109 -35 109 -90c0 -87 -110 -182 -220 -182c-67 0 -106 39 -106 90z" fill="currentColor"/>
</g>
<g transform="translate(57.8100, 9.9632)">
<text font-family="serif" font-size="2.4697" text-anchor="start" fill="currentColor">
<tspan>ロ</tspan>
</text>
</g>
<g transform="translate(59.6263, 4.4153)">
<rect x="-0.0650" y="-1.9962" width="0.1300" height="2.8100" ry="0.0400" fill="currentColor"/>
</g>
<g transform="translate(61.5193, 5.4153)">
<path transform="scale(0.0040, -0.0040)" d="M0 -46c0 91 116 182 217 182c63 0 109 -35 109 -90c0 -87 -110 -182 -220 -182c-67 0 -106 39 -106 90z" fill="currentColor"/>
</g>
<g transform="translate(60.9422, 9.9632)">
<text font-family="serif" font-size="2.4697" text-anchor="start" fill="currentColor">
<tspan>ン</tspan>
</text>
</g>
<g transform="translate(62.7585, 4.4153)">
<rect x="-0.0650" y="-2.0038" width="0.1300" height="2.8176" ry="0.0400" fill="currentColor"/>
</g>
<g transform="translate(64.6515, 9.9632)">
<text font-family="serif" font-size="2.4697" text-anchor="start" fill="currentColor">
<tspan>トー</tspan>
</text>
</g>
<g transform="translate(65.8907, 4.4153)">
<rect x="-0.0650" y="-2.1862" width="0.1300" height="2.5000" ry="0.0400" fill="currentColor"/>
</g>
<g transform="translate(68.0007, 4.9153)">
<path transform="scale(0.0040, -0.0040)" d="M0 -46c0 91 116 182 217 182c63 0 109 -35 109 -90c0 -87 -110 -182 -220 -182c-67 0 -106 39 -106 90z" fill="currentColor"/>
</g>
<g transform="translate(69.2399, 4.4153)">
<rect x="-0.0650" y="-2.8028" width="0.1300" height="3.1166" ry="0.0400" fill="currentColor"/>
</g>
<g transform="translate(70.5952, 5.4153)">
<path transform="scale(0.0040, -0.0040)" d="M0 -46c0 91 116 182 217 182c63 0 109 -35 109 -90c0 -87 -110 -182 -220 -182c-67 0 -106 39 -106 90z" fill="currentColor"/>
</g>
<g transform="translate(70.0181, 9.9632)">
<text font-family="serif" font-size="2.4697" text-anchor="start" fill="currentColor">
<tspan>ガ</tspan>
</text>
</g>
<g transform="translate(71.8344, 4.4153)">
<rect x="-0.0650" y="-2.5173" width="0.1300" height="3.3311" ry="0.0400" fill="currentColor"/>
</g>
<g transform="translate(64.6515, 4.4153)">
<path stroke-width="0.0800" stroke-linejoin="round" stroke-linecap="round" stroke="currentColor" fill="currentColor" d="M0.8521 1.2250C1.4968 1.9189 3.1566 1.9189 3.8013 1.2250L3.8013 1.2250C3.1566 1.7989 1.4968 1.7989 0.8521 1.2250z"/>
</g>
<g transform="translate(73.5035, 5.9153)">
<path transform="scale(0.0040, -0.0040)" d="M0 -46c0 91 116 182 217 182c63 0 109 -35 109 -90c0 -87 -110 -182 -220 -182c-67 0 -106 39 -106 90z" fill="currentColor"/>
</g>
<g transform="translate(72.9264, 9.9632)">
<text font-family="serif" font-size="2.4697" text-anchor="start" fill="currentColor">
<tspan>ラ</tspan>
</text>
</g>
<g transform="translate(74.7427, 4.4153)">
<rect x="-0.0650" y="-2.1972" width="0.1300" height="3.5110" ry="0.0400" fill="currentColor"/>
</g>
<g transform="translate(56.4291, 2.6053)">
<polygon stroke-linejoin="round" stroke-linecap="round" stroke-width="0.0800" fill="currentColor" stroke="currentColor" points="3.2222 -0.3900 3.2222 0.0100 0.0400 0.2000 0.0400 -0.2000"/>
</g>
<g transform="translate(77.2722, 6.4153)">
<path transform="scale(0.0040, -0.0040)" d="M347 -26c0 102 -89 139 -133 139c-23 0 -70 -10 -70 -89c0 -91 76 -136 132 -136c22 0 71 8 71 86zM245 136c144 0 246 -65 246 -136s-102 -136 -246 -136s-245 65 -245 136s101 136 245 136z" fill="currentColor"/>
</g>
<g transform="translate(0.5922, 14.4370)">
<text font-family="serif" font-size="2.2000" text-anchor="start" fill="currentColor">
<tspan>Vo.2</tspan>
</text>
</g>
<g transform="translate(77.0240, 9.9632)">
<text font-family="serif" font-size="2.4697" text-anchor="start" fill="currentColor">
<tspan>ス</tspan>
</text>
</g>
<g transform="translate(77.2722, 13.6317)">
<path transform="scale(0.0040, -0.0040)" d="M70 205c79 0 46 -98 91 -98c16 0 54 48 61 63c3 6 8 9 14 9s12 -3 14 -9l-123 -420c-8 -7 -17 -10 -27 -10s-20 3 -28 10l117 326c-34 -12 -69 -22 -105 -22c-58 0 -85 41 -85 80c0 36 24 71 71 71z" fill="currentColor"/>
</g>
<g transform="translate(80.1002, 16.6317)">
<path transform="scale(0.0040, -0.0040)" d="M0 -46c0 91 116 182 217 182c63 0 109 -35 109 -90c0 -87 -110 -182 -220 -182c-67 0 -106 39 -106 90z" fill="currentColor"/>
</g>
<g transform="translate(79.5231, 20.1796)">
<text font-family="serif" font-size="2.4697" text-anchor="start" fill="currentColor">
<tspan>つ</tspan>
</text>
</g>
<g transform="translate(81.3394, 13.6317)">
<rect x="-0.0650" y="0.0000" width="0.1300" height="2.8138" ry="0.0400" fill="currentColor"/>
</g>
<g transform="translate(83.2324, 16.6317)">
<path transform="scale(0.0040, -0.0040)" d="M0 -46c0 91 116 182 217 182c63 0 109 -35 109 -90c0 -87 -110 -182 -220 -182c-67 0 -106 39 -106 90z" fill="currentColor"/>
</g>
<g transform="translate(82.6553, 20.1796)">
<text font-family="serif" font-size="2.4697" text-anchor="start" fill="currentColor">
<tspan>た</tspan>
</text>
</g>
<g transform="translate(84.4716, 13.6317)">
<rect x="-0.0650" y="0.0000" width="0.1300" height="2.8138" ry="0.0400" fill="currentColor"/>
</g>
<g transform="translate(47.7041, 1.6053)">
<polygon stroke-linejoin="round" stroke-linecap="round" stroke-width="0.0800" fill="currentColor" stroke="currentColor" points="5.9066 0.4200 5.9066 0.8200 0.0400 0.2000 0.0400 -0.2000"/>
</g>
<g transform="translate(86.3646, 16.6317)">
<path transform="scale(0.0040, -0.0040)" d="M0 -46c0 91 116 182 217 182c63 0 109 -35 109 -90c0 -87 -110 -182 -220 -182c-67 0 -106 39 -106 90z" fill="currentColor"/>
</g>
<g transform="translate(85.7876, 20.1796)">
<text font-family="serif" font-size="2.4697" text-anchor="start" fill="currentColor">
<tspan>い</tspan>
</text>
</g>
<g transform="translate(87.6038, 13.6317)">
<rect x="-0.0650" y="0.0000" width="0.1300" height="2.8138" ry="0.0400" fill="currentColor"/>
</g>
<g transform="translate(89.4968, 16.1317)">
<path transform="scale(0.0040, -0.0040)" d="M0 -46c0 91 116 182 217 182c63 0 109 -35 109 -90c0 -87 -110 -182 -220 -182c-67 0 -106 39 -106 90z" fill="currentColor"/>
</g>
<g transform="translate(88.9198, 20.1796)">
<text font-family="serif" font-size="2.4697" text-anchor="start" fill="currentColor">
<tspan>お</tspan>
</text>
</g>
<g transform="translate(90.7360, 13.6317)">
<rect x="-0.0650" y="-0.1900" width="0.1300" height="2.5038" ry="0.0400" fill="currentColor"/>
</g>
<g transform="translate(92.6290, 16.1317)">
<path transform="scale(0.0040, -0.0040)" d="M0 -46c0 91 116 182 217 182c63 0 109 -35 109 -90c0 -87 -110 -182 -220 -182c-67 0 -106 39 -106 90z" fill="currentColor"/>
</g>
<g transform="translate(92.0520, 20.1796)">
<text font-family="serif" font-size="2.4697" text-anchor="start" fill="currentColor">
<tspan>ち</tspan>
</text>
</g>
<g transform="translate(93.8682, 13.6317)">
<rect x="-0.0650" y="-0.1900" width="0.1300" height="2.5038" ry="0.0400" fill="currentColor"/>
</g>
<g transform="translate(95.7612, 16.1317)">
<path transform="scale(0.0040, -0.0040)" d="M0 -46c0 91 116 182 217 182c63 0 109 -35 109 -90c0 -87 -110 -182 -220 -182c-67 0 -106 39 -106 90z" fill="currentColor"/>
</g>
<g transform="translate(95.1842, 20.1796)">
<text font-family="serif" font-size="2.4697" text-anchor="start" fill="currentColor">
<tspan>て</tspan>
</text>
</g>
<g transform="translate(97.0004, 13.6317)">
<rect x="-0.0650" y="-0.1900" width="0.1300" height="2.5038" ry="0.0400" fill="currentColor"/>
</g>
<g transform="translate(98.8934, 16.6317)">
<path transform="scale(0.0040, -0.0040)" d="M0 -46c0 91 116 182 217 182c63 0 109 -35 109 -90c0 -87 -110 -182 -220 -182c-67 0 -106 39 -106 90z" fill="currentColor"/>
</g>
<g transform="translate(98.3164, 20.1796)">
<text font-family="serif" font-size="2.4697" text-anchor="start" fill="currentColor">
<tspan>く</tspan>
</text>
</g>
<g transform="translate(100.1326, 13.6317)">
<rect x="-0.0650" y="-0.1900" width="0.1300" height="3.0038" ry="0.0400" fill="currentColor"/>
</g>
<g transform="translate(60.1716, 12.6317)">
<path transform="scale(0.0040, -0.0040)" d="M365 -156h-355c-6 0 -10 4 -10 10v136c0 6 4 10 10 10h355c6 0 10 -4 10 -10v-136c0 -6 -4 -10 -10 -10z" fill="currentColor"/>
</g>
<g transform="translate(0.5922, 5.2217)">
<text font-family="serif" font-size="2.2000" text-anchor="start" fill="currentColor">
<tspan>Vo.1</tspan>
</text>
</g>
<g transform="translate(90.6710, 13.4417)">
<polygon stroke-linejoin="round" stroke-linecap="round" stroke-width="0.0800" fill="currentColor" stroke="currentColor" points="9.4866 -0.2000 9.4866 0.2000 0.0400 0.2000 0.0400 -0.2000"/>
</g>
<g transform="translate(30.3673, 24.4987)">
<rect x="0.0000" y="-2.0000" width="0.1900" height="4.0000" ry="0.0000" fill="currentColor"/>
</g>
<g transform="translate(0.0000, 26.4987)">
<line stroke-linejoin="round" stroke-linecap="round" stroke-width="0.1000" stroke="currentColor" x1="0.0500" y1="0" x2="102.3799" y2="0"/>
</g>
<g transform="translate(0.0000, 25.4987)">
<line stroke-linejoin="round" stroke-linecap="round" stroke-width="0.1000" stroke="currentColor" x1="0.0500" y1="0" x2="102.3799" y2="0"/>
</g>
<g transform="translate(0.0000, 24.4987)">
<line stroke-linejoin="round" stroke-linecap="round" stroke-width="0.1000" stroke="currentColor" x1="0.0500" y1="0" x2="102.3799" y2="0"/>
</g>
<g transform="translate(0.0000, 23.4987)">
<line stroke-linejoin="round" stroke-linecap="round" stroke-width="0.1000" stroke="currentColor" x1="0.0500" y1="0" x2="102.3799" y2="0"/>
</g>
<g transform="translate(0.0000, 22.4987)">
<line stroke-linejoin="round" stroke-linecap="round" stroke-width="0.1000" stroke="currentColor" x1="0.0500" y1="0" x2="102.3799" y2="0"/>
</g>
<g transform="translate(102.2399, 35.6103)">
<rect x="0.0000" y="-2.0000" width="0.1900" height="4.0000" ry="0.0000" fill="currentColor"/>
</g>
<g transform="translate(102.2399, 24.4987)">
<rect x="0.0000" y="-2.0000" width="0.1900" height="4.0000" ry="0.0000" fill="currentColor"/>
</g>
<g transform="translate(94.1775, 35.6103)">
<rect x="0.0000" y="-2.0000" width="0.1900" height="4.0000" ry="0.0000" fill="currentColor"/>
</g>
<g transform="translate(0.0000, 38.6103)">
<rect x="74.4804" y="-0.1000" width="1.9563" height="0.2000" ry="0.1000" fill="currentColor"/>
</g>
<g transform="translate(0.0000, 39.6103)">
<rect x="74.4804" y="-0.1000" width="1.9563" height="0.2000" ry="0.1000" fill="currentColor"/>
</g>
<g transform="translate(0.0000, 38.6103)">
<rect x="71.5721" y="-0.1000" width="1.9563" height="0.2000" ry="0.1000" fill="currentColor"/>
</g>
<g transform="translate(0.0000, 38.6103)">
<rect x="68.6637" y="-0.1000" width="1.9563" height="0.2000" ry="0.1000" fill="currentColor"/>
</g>
<g transform="translate(0.0000, 39.6103)">
<rect x="68.6637" y="-0.1000" width="1.9563" height="0.2000" ry="0.1000" fill="currentColor"/>
</g>
<g transform="translate(0.0000, 38.6103)">
<rect x="63.6869" y="-0.1000" width="1.9563" height="0.2000" ry="0.1000" fill="currentColor"/>
</g>
<g transform="translate(0.0000, 39.6103)">
<rect x="63.6869" y="-0.1000" width="1.9563" height="0.2000" ry="0.1000" fill="currentColor"/>
</g>
<g transform="translate(0.0000, 38.6103)">
<rect x="59.5494" y="-0.1000" width="1.9563" height="0.2000" ry="0.1000" fill="currentColor"/>
</g>
<g transform="translate(0.0000, 39.6103)">
<rect x="59.5494" y="-0.1000" width="1.9563" height="0.2000" ry="0.1000" fill="currentColor"/>
</g>
<g transform="translate(0.0000, 38.6103)">
<rect x="55.4120" y="-0.1000" width="1.9563" height="0.2000" ry="0.1000" fill="currentColor"/>
</g>
<g transform="translate(0.0000, 38.6103)">
<rect x="51.2745" y="-0.1000" width="1.9563" height="0.2000" ry="0.1000" fill="currentColor"/>
</g>
<g transform="translate(0.0000, 38.6103)">
<rect x="47.1370" y="-0.1000" width="1.9563" height="0.2000" ry="0.1000" fill="currentColor"/>
</g>
<g transform="translate(0.0000, 38.6103)">
<rect x="44.2287" y="-0.1000" width="1.9563" height="0.2000" ry="0.1000" fill="currentColor"/>
</g>
<g transform="translate(0.0000, 38.6103)">
<rect x="41.3204" y="-0.1000" width="1.9563" height="0.2000" ry="0.1000" fill="currentColor"/>
</g>
<g transform="translate(0.0000, 38.6103)">
<rect x="18.9489" y="-0.1000" width="1.9563" height="0.2000" ry="0.1000" fill="currentColor"/>
</g>
<g transform="translate(0.0000, 38.6103)">
<rect x="16.1827" y="-0.1000" width="1.8141" height="0.2000" ry="0.1000" fill="currentColor"/>
</g>
<g transform="translate(0.0000, 39.6103)">
<rect x="16.1827" y="-0.1000" width="1.8141" height="0.2000" ry="0.1000" fill="currentColor"/>
</g>
<g transform="translate(0.0000, 38.6103)">
<rect x="13.1322" y="-0.1000" width="1.9563" height="0.2000" ry="0.1000" fill="currentColor"/>
</g>
<g transform="translate(0.0000, 38.6103)">
<rect x="10.2239" y="-0.1000" width="1.9563" height="0.2000" ry="0.1000" fill="currentColor"/>
</g>
<g transform="translate(0.0000, 37.6103)">
<line stroke-linejoin="round" stroke-linecap="round" stroke-width="0.1000" stroke="currentColor" x1="0.0500" y1="0" x2="102.3799" y2="0"/>
</g>
<g transform="translate(0.0000, 36.6103)">
<line stroke-linejoin="round" stroke-linecap="round" stroke-width="0.1000" stroke="currentColor" x1="0.0500" y1="0" x2="102.3799" y2="0"/>
</g>
<g transform="translate(0.0000, 35.6103)">
<line stroke-linejoin="round" stroke-linecap="round" stroke-width="0.1000" stroke="currentColor" x1="0.0500" y1="0" x2="102.3799" y2="0"/>
</g>
<g transform="translate(0.0000, 34.6103)">
<line stroke-linejoin="round" stroke-linecap="round" stroke-width="0.1000" stroke="currentColor" x1="0.0500" y1="0" x2="102.3799" y2="0"/>
</g>
<g transform="translate(0.0000, 33.6103)">
<line stroke-linejoin="round" stroke-linecap="round" stroke-width="0.1000" stroke="currentColor" x1="0.0500" y1="0" x2="102.3799" y2="0"/>
</g>
<g transform="translate(94.1775, 24.4987)">
<rect x="0.0000" y="-2.0000" width="0.1900" height="4.0000" ry="0.0000" fill="currentColor"/>
</g>
<g transform="translate(66.5361, 35.6103)">
<rect x="0.0000" y="-2.0000" width="0.1900" height="4.0000" ry="0.0000" fill="currentColor"/>
</g>
<g transform="translate(66.5361, 24.4987)">
<rect x="0.0000" y="-2.0000" width="0.1900" height="4.0000" ry="0.0000" fill="currentColor"/>
</g>
<g transform="translate(0.0000, 27.4987)">
<rect x="74.4804" y="-0.1000" width="1.9563" height="0.2000" ry="0.1000" fill="currentColor"/>
</g>
<g transform="translate(0.0000, 27.4987)">
<rect x="68.6637" y="-0.1000" width="1.9563" height="0.2000" ry="0.1000" fill="currentColor"/>
</g>
<g transform="translate(0.0000, 27.4987)">
<rect x="51.2745" y="-0.1000" width="1.9563" height="0.2000" ry="0.1000" fill="currentColor"/>
</g>
<g transform="translate(0.0000, 27.4987)">
<rect x="39.6711" y="-0.1000" width="2.0661" height="0.2000" ry="0.1000" fill="currentColor"/>
</g>
<g transform="translate(0.0000, 27.4987)">
<rect x="16.0405" y="-0.1000" width="1.9563" height="0.2000" ry="0.1000" fill="currentColor"/>
</g>
<g transform="translate(39.1927, 35.6103)">
<rect x="0.0000" y="-2.0000" width="0.1900" height="4.0000" ry="0.0000" fill="currentColor"/>
</g>
<g transform="translate(39.1927, 24.4987)">
<rect x="0.0000" y="-2.0000" width="0.1900" height="4.0000" ry="0.0000" fill="currentColor"/>
</g>
<g transform="translate(30.3673, 35.6103)">
<rect x="0.0000" y="-2.0000" width="0.1900" height="4.0000" ry="0.0000" fill="currentColor"/>
</g>
<g transform="translate(64.0130, 39.6103)">
<path transform="scale(0.0040, -0.0040)" d="M0 -46c0 91 116 182 217 182c63 0 109 -35 109 -90c0 -87 -110 -182 -220 -182c-67 0 -106 39 -106 90z" fill="currentColor"/>
</g>
<g transform="translate(97.5537, 34.6103)">
<path transform="scale(0.0040, -0.0040)" d="M365 -156h-355c-6 0 -10 4 -10 10v136c0 6 4 10 10 10h355c6 0 10 -4 10 -10v-136c0 -6 -4 -10 -10 -10z" fill="currentColor"/>
</g>
<g transform="translate(87.6139, 34.6103)">
<polygon stroke-linejoin="round" stroke-linecap="round" stroke-width="0.0800" fill="currentColor" stroke="currentColor" points="5.9066 -0.2000 5.9066 0.2000 0.0400 0.2000 0.0400 -0.2000"/>
</g>
<g transform="translate(0.8000, 25.4987)">
<path transform="scale(0.0040, -0.0040)" d="M266 -635h-6c-108 0 -195 88 -195 197c0 58 53 103 112 103c54 0 95 -47 95 -103c0 -52 -43 -95 -95 -95c-11 0 -21 2 -31 6c26 -39 68 -65 117 -65h4zM401 151c19 -89 48 -242 60 -354c76 27 112 94 112 163c0 89 -60 179 -172 191zM74 28c0 -112 98 -247 278 -247
c21 0 44 2 68 6c-7 64 -29 203 -63 364c-79 -8 -124 -61 -124 -119c0 -44 25 -91 81 -123c5 -5 7 -10 7 -15c0 -11 -10 -22 -22 -22c-15 0 -126 62 -126 187c0 88 58 174 160 197c-14 58 -29 117 -46 175c-107 -121 -213 -243 -213 -403zM357 1194c28 0 143 -206 143 -361
c0 -143 -86 -255 -180 -364c21 -68 39 -138 56 -207c5 0 10 1 14 1c155 0 255 -129 255 -262c0 -113 -74 -212 -180 -245c3 -35 5 -70 5 -105c0 -19 -1 -39 -2 -58c-7 -119 -88 -225 -202 -228l1 43c93 2 153 92 159 191c1 18 2 37 2 55c0 31 -1 61 -4 92
c-28 -5 -55 -8 -80 -8c-239 0 -342 217 -342 374c0 177 131 306 248 441c-29 96 -52 170 -52 346c0 189 144 295 159 295zM247 782c0 -55 12 -115 35 -190c82 100 147 202 147 326c0 40 -6 82 -21 127c-49 -24 -161 -97 -161 -263z" fill="currentColor"/>
</g>
<g transform="translate(4.3050, 24.4987)">
<path transform="scale(0.0040, -0.0040)" d="M27 41l-1 -66v-11c0 -22 1 -44 4 -66c45 38 93 80 93 139c0 33 -14 67 -43 67c-31 0 -52 -30 -53 -63zM-15 -138l-12 595c8 5 18 8 27 8s19 -3 27 -8l-7 -345c25 21 58 34 91 34c52 0 89 -48 89 -102c0 -80 -86 -117 -147 -169c-15 -13 -24 -38 -45 -38
c-13 0 -23 11 -23 25z" fill="currentColor"/>
</g>
<g transform="translate(5.2250, 22.9987)">
<path transform="scale(0.0040, -0.0040)" d="M27 41l-1 -66v-11c0 -22 1 -44 4 -66c45 38 93 80 93 139c0 33 -14 67 -43 67c-31 0 -52 -30 -53 -63zM-15 -138l-12 595c8 5 18 8 27 8s19 -3 27 -8l-7 -345c25 21 58 34 91 34c52 0 89 -48 89 -102c0 -80 -86 -117 -147 -169c-15 -13 -24 -38 -45 -38
c-13 0 -23 11 -23 25z" fill="currentColor"/>
</g>
<g transform="translate(6.1450, 24.9987)">
<path transform="scale(0.0040, -0.0040)" d="M27 41l-1 -66v-11c0 -22 1 -44 4 -66c45 38 93 80 93 139c0 33 -14 67 -43 67c-31 0 -52 -30 -53 -63zM-15 -138l-12 595c8 5 18 8 27 8s19 -3 27 -8l-7 -345c25 21 58 34 91 34c52 0 89 -48 89 -102c0 -80 -86 -117 -147 -169c-15 -13 -24 -38 -45 -38
c-13 0 -23 11 -23 25z" fill="currentColor"/>
</g>
<g transform="translate(7.0650, 23.4987)">
<path transform="scale(0.0040, -0.0040)" d="M27 41l-1 -66v-11c0 -22 1 -44 4 -66c45 38 93 80 93 139c0 33 -14 67 -43 67c-31 0 -52 -30 -53 -63zM-15 -138l-12 595c8 5 18 8 27 8s19 -3 27 -8l-7 -345c25 21 58 34 91 34c52 0 89 -48 89 -102c0 -80 -86 -117 -147 -169c-15 -13 -24 -38 -45 -38
c-13 0 -23 11 -23 25z" fill="currentColor"/>
</g>
<g transform="translate(7.9850, 25.4987)">
<path transform="scale(0.0040, -0.0040)" d="M27 41l-1 -66v-11c0 -22 1 -44 4 -66c45 38 93 80 93 139c0 33 -14 67 -43 67c-31 0 -52 -30 -53 -63zM-15 -138l-12 595c8 5 18 8 27 8s19 -3 27 -8l-7 -345c25 21 58 34 91 34c52 0 89 -48 89 -102c0 -80 -86 -117 -147 -169c-15 -13 -24 -38 -45 -38
c-13 0 -23 11 -23 25z" fill="currentColor"/>
</g>
<g transform="translate(0.8000, 36.6103)">
<path transform="scale(0.0040, -0.0040)" d="M266 -635h-6c-108 0 -195 88 -195 197c0 58 53 103 112 103c54 0 95 -47 95 -103c0 -52 -43 -95 -95 -95c-11 0 -21 2 -31 6c26 -39 68 -65 117 -65h4zM401 151c19 -89 48 -242 60 -354c76 27 112 94 112 163c0 89 -60 179 -172 191zM74 28c0 -112 98 -247 278 -247
c21 0 44 2 68 6c-7 64 -29 203 -63 364c-79 -8 -124 -61 -124 -119c0 -44 25 -91 81 -123c5 -5 7 -10 7 -15c0 -11 -10 -22 -22 -22c-15 0 -126 62 -126 187c0 88 58 174 160 197c-14 58 -29 117 -46 175c-107 -121 -213 -243 -213 -403zM357 1194c28 0 143 -206 143 -361
c0 -143 -86 -255 -180 -364c21 -68 39 -138 56 -207c5 0 10 1 14 1c155 0 255 -129 255 -262c0 -113 -74 -212 -180 -245c3 -35 5 -70 5 -105c0 -19 -1 -39 -2 -58c-7 -119 -88 -225 -202 -228l1 43c93 2 153 92 159 191c1 18 2 37 2 55c0 31 -1 61 -4 92
c-28 -5 -55 -8 -80 -8c-239 0 -342 217 -342 374c0 177 131 306 248 441c-29 96 -52 170 -52 346c0 189 144 295 159 295zM247 782c0 -55 12 -115 35 -190c82 100 147 202 147 326c0 40 -6 82 -21 127c-49 -24 -161 -97 -161 -263z" fill="currentColor"/>
</g>
<g transform="translate(4.3050, 35.6103)">
<path transform="scale(0.0040, -0.0040)" d="M27 41l-1 -66v-11c0 -22 1 -44 4 -66c45 38 93 80 93 139c0 33 -14 67 -43 67c-31 0 -52 -30 -53 -63zM-15 -138l-12 595c8 5 18 8 27 8s19 -3 27 -8l-7 -345c25 21 58 34 91 34c52 0 89 -48 89 -102c0 -80 -86 -117 -147 -169c-15 -13 -24 -38 -45 -38
c-13 0 -23 11 -23 25z" fill="currentColor"/>
</g>
<g transform="translate(5.2250, 34.1103)">
<path transform="scale(0.0040, -0.0040)" d="M27 41l-1 -66v-11c0 -22 1 -44 4 -66c45 38 93 80 93 139c0 33 -14 67 -43 67c-31 0 -52 -30 -53 -63zM-15 -138l-12 595c8 5 18 8 27 8s19 -3 27 -8l-7 -345c25 21 58 34 91 34c52 0 89 -48 89 -102c0 -80 -86 -117 -147 -169c-15 -13 -24 -38 -45 -38
c-13 0 -23 11 -23 25z" fill="currentColor"/>
</g>
<g transform="translate(6.1450, 36.1103)">
<path transform="scale(0.0040, -0.0040)" d="M27 41l-1 -66v-11c0 -22 1 -44 4 -66c45 38 93 80 93 139c0 33 -14 67 -43 67c-31 0 -52 -30 -53 -63zM-15 -138l-12 595c8 5 18 8 27 8s19 -3 27 -8l-7 -345c25 21 58 34 91 34c52 0 89 -48 89 -102c0 -80 -86 -117 -147 -169c-15 -13 -24 -38 -45 -38
c-13 0 -23 11 -23 25z" fill="currentColor"/>
</g>
<g transform="translate(7.0650, 34.6103)">
<path transform="scale(0.0040, -0.0040)" d="M27 41l-1 -66v-11c0 -22 1 -44 4 -66c45 38 93 80 93 139c0 33 -14 67 -43 67c-31 0 -52 -30 -53 -63zM-15 -138l-12 595c8 5 18 8 27 8s19 -3 27 -8l-7 -345c25 21 58 34 91 34c52 0 89 -48 89 -102c0 -80 -86 -117 -147 -169c-15 -13 -24 -38 -45 -38
c-13 0 -23 11 -23 25z" fill="currentColor"/>
</g>
<g transform="translate(7.9850, 36.6103)">
<path transform="scale(0.0040, -0.0040)" d="M27 41l-1 -66v-11c0 -22 1 -44 4 -66c45 38 93 80 93 139c0 33 -14 67 -43 67c-31 0 -52 -30 -53 -63zM-15 -138l-12 595c8 5 18 8 27 8s19 -3 27 -8l-7 -345c25 21 58 34 91 34c52 0 89 -48 89 -102c0 -80 -86 -117 -147 -169c-15 -13 -24 -38 -45 -38
c-13 0 -23 11 -23 25z" fill="currentColor"/>
</g>
<g transform="translate(-2.4583, 21.5256)">
<text font-family="serif" font-size="1.7459" text-anchor="start" fill="currentColor">
<tspan>105</tspan>
</text>
</g>
<g transform="translate(87.6139, 22.4987)">
<polygon stroke-linejoin="round" stroke-linecap="round" stroke-width="0.0800" fill="currentColor" stroke="currentColor" points="5.9066 -0.2000 5.9066 0.2000 0.0400 0.2000 0.0400 -0.2000"/>
</g>
<g transform="translate(10.5499, 26.4987)">
<path transform="scale(0.0040, -0.0040)" d="M0 -46c0 91 116 182 217 182c63 0 109 -35 109 -90c0 -87 -110 -182 -220 -182c-67 0 -106 39 -106 90z" fill="currentColor"/>
</g>
<g transform="translate(9.9729, 31.0247)">
<text font-family="serif" font-size="2.4697" text-anchor="start" fill="currentColor">
<tspan>あ</tspan>
</text>
</g>
<g transform="translate(10.5499, 38.6103)">
<path transform="scale(0.0040, -0.0040)" d="M0 -46c0 91 116 182 217 182c63 0 109 -35 109 -90c0 -87 -110 -182 -220 -182c-67 0 -106 39 -106 90z" fill="currentColor"/>
</g>
<g transform="translate(9.9729, 43.5918)">
<text font-family="serif" font-size="2.4697" text-anchor="start" fill="currentColor">
<tspan>あ</tspan>
</text>
</g>
<g transform="translate(11.7891, 24.4987)">
<rect x="-0.0650" y="-1.1872" width="0.1300" height="3.0010" ry="0.0400" fill="currentColor"/>
</g>
<g transform="translate(11.7891, 35.6103)">
<rect x="-0.0650" y="-0.1886" width="0.1300" height="3.0024" ry="0.0400" fill="currentColor"/>
</g>
<g transform="translate(13.4583, 26.9987)">
<path transform="scale(0.0040, -0.0040)" d="M0 -46c0 91 116 182 217 182c63 0 109 -35 109 -90c0 -87 -110 -182 -220 -182c-67 0 -106 39 -106 90z" fill="currentColor"/>
</g>
<g transform="translate(12.8812, 31.0247)">
<text font-family="serif" font-size="2.4697" text-anchor="start" fill="currentColor">
<tspan>な</tspan>
</text>
</g>
<g transform="translate(13.4583, 39.1103)">
<path transform="scale(0.0040, -0.0040)" d="M0 -46c0 91 116 182 217 182c63 0 109 -35 109 -90c0 -87 -110 -182 -220 -182c-67 0 -106 39 -106 90z" fill="currentColor"/>
</g>
<g transform="translate(12.8812, 43.5918)">
<text font-family="serif" font-size="2.4697" text-anchor="start" fill="currentColor">
<tspan>な</tspan>
</text>
</g>
<g transform="translate(14.6975, 24.4987)">
<rect x="-0.0650" y="-1.0624" width="0.1300" height="3.3762" ry="0.0400" fill="currentColor"/>
</g>
<g transform="translate(12.4240, 26.9987)">
<path transform="scale(0.0040, -0.0040)" d="M-7 375c8 4 17 7 25 7s16 -3 24 -7l-2 -183l106 20h3c10 0 18 -7 18 -17l7 -570c-8 -4 -17 -7 -25 -7s-16 3 -24 7l2 183l-106 -20h-3c-10 0 -18 7 -18 17zM131 112l-92 -17l-3 -207l92 17z" fill="currentColor"/>
</g>
<g transform="translate(14.6975, 35.6103)">
<rect x="-0.0650" y="-0.1262" width="0.1300" height="3.4400" ry="0.0400" fill="currentColor"/>
</g>
<g transform="translate(16.3666, 27.4987)">
<path transform="scale(0.0040, -0.0040)" d="M0 -46c0 91 116 182 217 182c63 0 109 -35 109 -90c0 -87 -110 -182 -220 -182c-67 0 -106 39 -106 90z" fill="currentColor"/>
</g>
<g transform="translate(15.7895, 31.0247)">
<text font-family="serif" font-size="2.4697" text-anchor="start" fill="currentColor">
<tspan>た</tspan>
</text>
</g>
<g transform="translate(16.3666, 39.6103)">
<path transform="scale(0.0040, -0.0040)" d="M0 -46c0 91 116 182 217 182c63 0 109 -35 109 -90c0 -87 -110 -182 -220 -182c-67 0 -106 39 -106 90z" fill="currentColor"/>
</g>
<g transform="translate(15.7895, 43.5918)">
<text font-family="serif" font-size="2.4697" text-anchor="start" fill="currentColor">
<tspan>た</tspan>
</text>
</g>
<g transform="translate(17.6058, 24.4987)">
<rect x="-0.0650" y="-0.9376" width="0.1300" height="3.7514" ry="0.0400" fill="currentColor"/>
</g>
<g transform="translate(17.6058, 35.6103)">
<rect x="-0.0650" y="-0.0638" width="0.1300" height="3.8776" ry="0.0400" fill="currentColor"/>
</g>
<g transform="translate(15.3323, 39.6103)">
<path transform="scale(0.0040, -0.0040)" d="M-7 375c8 4 17 7 25 7s16 -3 24 -7l-2 -183l106 20h3c10 0 18 -7 18 -17l7 -570c-8 -4 -17 -7 -25 -7s-16 3 -24 7l2 183l-106 -20h-3c-10 0 -18 7 -18 17zM131 112l-92 -17l-3 -207l92 17z" fill="currentColor"/>
</g>
<g transform="translate(19.2749, 26.9987)">
<path transform="scale(0.0040, -0.0040)" d="M0 -46c0 91 116 182 217 182c63 0 109 -35 109 -90c0 -87 -110 -182 -220 -182c-67 0 -106 39 -106 90z" fill="currentColor"/>
</g>
<g transform="translate(18.6978, 31.0247)">
<text font-family="serif" font-size="2.4697" text-anchor="start" fill="currentColor">
<tspan>の</tspan>
</text>
</g>
<g transform="translate(19.2749, 39.1103)">
<path transform="scale(0.0040, -0.0040)" d="M0 -46c0 91 116 182 217 182c63 0 109 -35 109 -90c0 -87 -110 -182 -220 -182c-67 0 -106 39 -106 90z" fill="currentColor"/>
</g>
<g transform="translate(18.6978, 43.5918)">
<text font-family="serif" font-size="2.4697" text-anchor="start" fill="currentColor">
<tspan>の</tspan>
</text>
</g>
<g transform="translate(20.5141, 24.4987)">
<rect x="-0.0650" y="-0.8128" width="0.1300" height="3.1266" ry="0.0400" fill="currentColor"/>
</g>
<g transform="translate(20.5141, 35.6103)">
<rect x="-0.0650" y="-0.0014" width="0.1300" height="3.3152" ry="0.0400" fill="currentColor"/>
</g>
<g transform="translate(78.8889, 34.6103)">
<polygon stroke-linejoin="round" stroke-linecap="round" stroke-width="0.0800" fill="currentColor" stroke="currentColor" points="5.9066 -0.2000 5.9066 0.2000 0.0400 0.2000 0.0400 -0.2000"/>
</g>
<g transform="translate(22.1832, 24.4987)">
<path transform="scale(0.0040, -0.0040)" d="M0 -46c0 91 116 182 217 182c63 0 109 -35 109 -90c0 -87 -110 -182 -220 -182c-67 0 -106 39 -106 90z" fill="currentColor"/>
</g>
<g transform="translate(21.6062, 31.0247)">
<text font-family="serif" font-size="2.4697" text-anchor="start" fill="currentColor">
<tspan>と</tspan>
</text>
</g>
<g transform="translate(22.1832, 36.6103)">
<path transform="scale(0.0040, -0.0040)" d="M0 -46c0 91 116 182 217 182c63 0 109 -35 109 -90c0 -87 -110 -182 -220 -182c-67 0 -106 39 -106 90z" fill="currentColor"/>
</g>
<g transform="translate(21.6062, 43.5918)">
<text font-family="serif" font-size="2.4697" text-anchor="start" fill="currentColor">
<tspan>と</tspan>
</text>
</g>
<g transform="translate(22.2482, 24.4987)">
<rect x="-0.0650" y="0.1862" width="0.1300" height="3.1888" ry="0.0400" fill="currentColor"/>
</g>
<g transform="translate(22.3132, 27.8337)">
<path transform="scale(0.0040, -0.0040)" d="M0 0h-16v375h16v-375zM224 509c0 94 -40 158 -40 168c0 14 11 22 23 22c7 0 15 -3 20 -11c25 -56 40 -117 40 -179c0 -203 -267 -306 -267 -509v250c97 59 224 148 224 259z" fill="currentColor"/>
</g>
<g transform="translate(23.4224, 35.6103)">
<rect x="-0.0650" y="-2.5000" width="0.1300" height="3.3138" ry="0.0400" fill="currentColor"/>
</g>
<g transform="translate(23.4874, 33.1503)">
<path transform="scale(0.0040, -0.0040)" d="M0 0v-375h-16v375h16zM123 -729c0 10 42 87 42 196c0 103 -94 208 -165 283v250c0 -197 207 -336 207 -533c0 -71 -15 -141 -41 -207c-5 -8 -13 -12 -20 -12c-12 0 -23 9 -23 23z" fill="currentColor"/>
</g>
<g transform="translate(25.0915, 24.4987)">
<path transform="scale(0.0040, -0.0040)" d="M0 -46c0 91 116 182 217 182c63 0 109 -35 109 -90c0 -87 -110 -182 -220 -182c-67 0 -106 39 -106 90z" fill="currentColor"/>
</g>
<g transform="translate(24.5145, 31.0247)">
<text font-family="serif" font-size="2.4697" text-anchor="start" fill="currentColor">
<tspan>い</tspan>
</text>
</g>
<g transform="translate(25.0915, 36.6103)">
<path transform="scale(0.0040, -0.0040)" d="M0 -46c0 91 116 182 217 182c63 0 109 -35 109 -90c0 -87 -110 -182 -220 -182c-67 0 -106 39 -106 90z" fill="currentColor"/>
</g>
<g transform="translate(24.5145, 43.5918)">
<text font-family="serif" font-size="2.4697" text-anchor="start" fill="currentColor">
<tspan>い</tspan>
</text>
</g>
<g transform="translate(25.1565, 24.4987)">
<rect x="-0.0650" y="0.1862" width="0.1300" height="3.1471" ry="0.0400" fill="currentColor"/>
</g>
<g transform="translate(26.3307, 35.6103)">
<rect x="-0.0650" y="-2.5000" width="0.1300" height="3.3138" ry="0.0400" fill="currentColor"/>
</g>
<g transform="translate(78.8889, 22.4987)">
<polygon stroke-linejoin="round" stroke-linecap="round" stroke-width="0.0800" fill="currentColor" stroke="currentColor" points="5.9066 -0.2000 5.9066 0.2000 0.0400 0.2000 0.0400 -0.2000"/>
</g>
<g transform="translate(27.9999, 25.4987)">
<path transform="scale(0.0040, -0.0040)" d="M0 -46c0 91 116 182 217 182c63 0 109 -35 109 -90c0 -87 -110 -182 -220 -182c-67 0 -106 39 -106 90z" fill="currentColor"/>
</g>
<g transform="translate(27.4228, 31.0247)">
<text font-family="serif" font-size="2.4697" text-anchor="start" fill="currentColor">
<tspan>き</tspan>
</text>
</g>
<g transform="translate(27.9999, 37.6103)">
<path transform="scale(0.0040, -0.0040)" d="M0 -46c0 91 116 182 217 182c63 0 109 -35 109 -90c0 -87 -110 -182 -220 -182c-67 0 -106 39 -106 90z" fill="currentColor"/>
</g>
<g transform="translate(27.4228, 43.5918)">
<text font-family="serif" font-size="2.4697" text-anchor="start" fill="currentColor">
<tspan>き</tspan>
</text>
</g>
<g transform="translate(29.2391, 24.4987)">
<rect x="-0.0650" y="-2.5000" width="0.1300" height="3.3138" ry="0.0400" fill="currentColor"/>
</g>
<g transform="translate(29.3041, 22.0387)">
<path transform="scale(0.0040, -0.0040)" d="M0 0v-375h-16v375h16zM123 -729c0 10 42 87 42 196c0 103 -94 208 -165 283v250c0 -197 207 -336 207 -533c0 -71 -15 -141 -41 -207c-5 -8 -13 -12 -20 -12c-12 0 -23 9 -23 23z" fill="currentColor"/>
</g>
<g transform="translate(29.2391, 35.6103)">
<rect x="-0.0650" y="-1.5000" width="0.1300" height="3.3138" ry="0.0400" fill="currentColor"/>
</g>
<g transform="translate(29.3041, 34.1503)">
<path transform="scale(0.0040, -0.0040)" d="M0 0v-375h-16v375h16zM123 -729c0 10 42 87 42 196c0 103 -94 208 -165 283v250c0 -197 207 -336 207 -533c0 -71 -15 -141 -41 -207c-5 -8 -13 -12 -20 -12c-12 0 -23 9 -23 23z" fill="currentColor"/>
</g>
<g transform="translate(90.1775, 33.7555)">
<text font-family="serif" font-style="italic" font-size="1.7459" text-anchor="start" fill="currentColor">
<tspan>3</tspan>
</text>
</g>
<g transform="translate(31.1900, 24.9987)">
<path transform="scale(0.0040, -0.0040)" d="M72 -106c40 0 204 110 231 143c7 9 11 19 11 28c0 22 -18 41 -42 41c-40 0 -204 -110 -231 -143c-7 -9 -10 -19 -10 -28c0 -22 17 -41 41 -41zM0 -67c0 71 46 203 258 203c41 0 86 -10 86 -69c0 -71 -46 -203 -258 -203c-41 0 -86 10 -86 69z" fill="currentColor"/>
</g>
<g transform="translate(30.6495, 31.0247)">
<text font-family="serif" font-size="2.4697" text-anchor="start" fill="currentColor">
<tspan>が</tspan>
</text>
</g>
<g transform="translate(31.1900, 37.1103)">
<path transform="scale(0.0040, -0.0040)" d="M72 -106c40 0 204 110 231 143c7 9 11 19 11 28c0 22 -18 41 -42 41c-40 0 -204 -110 -231 -143c-7 -9 -10 -19 -10 -28c0 -22 17 -41 41 -41zM0 -67c0 71 46 203 258 203c41 0 86 -10 86 -69c0 -71 -46 -203 -258 -203c-41 0 -86 10 -86 69z" fill="currentColor"/>
</g>
<g transform="translate(30.6495, 43.5918)">
<text font-family="serif" font-size="2.4697" text-anchor="start" fill="currentColor">
<tspan>が</tspan>
</text>
</g>
<g transform="translate(33.0174, 24.9987)">
<path transform="scale(0.0040, -0.0040)" d="M0 0c0 31 25 56 56 56s56 -25 56 -56s-25 -56 -56 -56s-56 25 -56 56z" fill="currentColor"/>
</g>
<g transform="translate(32.5024, 24.4987)">
<rect x="-0.0650" y="-3.0000" width="0.1300" height="3.2410" ry="0.0400" fill="currentColor"/>
</g>
<g transform="translate(33.0174, 37.1103)">
<path transform="scale(0.0040, -0.0040)" d="M0 0c0 31 25 56 56 56s56 -25 56 -56s-25 -56 -56 -56s-56 25 -56 56z" fill="currentColor"/>
</g>
<g transform="translate(32.5024, 35.6103)">
<rect x="-0.0650" y="-2.0000" width="0.1300" height="3.2410" ry="0.0400" fill="currentColor"/>
</g>
<g transform="translate(90.1775, 21.8039)">
<text font-family="serif" font-style="italic" font-size="1.7459" text-anchor="start" fill="currentColor">
<tspan>3</tspan>
</text>
</g>
<g transform="translate(34.1349, 26.9987)">
<path transform="scale(0.0040, -0.0040)" d="M0 -46c0 91 116 182 217 182c63 0 109 -35 109 -90c0 -87 -110 -182 -220 -182c-67 0 -106 39 -106 90z" fill="currentColor"/>
</g>
<g transform="translate(33.5578, 31.0247)">
<text font-family="serif" font-size="2.4697" text-anchor="start" fill="currentColor">
<tspan>ほ</tspan>
</text>
</g>
<g transform="translate(34.1349, 35.6103)">
<path transform="scale(0.0040, -0.0040)" d="M-6 78c0 59 124 83 124 182c0 24 -8 49 -25 69l-35 42c-3 3 -4 7 -4 10c0 9 9 15 17 15c4 0 8 -1 11 -5l151 -180c7 -9 10 -17 10 -25c0 -59 -124 -83 -124 -182c0 -24 7 -49 24 -69l84 -99c3 -3 4 -7 4 -10c0 -9 -8 -16 -16 -16s-45 44 -109 44c-16 0 -53 0 -53 -67
c0 -62 30 -97 30 -100c0 -4 -4 -7 -8 -7c-13 0 -98 130 -98 204c0 41 27 42 40 42c33 0 78 -13 119 -31l-132 158c-7 9 -10 17 -10 25z" fill="currentColor"/>
</g>
<g transform="translate(35.3741, 24.4987)">
<rect x="-0.0650" y="-0.8100" width="0.1300" height="3.1238" ry="0.0400" fill="currentColor"/>
</g>
<g transform="translate(37.0432, 26.9987)">
<path transform="scale(0.0040, -0.0040)" d="M0 -46c0 91 116 182 217 182c63 0 109 -35 109 -90c0 -87 -110 -182 -220 -182c-67 0 -106 39 -106 90z" fill="currentColor"/>
</g>
<g transform="translate(36.4661, 31.0247)">
<text font-family="serif" font-size="2.4697" text-anchor="start" fill="currentColor">
<tspan>ほ</tspan>
</text>
</g>
<g transform="translate(38.2824, 24.4987)">
<rect x="-0.0650" y="-0.8100" width="0.1300" height="3.1238" ry="0.0400" fill="currentColor"/>
</g>
<g transform="translate(40.0154, 27.4987)">
<path transform="scale(0.0040, -0.0040)" d="M72 -106c40 0 204 110 231 143c7 9 11 19 11 28c0 22 -18 41 -42 41c-40 0 -204 -110 -231 -143c-7 -9 -10 -19 -10 -28c0 -22 17 -41 41 -41zM0 -67c0 71 46 203 258 203c41 0 86 -10 86 -69c0 -71 -46 -203 -258 -203c-41 0 -86 10 -86 69z" fill="currentColor"/>
</g>
<g transform="translate(-0.0600, 30.0545)">
<rect x="0.0000" y="-7.6058" width="0.1600" height="15.2115" ry="0.0500" fill="currentColor"/>
</g>
<g transform="translate(39.4749, 31.0247)">
<text font-family="serif" font-size="2.4697" text-anchor="start" fill="currentColor">
<tspan>に</tspan>
</text>
</g>
<g transform="translate(40.0154, 35.6103)">
<path transform="scale(0.0040, -0.0040)" d="M70 205c79 0 46 -98 91 -98c16 0 54 48 61 63c3 6 8 9 14 9s12 -3 14 -9l-123 -420c-8 -7 -17 -10 -27 -10s-20 3 -28 10l117 326c-34 -12 -69 -22 -105 -22c-58 0 -85 41 -85 80c0 36 24 71 71 71z" fill="currentColor"/>
</g>
<g transform="translate(-1.3100, 22.2237)">
<path transform="scale(0.0040, -0.0040)" d="M0 -56v87c0 14 11 25 25 25h50c159 0 271 136 362 270c3 5 8 7 12 7c8 0 17 -7 17 -16c0 -3 -1 -6 -3 -9c-99 -144 -215 -364 -388 -364h-75z" fill="currentColor"/>
</g>
<g transform="translate(-1.3100, 37.8853)">
<path transform="scale(0.0040, -0.0040)" d="M0 56h75c173 0 289 -220 388 -364c2 -3 3 -6 3 -9c0 -9 -9 -16 -17 -16c-4 0 -9 2 -12 7c-91 134 -203 270 -362 270h-50c-14 0 -25 11 -25 25v87z" fill="currentColor"/>
</g>
<g transform="translate(-1.3100, 30.0545)">
<rect x="0.0000" y="-7.6508" width="0.4500" height="15.3015" ry="0.0000" fill="currentColor"/>
</g>
<g transform="translate(41.3278, 24.4987)">
<rect x="-0.0650" y="-0.5000" width="0.1300" height="3.2410" ry="0.0400" fill="currentColor"/>
</g>
<g transform="translate(41.6464, 39.1103)">
<path transform="scale(0.0040, -0.0040)" d="M0 -46c0 91 116 182 217 182c63 0 109 -35 109 -90c0 -87 -110 -182 -220 -182c-67 0 -106 39 -106 90z" fill="currentColor"/>
</g>
<g transform="translate(41.0694, 43.5918)">
<text font-family="serif" font-size="2.4697" text-anchor="start" fill="currentColor">
<tspan>ふ</tspan>
</text>
</g>
<g transform="translate(42.8856, 35.6103)">
<rect x="-0.0650" y="0.0000" width="0.1300" height="3.3138" ry="0.0400" fill="currentColor"/>
</g>
<g transform="translate(44.5547, 39.1103)">
<path transform="scale(0.0040, -0.0040)" d="M0 -46c0 91 116 182 217 182c63 0 109 -35 109 -90c0 -87 -110 -182 -220 -182c-67 0 -106 39 -106 90z" fill="currentColor"/>
</g>
<g transform="translate(43.9777, 43.5918)">
<text font-family="serif" font-size="2.4697" text-anchor="start" fill="currentColor">
<tspan>れ</tspan>
</text>
</g>
<g transform="translate(45.7939, 35.6103)">
<rect x="-0.0650" y="0.0000" width="0.1300" height="3.3138" ry="0.0400" fill="currentColor"/>
</g>
<g transform="translate(47.4630, 39.1103)">
<path transform="scale(0.0040, -0.0040)" d="M0 -46c0 91 116 182 217 182c63 0 109 -35 109 -90c0 -87 -110 -182 -220 -182c-67 0 -106 39 -106 90z" fill="currentColor"/>
</g>
<g transform="translate(46.8860, 43.5918)">
<text font-family="serif" font-size="2.4697" text-anchor="start" fill="currentColor">
<tspan>る</tspan>
</text>
</g>
<g transform="translate(48.7022, 35.6103)">
<rect x="-0.0650" y="0.0000" width="0.1300" height="3.3138" ry="0.0400" fill="currentColor"/>
</g>
<g transform="translate(70.1640, 35.6103)">
<polygon stroke-linejoin="round" stroke-linecap="round" stroke-width="0.0800" fill="currentColor" stroke="currentColor" points="5.9066 -0.2000 5.9066 0.2000 0.0400 0.2000 0.0400 -0.2000"/>
</g>
<g transform="translate(51.6005, 27.4987)">
<path transform="scale(0.0040, -0.0040)" d="M0 -46c0 91 116 182 217 182c63 0 109 -35 109 -90c0 -87 -110 -182 -220 -182c-67 0 -106 39 -106 90z" fill="currentColor"/>
</g>
<g transform="translate(49.7943, 31.0247)">
<text font-family="serif" font-size="2.4697" text-anchor="start" fill="currentColor">
<tspan>きょ</tspan>
</text>
</g>
<g transform="translate(51.6005, 39.1103)">
<path transform="scale(0.0040, -0.0040)" d="M0 -46c0 91 116 182 217 182c63 0 109 -35 109 -90c0 -87 -110 -182 -220 -182c-67 0 -106 39 -106 90z" fill="currentColor"/>
</g>
<g transform="translate(49.7943, 43.5918)">
<text font-family="serif" font-size="2.4697" text-anchor="start" fill="currentColor">
<tspan>きょ</tspan>
</text>
</g>
<g transform="translate(52.8397, 24.4987)">
<rect x="-0.0650" y="-0.1948" width="0.1300" height="3.0086" ry="0.0400" fill="currentColor"/>
</g>
<g transform="translate(52.8397, 35.6103)">
<rect x="-0.0650" y="0.0000" width="0.1300" height="3.3138" ry="0.0400" fill="currentColor"/>
</g>
<g transform="translate(55.7380, 26.9987)">
<path transform="scale(0.0040, -0.0040)" d="M0 -46c0 91 116 182 217 182c63 0 109 -35 109 -90c0 -87 -110 -182 -220 -182c-67 0 -106 39 -106 90z" fill="currentColor"/>
</g>
<g transform="translate(55.1609, 31.0247)">
<text font-family="serif" font-size="2.4697" text-anchor="start" fill="currentColor">
<tspan>り</tspan>
</text>
</g>
<g transform="translate(55.7380, 39.1103)">
<path transform="scale(0.0040, -0.0040)" d="M0 -46c0 91 116 182 217 182c63 0 109 -35 109 -90c0 -87 -110 -182 -220 -182c-67 0 -106 39 -106 90z" fill="currentColor"/>
</g>
<g transform="translate(55.1609, 43.5918)">
<text font-family="serif" font-size="2.4697" text-anchor="start" fill="currentColor">
<tspan>り</tspan>
</text>
</g>
<g transform="translate(56.9772, 24.4987)">
<rect x="-0.0650" y="-0.5000" width="0.1300" height="2.8138" ry="0.0400" fill="currentColor"/>
</g>
<g transform="translate(56.9772, 35.6103)">
<rect x="-0.0650" y="0.0000" width="0.1300" height="3.3138" ry="0.0400" fill="currentColor"/>
</g>
<g transform="translate(70.1640, 24.3087)">
<polygon stroke-linejoin="round" stroke-linecap="round" stroke-width="0.0800" fill="currentColor" stroke="currentColor" points="5.9066 -0.2000 5.9066 0.2000 0.0400 0.2000 0.0400 -0.2000"/>
</g>
<g transform="translate(59.8755, 26.4987)">
<path transform="scale(0.0040, -0.0040)" d="M0 -46c0 91 116 182 217 182c63 0 109 -35 109 -90c0 -87 -110 -182 -220 -182c-67 0 -106 39 -106 90z" fill="currentColor"/>
</g>
<g transform="translate(59.8755, 31.0247)">
<text font-family="serif" font-size="2.4697" text-anchor="start" fill="currentColor">
<tspan>のー</tspan>
</text>
</g>
<g transform="translate(59.8755, 39.6103)">
<path transform="scale(0.0040, -0.0040)" d="M0 -46c0 91 116 182 217 182c63 0 109 -35 109 -90c0 -87 -110 -182 -220 -182c-67 0 -106 39 -106 90z" fill="currentColor"/>
</g>
<g transform="translate(58.0693, 43.5918)">
<text font-family="serif" font-size="2.4697" text-anchor="start" fill="currentColor">
<tspan>のー</tspan>
</text>
</g>
<g transform="translate(61.1147, 24.4987)">
<rect x="-0.0650" y="-0.8052" width="0.1300" height="2.6190" ry="0.0400" fill="currentColor"/>
</g>
<g transform="translate(61.1147, 35.6103)">
<rect x="-0.0650" y="0.0000" width="0.1300" height="3.8138" ry="0.0400" fill="currentColor"/>
</g>
<g transform="translate(81.4525, 33.7555)">
<text font-family="serif" font-style="italic" font-size="1.7459" text-anchor="start" fill="currentColor">
<tspan>3</tspan>
</text>
</g>
<g transform="translate(64.0130, 26.4987)">
<path transform="scale(0.0040, -0.0040)" d="M0 -46c0 91 116 182 217 182c63 0 109 -35 109 -90c0 -87 -110 -182 -220 -182c-67 0 -106 39 -106 90z" fill="currentColor"/>
</g>
<g transform="translate(63.4359, 43.5918)">
<text font-family="serif" font-size="2.4697" text-anchor="start" fill="currentColor">
<tspan>い</tspan>
</text>
</g>
<g transform="translate(65.2522, 24.4987)">
<rect x="-0.0650" y="-1.5000" width="0.1300" height="3.3138" ry="0.0400" fill="currentColor"/>
</g>
<g transform="translate(65.2522, 35.6103)">
<rect x="-0.0650" y="-0.0000" width="0.1300" height="3.8138" ry="0.0400" fill="currentColor"/>
</g>
<g transform="translate(81.4525, 21.8039)">
<text font-family="serif" font-style="italic" font-size="1.7459" text-anchor="start" fill="currentColor">
<tspan>3</tspan>
</text>
</g>
<g transform="translate(67.3588, 24.4987)">
<path transform="scale(0.0040, -0.0040)" d="M70 205c79 0 46 -98 91 -98c16 0 54 48 61 63c3 6 8 9 14 9s12 -3 14 -9l-123 -420c-8 -7 -17 -10 -27 -10s-20 3 -28 10l117 326c-34 -12 -69 -22 -105 -22c-58 0 -85 41 -85 80c0 36 24 71 71 71z" fill="currentColor"/>
</g>
<g transform="translate(67.3588, 35.6103)">
<path transform="scale(0.0040, -0.0040)" d="M70 205c79 0 46 -98 91 -98c16 0 54 48 61 63c3 6 8 9 14 9s12 -3 14 -9l-123 -420c-8 -7 -17 -10 -27 -10s-20 3 -28 10l117 326c-34 -12 -69 -22 -105 -22c-58 0 -85 41 -85 80c0 36 24 71 71 71z" fill="currentColor"/>
</g>
<g transform="translate(68.9898, 27.4987)">
<path transform="scale(0.0040, -0.0040)" d="M0 -46c0 91 116 182 217 182c63 0 109 -35 109 -90c0 -87 -110 -182 -220 -182c-67 0 -106 39 -106 90z" fill="currentColor"/>
</g>
<g transform="translate(68.4127, 31.0247)">
<text font-family="serif" font-size="2.4697" text-anchor="start" fill="currentColor">
<tspan>い</tspan>
</text>
</g>
<g transform="translate(68.9898, 39.6103)">
<path transform="scale(0.0040, -0.0040)" d="M0 -46c0 91 116 182 217 182c63 0 109 -35 109 -90c0 -87 -110 -182 -220 -182c-67 0 -106 39 -106 90z" fill="currentColor"/>
</g>
<g transform="translate(68.4127, 43.5918)">
<text font-family="serif" font-size="2.4697" text-anchor="start" fill="currentColor">
<tspan>い</tspan>
</text>
</g>
<g transform="translate(70.2290, 24.4987)">
<rect x="-0.0650" y="-0.1900" width="0.1300" height="3.0038" ry="0.0400" fill="currentColor"/>
</g>
<g transform="translate(70.2290, 35.6103)">
<rect x="-0.0650" y="0.0000" width="0.1300" height="3.8138" ry="0.0400" fill="currentColor"/>
</g>
<g transform="translate(71.8981, 26.9987)">
<path transform="scale(0.0040, -0.0040)" d="M0 -46c0 91 116 182 217 182c63 0 109 -35 109 -90c0 -87 -110 -182 -220 -182c-67 0 -106 39 -106 90z" fill="currentColor"/>
</g>
<g transform="translate(71.3210, 31.0247)">
<text font-family="serif" font-size="2.4697" text-anchor="start" fill="currentColor">
<tspan>い</tspan>
</text>
</g>
<g transform="translate(71.8981, 39.1103)">
<path transform="scale(0.0040, -0.0040)" d="M0 -46c0 91 116 182 217 182c63 0 109 -35 109 -90c0 -87 -110 -182 -220 -182c-67 0 -106 39 -106 90z" fill="currentColor"/>
</g>
<g transform="translate(71.3210, 43.5918)">
<text font-family="serif" font-size="2.4697" text-anchor="start" fill="currentColor">
<tspan>わ</tspan>
</text>
</g>
<g transform="translate(73.1373, 24.4987)">
<rect x="-0.0650" y="-0.1900" width="0.1300" height="2.5038" ry="0.0400" fill="currentColor"/>
</g>
<g transform="translate(73.1373, 35.6103)">
<rect x="-0.0650" y="0.0000" width="0.1300" height="3.3138" ry="0.0400" fill="currentColor"/>
</g>
<g transform="translate(74.8064, 27.4987)">
<path transform="scale(0.0040, -0.0040)" d="M0 -46c0 91 116 182 217 182c63 0 109 -35 109 -90c0 -87 -110 -182 -220 -182c-67 0 -106 39 -106 90z" fill="currentColor"/>
</g>
<g transform="translate(74.2294, 31.0247)">
<text font-family="serif" font-size="2.4697" text-anchor="start" fill="currentColor">
<tspan>わ</tspan>
</text>
</g>
<g transform="translate(74.8064, 39.6103)">
<path transform="scale(0.0040, -0.0040)" d="M0 -46c0 91 116 182 217 182c63 0 109 -35 109 -90c0 -87 -110 -182 -220 -182c-67 0 -106 39 -106 90z" fill="currentColor"/>
</g>
<g transform="translate(74.2294, 43.5918)">
<text font-family="serif" font-size="2.4697" text-anchor="start" fill="currentColor">
<tspan>け</tspan>
</text>
</g>
<g transform="translate(76.0456, 24.4987)">
<rect x="-0.0650" y="-0.1900" width="0.1300" height="3.0038" ry="0.0400" fill="currentColor"/>
</g>
<g transform="translate(76.0456, 35.6103)">
<rect x="-0.0650" y="0.0000" width="0.1300" height="3.8138" ry="0.0400" fill="currentColor"/>
</g>
<g transform="translate(77.7147, 25.4987)">
<path transform="scale(0.0040, -0.0040)" d="M0 -46c0 91 116 182 217 182c63 0 109 -35 109 -90c0 -87 -110 -182 -220 -182c-67 0 -106 39 -106 90z" fill="currentColor"/>
</g>
<g transform="translate(77.1377, 31.0247)">
<text font-family="serif" font-size="2.4697" text-anchor="start" fill="currentColor">
<tspan>け</tspan>
</text>
</g>
<g transform="translate(77.7147, 37.6103)">
<path transform="scale(0.0040, -0.0040)" d="M0 -46c0 91 116 182 217 182c63 0 109 -35 109 -90c0 -87 -110 -182 -220 -182c-67 0 -106 39 -106 90z" fill="currentColor"/>
</g>
<g transform="translate(77.1377, 43.5918)">
<text font-family="serif" font-size="2.4697" text-anchor="start" fill="currentColor">
<tspan>に</tspan>
</text>
</g>
<g transform="translate(78.9539, 24.4987)">
<rect x="-0.0650" y="-2.0000" width="0.1300" height="2.8138" ry="0.0400" fill="currentColor"/>
</g>
<g transform="translate(78.9539, 35.6103)">
<rect x="-0.0650" y="-1.0000" width="0.1300" height="2.8138" ry="0.0400" fill="currentColor"/>
</g>
<g transform="translate(80.6231, 25.4987)">
<path transform="scale(0.0040, -0.0040)" d="M0 -46c0 91 116 182 217 182c63 0 109 -35 109 -90c0 -87 -110 -182 -220 -182c-67 0 -106 39 -106 90z" fill="currentColor"/>
</g>
<g transform="translate(80.0460, 31.0247)">
<text font-family="serif" font-size="2.4697" text-anchor="start" fill="currentColor">
<tspan>に</tspan>
</text>
</g>
<g transform="translate(80.6231, 37.6103)">
<path transform="scale(0.0040, -0.0040)" d="M0 -46c0 91 116 182 217 182c63 0 109 -35 109 -90c0 -87 -110 -182 -220 -182c-67 0 -106 39 -106 90z" fill="currentColor"/>
</g>
<g transform="translate(80.0460, 43.5918)">
<text font-family="serif" font-size="2.4697" text-anchor="start" fill="currentColor">
<tspan>さ</tspan>
</text>
</g>
<g transform="translate(81.8623, 24.4987)">
<rect x="-0.0650" y="-2.0000" width="0.1300" height="2.8138" ry="0.0400" fill="currentColor"/>
</g>
<g transform="translate(81.8623, 35.6103)">
<rect x="-0.0650" y="-1.0000" width="0.1300" height="2.8138" ry="0.0400" fill="currentColor"/>
</g>
<g transform="translate(83.5314, 25.4987)">
<path transform="scale(0.0040, -0.0040)" d="M0 -46c0 91 116 182 217 182c63 0 109 -35 109 -90c0 -87 -110 -182 -220 -182c-67 0 -106 39 -106 90z" fill="currentColor"/>
</g>
<g transform="translate(82.9543, 31.0247)">
<text font-family="serif" font-size="2.4697" text-anchor="start" fill="currentColor">
<tspan>さ</tspan>
</text>
</g>
<g transform="translate(83.5314, 37.6103)">
<path transform="scale(0.0040, -0.0040)" d="M0 -46c0 91 116 182 217 182c63 0 109 -35 109 -90c0 -87 -110 -182 -220 -182c-67 0 -106 39 -106 90z" fill="currentColor"/>
</g>
<g transform="translate(82.9543, 43.5918)">
<text font-family="serif" font-size="2.4697" text-anchor="start" fill="currentColor">
<tspan>せ</tspan>
</text>
</g>
<g transform="translate(84.7706, 24.4987)">
<rect x="-0.0650" y="-2.0000" width="0.1300" height="2.8138" ry="0.0400" fill="currentColor"/>
</g>
<g transform="translate(84.7706, 35.6103)">
<rect x="-0.0650" y="-1.0000" width="0.1300" height="2.8138" ry="0.0400" fill="currentColor"/>
</g>
<g transform="translate(86.4397, 25.4987)">
<path transform="scale(0.0040, -0.0040)" d="M0 -46c0 91 116 182 217 182c63 0 109 -35 109 -90c0 -87 -110 -182 -220 -182c-67 0 -106 39 -106 90z" fill="currentColor"/>
</g>
<g transform="translate(85.8626, 31.0247)">
<text font-family="serif" font-size="2.4697" text-anchor="start" fill="currentColor">
<tspan>せ</tspan>
</text>
</g>
<g transform="translate(86.4397, 37.6103)">
<path transform="scale(0.0040, -0.0040)" d="M0 -46c0 91 116 182 217 182c63 0 109 -35 109 -90c0 -87 -110 -182 -220 -182c-67 0 -106 39 -106 90z" fill="currentColor"/>
</g>
<g transform="translate(85.8626, 43.5918)">
<text font-family="serif" font-size="2.4697" text-anchor="start" fill="currentColor">
<tspan>て</tspan>
</text>
</g>
<g transform="translate(87.6789, 24.4987)">
<rect x="-0.0650" y="-2.0000" width="0.1300" height="2.8138" ry="0.0400" fill="currentColor"/>
</g>
<g transform="translate(87.6789, 35.6103)">
<rect x="-0.0650" y="-1.0000" width="0.1300" height="2.8138" ry="0.0400" fill="currentColor"/>
</g>
<g transform="translate(89.3480, 25.4987)">
<path transform="scale(0.0040, -0.0040)" d="M0 -46c0 91 116 182 217 182c63 0 109 -35 109 -90c0 -87 -110 -182 -220 -182c-67 0 -106 39 -106 90z" fill="currentColor"/>
</g>
<g transform="translate(88.7710, 31.0247)">
<text font-family="serif" font-size="2.4697" text-anchor="start" fill="currentColor">
<tspan>て</tspan>
</text>
</g>
<g transform="translate(89.3480, 37.6103)">
<path transform="scale(0.0040, -0.0040)" d="M0 -46c0 91 116 182 217 182c63 0 109 -35 109 -90c0 -87 -110 -182 -220 -182c-67 0 -106 39 -106 90z" fill="currentColor"/>
</g>
<g transform="translate(88.7710, 43.5918)">
<text font-family="serif" font-size="2.4697" text-anchor="start" fill="currentColor">
<tspan>よ</tspan>
</text>
</g>
<g transform="translate(90.5872, 24.4987)">
<rect x="-0.0650" y="-2.0000" width="0.1300" height="2.8138" ry="0.0400" fill="currentColor"/>
</g>
<g transform="translate(90.5872, 35.6103)">
<rect x="-0.0650" y="-1.0000" width="0.1300" height="2.8138" ry="0.0400" fill="currentColor"/>
</g>
<g transform="translate(52.7747, 35.6103)">
<polygon stroke-linejoin="round" stroke-linecap="round" stroke-width="0.0800" fill="currentColor" stroke="currentColor" points="8.3650 -0.2000 8.3650 0.2000 0.0400 0.2000 0.0400 -0.2000"/>
</g>
<g transform="translate(92.2563, 25.4987)">
<path transform="scale(0.0040, -0.0040)" d="M0 -46c0 91 116 182 217 182c63 0 109 -35 109 -90c0 -87 -110 -182 -220 -182c-67 0 -106 39 -106 90z" fill="currentColor"/>
</g>
<g transform="translate(91.6793, 31.0247)">
<text font-family="serif" font-size="2.4697" text-anchor="start" fill="currentColor">
<tspan>よ</tspan>
</text>
</g>
<g transform="translate(92.2563, 37.6103)">
<path transform="scale(0.0040, -0.0040)" d="M0 -46c0 91 116 182 217 182c63 0 109 -35 109 -90c0 -87 -110 -182 -220 -182c-67 0 -106 39 -106 90z" fill="currentColor"/>
</g>
<g transform="translate(93.4955, 24.4987)">
<rect x="-0.0650" y="-2.0000" width="0.1300" height="2.8138" ry="0.0400" fill="currentColor"/>
</g>
<g transform="translate(93.4955, 35.6103)">
<rect x="-0.0650" y="-1.0000" width="0.1300" height="2.8138" ry="0.0400" fill="currentColor"/>
</g>
<g transform="translate(52.7747, 24.3087)">
<polygon stroke-linejoin="round" stroke-linecap="round" stroke-width="0.0800" fill="currentColor" stroke="currentColor" points="8.3650 -0.8200 8.3650 -0.4200 0.0400 0.2000 0.0400 -0.2000"/>
</g>
<g transform="translate(95.0002, 24.4987)">
<path transform="scale(0.0040, -0.0040)" d="M-6 78c0 59 124 83 124 182c0 24 -8 49 -25 69l-35 42c-3 3 -4 7 -4 10c0 9 9 15 17 15c4 0 8 -1 11 -5l151 -180c7 -9 10 -17 10 -25c0 -59 -124 -83 -124 -182c0 -24 7 -49 24 -69l84 -99c3 -3 4 -7 4 -10c0 -9 -8 -16 -16 -16s-45 44 -109 44c-16 0 -53 0 -53 -67
c0 -62 30 -97 30 -100c0 -4 -4 -7 -8 -7c-13 0 -98 130 -98 204c0 41 27 42 40 42c33 0 78 -13 119 -31l-132 158c-7 9 -10 17 -10 25z" fill="currentColor"/>
</g>
<g transform="translate(-4.1366, 36.4155)">
<text font-family="serif" font-size="2.2000" text-anchor="start" fill="currentColor">
<tspan>V2</tspan>
</text>
</g>
<g transform="translate(96.9793, 24.4987)">
<path transform="scale(0.0040, -0.0040)" d="M163 36l119 97c3 2 6 3 9 3s7 -1 10 -3l20 -16c3 -3 5 -8 5 -12s-2 -9 -5 -12l-115 -93l115 -93c3 -3 5 -8 5 -12s-2 -9 -5 -12l-20 -16c-3 -2 -7 -3 -10 -3s-6 1 -9 3l-119 97l-119 -97c-3 -2 -6 -3 -9 -3s-7 1 -10 3l-20 16c-3 3 -5 8 -5 12s2 9 5 12l115 93l-115 93
c-3 3 -5 8 -5 12s2 9 5 12l20 16c3 2 7 3 10 3s6 -1 9 -3z" fill="currentColor"/>
</g>
<g transform="translate(96.1462, 31.0247)">
<text font-family="serif" font-size="2.4697" text-anchor="start" fill="currentColor">
<tspan>Ah</tspan>
</text>
</g>
<g transform="translate(97.0443, 24.4987)">
<rect x="-0.0650" y="0.3904" width="0.1300" height="2.9429" ry="0.0400" fill="currentColor"/>
</g>
<g transform="translate(59.8755, 24.4987)">
<path stroke-width="0.0800" stroke-linejoin="round" stroke-linecap="round" stroke="currentColor" fill="currentColor" d="M0.8521 2.7500C1.6043 3.5090 3.8374 3.5090 4.5896 2.7500L4.5896 2.7500C3.8374 3.3890 1.6043 3.3890 0.8521 2.7500z"/>
</g>
<g transform="translate(99.3127, 24.4987)">
<path transform="scale(0.0040, -0.0040)" d="M365 0h-355c-6 0 -10 4 -10 10v136c0 6 4 10 10 10h355c6 0 10 -4 10 -10v-136c0 -6 -4 -10 -10 -10z" fill="currentColor"/>
</g>
<g transform="translate(-4.1366, 25.3051)">
<text font-family="serif" font-size="2.2000" text-anchor="start" fill="currentColor">
<tspan>V1</tspan>
</text>
</g>
<g transform="translate(11.7241, 23.3087)">
<polygon stroke-linejoin="round" stroke-linecap="round" stroke-width="0.0800" fill="currentColor" stroke="currentColor" points="8.8150 0.1800 8.8150 0.5800 0.0400 0.2000 0.0400 -0.2000"/>
</g>
<g transform="translate(11.7241, 35.4203)">
<polygon stroke-linejoin="round" stroke-linecap="round" stroke-width="0.0800" fill="currentColor" stroke="currentColor" points="8.8150 -0.0100 8.8150 0.3900 0.0400 0.2000 0.0400 -0.2000"/>
</g>
<g transform="translate(35.3091, 23.6887)">
<polygon stroke-linejoin="round" stroke-linecap="round" stroke-width="0.0800" fill="currentColor" stroke="currentColor" points="2.9983 -0.2000 2.9983 0.2000 0.0400 0.2000 0.0400 -0.2000"/>
</g>
<g transform="translate(56.5675, 23.2992)">
<text font-family="serif" font-style="italic" font-size="1.7459" text-anchor="start" fill="currentColor">
<tspan>3</tspan>
</text>
</g>
<g transform="translate(56.5675, 34.7555)">
<text font-family="serif" font-style="italic" font-size="1.7459" text-anchor="start" fill="currentColor">
<tspan>3</tspan>
</text>
</g>
<g transform="translate(42.8206, 35.6103)">
<polygon stroke-linejoin="round" stroke-linecap="round" stroke-width="0.0800" fill="currentColor" stroke="currentColor" points="5.9066 -0.2000 5.9066 0.2000 0.0400 0.2000 0.0400 -0.2000"/>
</g>
</svg>
