<svg xmlns="http://www.w3.org/2000/svg" xmlns:xlink="http://www.w3.org/1999/xlink" version="1.2" width="149.42mm" height="32.36mm" viewBox="-1.8149 -0.0000 85.0308 18.4153">
<style type="text/css">
<![CDATA[
tspan { white-space: pre; }
]]>
</style>
<g transform="translate(32.3559, 4.1867)">
<rect x="0.0000" y="-2.0000" width="0.1900" height="4.0000" ry="0.0000" fill="currentColor"/>
</g>
<g transform="translate(8.5358, 6.1867)">
<line stroke-linejoin="round" stroke-linecap="round" stroke-width="0.1000" stroke="currentColor" x1="0.0500" y1="0" x2="74.6301" y2="0"/>
</g>
<g transform="translate(8.5358, 5.1867)">
<line stroke-linejoin="round" stroke-linecap="round" stroke-width="0.1000" stroke="currentColor" x1="0.0500" y1="0" x2="74.6301" y2="0"/>
</g>
<g transform="translate(8.5358, 4.1867)">
<line stroke-linejoin="round" stroke-linecap="round" stroke-width="0.1000" stroke="currentColor" x1="0.0500" y1="0" x2="74.6301" y2="0"/>
</g>
<g transform="translate(8.5358, 3.1867)">
<line stroke-linejoin="round" stroke-linecap="round" stroke-width="0.1000" stroke="currentColor" x1="0.0500" y1="0" x2="74.6301" y2="0"/>
</g>
<g transform="translate(8.5358, 2.1867)">
<line stroke-linejoin="round" stroke-linecap="round" stroke-width="0.1000" stroke="currentColor" x1="0.0500" y1="0" x2="74.6301" y2="0"/>
</g>
<g transform="translate(83.0260, 14.7723)">
<rect x="0.0000" y="-2.0000" width="0.1900" height="4.0000" ry="0.0000" fill="currentColor"/>
</g>
<g transform="translate(83.0260, 4.1867)">
<rect x="0.0000" y="-2.0000" width="0.1900" height="4.0000" ry="0.0000" fill="currentColor"/>
</g>
<g transform="translate(71.7440, 14.7723)">
<rect x="0.0000" y="-2.0000" width="0.1900" height="4.0000" ry="0.0000" fill="currentColor"/>
</g>
<g transform="translate(71.7440, 4.1867)">
<rect x="0.0000" y="-2.0000" width="0.1900" height="4.0000" ry="0.0000" fill="currentColor"/>
</g>
<g transform="translate(8.5358, 16.7723)">
<line stroke-linejoin="round" stroke-linecap="round" stroke-width="0.1000" stroke="currentColor" x1="0.0500" y1="0" x2="74.6301" y2="0"/>
</g>
<g transform="translate(8.5358, 15.7723)">
<line stroke-linejoin="round" stroke-linecap="round" stroke-width="0.1000" stroke="currentColor" x1="0.0500" y1="0" x2="74.6301" y2="0"/>
</g>
<g transform="translate(8.5358, 14.7723)">
<line stroke-linejoin="round" stroke-linecap="round" stroke-width="0.1000" stroke="currentColor" x1="0.0500" y1="0" x2="74.6301" y2="0"/>
</g>
<g transform="translate(8.5358, 13.7723)">
<line stroke-linejoin="round" stroke-linecap="round" stroke-width="0.1000" stroke="currentColor" x1="0.0500" y1="0" x2="74.6301" y2="0"/>
</g>
<g transform="translate(8.5358, 12.7723)">
<line stroke-linejoin="round" stroke-linecap="round" stroke-width="0.1000" stroke="currentColor" x1="0.0500" y1="0" x2="74.6301" y2="0"/>
</g>
<g transform="translate(57.2798, 14.7723)">
<rect x="0.0000" y="-2.0000" width="0.1900" height="4.0000" ry="0.0000" fill="currentColor"/>
</g>
<g transform="translate(57.2798, 4.1867)">
<rect x="0.0000" y="-2.0000" width="0.1900" height="4.0000" ry="0.0000" fill="currentColor"/>
</g>
<g transform="translate(0.0000, 7.1867)">
<rect x="68.8505" y="-0.1000" width="1.9563" height="0.2000" ry="0.1000" fill="currentColor"/>
</g>
<g transform="translate(44.0034, 14.7723)">
<rect x="0.0000" y="-2.0000" width="0.1900" height="4.0000" ry="0.0000" fill="currentColor"/>
</g>
<g transform="translate(44.0034, 4.1867)">
<rect x="0.0000" y="-2.0000" width="0.1900" height="4.0000" ry="0.0000" fill="currentColor"/>
</g>
<g transform="translate(32.3559, 14.7723)">
<rect x="0.0000" y="-2.0000" width="0.1900" height="4.0000" ry="0.0000" fill="currentColor"/>
</g>
<g transform="translate(54.0766, 5.1867)">
<path transform="scale(0.0040, -0.0040)" d="M0 -46c0 91 116 182 217 182c63 0 109 -35 109 -90c0 -87 -110 -182 -220 -182c-67 0 -106 39 -106 90z" fill="currentColor"/>
</g>
<g transform="translate(69.1766, 4.1867)">
<path stroke-width="0.0800" stroke-linejoin="round" stroke-linecap="round" stroke="currentColor" fill="currentColor" d="M0.7668 4.0450C1.9010 4.6418 3.7514 4.1359 4.4242 3.0450L4.4242 3.0450C3.7197 4.0201 1.8694 4.5261 0.7668 4.0450z"/>
</g>
<g transform="translate(58.3698, 5.6867)">
<path transform="scale(0.0040, -0.0040)" d="M0 -46c0 91 116 182 217 182c63 0 109 -35 109 -90c0 -87 -110 -182 -220 -182c-67 0 -106 39 -106 90z" fill="currentColor"/>
</g>
<g transform="translate(20.2356, 3.6867)">
<path transform="scale(0.0040, -0.0040)" d="M0 -46c0 91 116 182 217 182c63 0 109 -35 109 -90c0 -87 -110 -182 -220 -182c-67 0 -106 39 -106 90z" fill="currentColor"/>
</g>
<g transform="translate(9.3358, 5.1867)">
<path transform="scale(0.0040, -0.0040)" d="M266 -635h-6c-108 0 -195 88 -195 197c0 58 53 103 112 103c54 0 95 -47 95 -103c0 -52 -43 -95 -95 -95c-11 0 -21 2 -31 6c26 -39 68 -65 117 -65h4zM401 151c19 -89 48 -242 60 -354c76 27 112 94 112 163c0 89 -60 179 -172 191zM74 28c0 -112 98 -247 278 -247
c21 0 44 2 68 6c-7 64 -29 203 -63 364c-79 -8 -124 -61 -124 -119c0 -44 25 -91 81 -123c5 -5 7 -10 7 -15c0 -11 -10 -22 -22 -22c-15 0 -126 62 -126 187c0 88 58 174 160 197c-14 58 -29 117 -46 175c-107 -121 -213 -243 -213 -403zM357 1194c28 0 143 -206 143 -361
c0 -143 -86 -255 -180 -364c21 -68 39 -138 56 -207c5 0 10 1 14 1c155 0 255 -129 255 -262c0 -113 -74 -212 -180 -245c3 -35 5 -70 5 -105c0 -19 -1 -39 -2 -58c-7 -119 -88 -225 -202 -228l1 43c93 2 153 92 159 191c1 18 2 37 2 55c0 31 -1 61 -4 92
c-28 -5 -55 -8 -80 -8c-239 0 -342 217 -342 374c0 177 131 306 248 441c-29 96 -52 170 -52 346c0 189 144 295 159 295zM247 782c0 -55 12 -115 35 -190c82 100 147 202 147 326c0 40 -6 82 -21 127c-49 -24 -161 -97 -161 -263z" fill="currentColor"/>
</g>
<g transform="translate(12.8408, 4.1867)">
<path transform="scale(0.0040, -0.0040)" d="M27 41l-1 -66v-11c0 -22 1 -44 4 -66c45 38 93 80 93 139c0 33 -14 67 -43 67c-31 0 -52 -30 -53 -63zM-15 -138l-12 595c8 5 18 8 27 8s19 -3 27 -8l-7 -345c25 21 58 34 91 34c52 0 89 -48 89 -102c0 -80 -86 -117 -147 -169c-15 -13 -24 -38 -45 -38
c-13 0 -23 11 -23 25z" fill="currentColor"/>
</g>
<g transform="translate(13.7608, 2.6867)">
<path transform="scale(0.0040, -0.0040)" d="M27 41l-1 -66v-11c0 -22 1 -44 4 -66c45 38 93 80 93 139c0 33 -14 67 -43 67c-31 0 -52 -30 -53 -63zM-15 -138l-12 595c8 5 18 8 27 8s19 -3 27 -8l-7 -345c25 21 58 34 91 34c52 0 89 -48 89 -102c0 -80 -86 -117 -147 -169c-15 -13 -24 -38 -45 -38
c-13 0 -23 11 -23 25z" fill="currentColor"/>
</g>
<g transform="translate(14.6808, 4.6867)">
<path transform="scale(0.0040, -0.0040)" d="M27 41l-1 -66v-11c0 -22 1 -44 4 -66c45 38 93 80 93 139c0 33 -14 67 -43 67c-31 0 -52 -30 -53 -63zM-15 -138l-12 595c8 5 18 8 27 8s19 -3 27 -8l-7 -345c25 21 58 34 91 34c52 0 89 -48 89 -102c0 -80 -86 -117 -147 -169c-15 -13 -24 -38 -45 -38
c-13 0 -23 11 -23 25z" fill="currentColor"/>
</g>
<g transform="translate(16.6308, 4.1867)">
<path transform="scale(0.0040, -0.0040)" d="M196 117h117c0 -48 27 -94 72 -94c8 0 12 -5 12 -11s-4 -12 -12 -12c-44 0 -87 13 -131 13s-87 -13 -131 -13c-8 0 -12 6 -12 12s4 11 12 11c45 0 73 46 73 94zM225 487c36 0 69 14 76 14c8 0 14 -6 14 -12c0 -2 -1 -3 -2 -5l-284 -330h167v131c0 34 34 27 68 72
c22 30 23 56 36 56c6 0 13 -5 13 -14v-245h72c10 0 15 -7 15 -14s-5 -15 -15 -15h-72v-8h-117v8h-167c-23 0 -31 14 -31 23c0 12 140 143 140 336c0 9 6 16 13 16c5 0 39 -13 74 -13z" fill="currentColor"/>
</g>
<g transform="translate(16.6308, 6.1867)">
<path transform="scale(0.0040, -0.0040)" d="M196 117h117c0 -48 27 -94 72 -94c8 0 12 -5 12 -11s-4 -12 -12 -12c-44 0 -87 13 -131 13s-87 -13 -131 -13c-8 0 -12 6 -12 12s4 11 12 11c45 0 73 46 73 94zM225 487c36 0 69 14 76 14c8 0 14 -6 14 -12c0 -2 -1 -3 -2 -5l-284 -330h167v131c0 34 34 27 68 72
c22 30 23 56 36 56c6 0 13 -5 13 -14v-245h72c10 0 15 -7 15 -14s-5 -15 -15 -15h-72v-8h-117v8h-167c-23 0 -31 14 -31 23c0 12 140 143 140 336c0 9 6 16 13 16c5 0 39 -13 74 -13z" fill="currentColor"/>
</g>
<g transform="translate(19.6585, 11.0273)">
<text font-family="serif" font-size="2.4697" text-anchor="start" fill="currentColor">
<tspan>ま</tspan>
</text>
</g>
<g transform="translate(9.3358, 15.7723)">
<path transform="scale(0.0040, -0.0040)" d="M266 -635h-6c-108 0 -195 88 -195 197c0 58 53 103 112 103c54 0 95 -47 95 -103c0 -52 -43 -95 -95 -95c-11 0 -21 2 -31 6c26 -39 68 -65 117 -65h4zM401 151c19 -89 48 -242 60 -354c76 27 112 94 112 163c0 89 -60 179 -172 191zM74 28c0 -112 98 -247 278 -247
c21 0 44 2 68 6c-7 64 -29 203 -63 364c-79 -8 -124 -61 -124 -119c0 -44 25 -91 81 -123c5 -5 7 -10 7 -15c0 -11 -10 -22 -22 -22c-15 0 -126 62 -126 187c0 88 58 174 160 197c-14 58 -29 117 -46 175c-107 -121 -213 -243 -213 -403zM357 1194c28 0 143 -206 143 -361
c0 -143 -86 -255 -180 -364c21 -68 39 -138 56 -207c5 0 10 1 14 1c155 0 255 -129 255 -262c0 -113 -74 -212 -180 -245c3 -35 5 -70 5 -105c0 -19 -1 -39 -2 -58c-7 -119 -88 -225 -202 -228l1 43c93 2 153 92 159 191c1 18 2 37 2 55c0 31 -1 61 -4 92
c-28 -5 -55 -8 -80 -8c-239 0 -342 217 -342 374c0 177 131 306 248 441c-29 96 -52 170 -52 346c0 189 144 295 159 295zM247 782c0 -55 12 -115 35 -190c82 100 147 202 147 326c0 40 -6 82 -21 127c-49 -24 -161 -97 -161 -263z" fill="currentColor"/>
</g>
<g transform="translate(12.8408, 14.7723)">
<path transform="scale(0.0040, -0.0040)" d="M27 41l-1 -66v-11c0 -22 1 -44 4 -66c45 38 93 80 93 139c0 33 -14 67 -43 67c-31 0 -52 -30 -53 -63zM-15 -138l-12 595c8 5 18 8 27 8s19 -3 27 -8l-7 -345c25 21 58 34 91 34c52 0 89 -48 89 -102c0 -80 -86 -117 -147 -169c-15 -13 -24 -38 -45 -38
c-13 0 -23 11 -23 25z" fill="currentColor"/>
</g>
<g transform="translate(13.7608, 13.2723)">
<path transform="scale(0.0040, -0.0040)" d="M27 41l-1 -66v-11c0 -22 1 -44 4 -66c45 38 93 80 93 139c0 33 -14 67 -43 67c-31 0 -52 -30 -53 -63zM-15 -138l-12 595c8 5 18 8 27 8s19 -3 27 -8l-7 -345c25 21 58 34 91 34c52 0 89 -48 89 -102c0 -80 -86 -117 -147 -169c-15 -13 -24 -38 -45 -38
c-13 0 -23 11 -23 25z" fill="currentColor"/>
</g>
<g transform="translate(14.6808, 15.2723)">
<path transform="scale(0.0040, -0.0040)" d="M27 41l-1 -66v-11c0 -22 1 -44 4 -66c45 38 93 80 93 139c0 33 -14 67 -43 67c-31 0 -52 -30 -53 -63zM-15 -138l-12 595c8 5 18 8 27 8s19 -3 27 -8l-7 -345c25 21 58 34 91 34c52 0 89 -48 89 -102c0 -80 -86 -117 -147 -169c-15 -13 -24 -38 -45 -38
c-13 0 -23 11 -23 25z" fill="currentColor"/>
</g>
<g transform="translate(16.6308, 14.7723)">
<path transform="scale(0.0040, -0.0040)" d="M196 117h117c0 -48 27 -94 72 -94c8 0 12 -5 12 -11s-4 -12 -12 -12c-44 0 -87 13 -131 13s-87 -13 -131 -13c-8 0 -12 6 -12 12s4 11 12 11c45 0 73 46 73 94zM225 487c36 0 69 14 76 14c8 0 14 -6 14 -12c0 -2 -1 -3 -2 -5l-284 -330h167v131c0 34 34 27 68 72
c22 30 23 56 36 56c6 0 13 -5 13 -14v-245h72c10 0 15 -7 15 -14s-5 -15 -15 -15h-72v-8h-117v8h-167c-23 0 -31 14 -31 23c0 12 140 143 140 336c0 9 6 16 13 16c5 0 39 -13 74 -13z" fill="currentColor"/>
</g>
<g transform="translate(16.6308, 16.7723)">
<path transform="scale(0.0040, -0.0040)" d="M196 117h117c0 -48 27 -94 72 -94c8 0 12 -5 12 -11s-4 -12 -12 -12c-44 0 -87 13 -131 13s-87 -13 -131 -13c-8 0 -12 6 -12 12s4 11 12 11c45 0 73 46 73 94zM225 487c36 0 69 14 76 14c8 0 14 -6 14 -12c0 -2 -1 -3 -2 -5l-284 -330h167v131c0 34 34 27 68 72
c22 30 23 56 36 56c6 0 13 -5 13 -14v-245h72c10 0 15 -7 15 -14s-5 -15 -15 -15h-72v-8h-117v8h-167c-23 0 -31 14 -31 23c0 12 140 143 140 336c0 9 6 16 13 16c5 0 39 -13 74 -13z" fill="currentColor"/>
</g>
<g transform="translate(20.3006, 4.1867)">
<rect x="-0.0650" y="-0.3138" width="0.1300" height="3.3138" ry="0.0400" fill="currentColor"/>
</g>
<g transform="translate(6.0775, 1.2135)">
<text font-family="serif" font-size="1.7459" text-anchor="start" fill="currentColor">
<tspan>234</tspan>
</text>
</g>
<g transform="translate(23.2378, 3.6867)">
<path transform="scale(0.0040, -0.0040)" d="M0 -46c0 91 116 182 217 182c63 0 109 -35 109 -90c0 -87 -110 -182 -220 -182c-67 0 -106 39 -106 90z" fill="currentColor"/>
</g>
<g transform="translate(22.6607, 11.0273)">
<text font-family="serif" font-size="2.4697" text-anchor="start" fill="currentColor">
<tspan>く</tspan>
</text>
</g>
<g transform="translate(23.3028, 4.1867)">
<rect x="-0.0650" y="-0.3138" width="0.1300" height="3.3138" ry="0.0400" fill="currentColor"/>
</g>
<g transform="translate(26.2401, 4.1867)">
<path transform="scale(0.0040, -0.0040)" d="M0 -46c0 91 116 182 217 182c63 0 109 -35 109 -90c0 -87 -110 -182 -220 -182c-67 0 -106 39 -106 90z" fill="currentColor"/>
</g>
<g transform="translate(25.6630, 11.0273)">
<text font-family="serif" font-size="2.4697" text-anchor="start" fill="currentColor">
<tspan>を</tspan>
</text>
</g>
<g transform="translate(26.3051, 4.1867)">
<rect x="-0.0650" y="0.1862" width="0.1300" height="3.1471" ry="0.0400" fill="currentColor"/>
</g>
<g transform="translate(29.1526, 5.1867)">
<path transform="scale(0.0040, -0.0040)" d="M0 -46c0 91 116 182 217 182c63 0 109 -35 109 -90c0 -87 -110 -182 -220 -182c-67 0 -106 39 -106 90z" fill="currentColor"/>
</g>
<g transform="translate(28.5756, 11.0273)">
<text font-family="serif" font-size="2.4697" text-anchor="start" fill="currentColor">
<tspan>お</tspan>
</text>
</g>
<g transform="translate(30.3918, 4.1867)">
<rect x="-0.0650" y="-2.5000" width="0.1300" height="3.3138" ry="0.0400" fill="currentColor"/>
</g>
<g transform="translate(63.8569, 13.7723)">
<path transform="scale(0.0040, -0.0040)" d="M365 -156h-355c-6 0 -10 4 -10 10v136c0 6 4 10 10 10h355c6 0 10 -4 10 -10v-136c0 -6 -4 -10 -10 -10z" fill="currentColor"/>
</g>
<g transform="translate(33.4459, 5.6867)">
<path transform="scale(0.0040, -0.0040)" d="M0 -46c0 91 116 182 217 182c63 0 109 -35 109 -90c0 -87 -110 -182 -220 -182c-67 0 -106 39 -106 90z" fill="currentColor"/>
</g>
<g transform="translate(32.8688, 11.0273)">
<text font-family="serif" font-size="2.4697" text-anchor="start" fill="currentColor">
<tspan>ろ</tspan>
</text>
</g>
<g transform="translate(34.6851, 4.1867)">
<rect x="-0.0650" y="-2.0000" width="0.1300" height="3.3138" ry="0.0400" fill="currentColor"/>
</g>
<g transform="translate(36.6092, 4.1867)">
<path transform="scale(0.0040, -0.0040)" d="M0 -46c0 91 116 182 217 182c63 0 109 -35 109 -90c0 -87 -110 -182 -220 -182c-67 0 -106 39 -106 90z" fill="currentColor"/>
</g>
<g transform="translate(36.0321, 11.0273)">
<text font-family="serif" font-size="2.4697" text-anchor="start" fill="currentColor">
<tspan>そ</tspan>
</text>
</g>
<g transform="translate(36.6742, 4.1867)">
<rect x="-0.0650" y="0.1862" width="0.1300" height="3.1471" ry="0.0400" fill="currentColor"/>
</g>
<g transform="translate(39.5322, 5.1867)">
<path transform="scale(0.0040, -0.0040)" d="M72 -106c40 0 204 110 231 143c7 9 11 19 11 28c0 22 -18 41 -42 41c-40 0 -204 -110 -231 -143c-7 -9 -10 -19 -10 -28c0 -22 17 -41 41 -41zM0 -67c0 71 46 203 258 203c41 0 86 -10 86 -69c0 -71 -46 -203 -258 -203c-41 0 -86 10 -86 69z" fill="currentColor"/>
</g>
<g transform="translate(38.9917, 11.0273)">
<text font-family="serif" font-size="2.4697" text-anchor="start" fill="currentColor">
<tspan>う</tspan>
</text>
</g>
<g transform="translate(40.8446, 4.1867)">
<rect x="-0.0650" y="-2.5000" width="0.1300" height="3.2410" ry="0.0400" fill="currentColor"/>
</g>
<g transform="translate(45.1595, 3.6867)">
<path transform="scale(0.0040, -0.0040)" d="M0 -46c0 91 116 182 217 182c63 0 109 -35 109 -90c0 -87 -110 -182 -220 -182c-67 0 -106 39 -106 90z" fill="currentColor"/>
</g>
<g transform="translate(8.4758, 9.4795)">
<rect x="0.0000" y="-7.3428" width="0.1600" height="14.6857" ry="0.0500" fill="currentColor"/>
</g>
<g transform="translate(44.5825, 11.0273)">
<text font-family="serif" font-size="2.4697" text-anchor="start" fill="currentColor">
<tspan>い</tspan>
</text>
</g>
<g transform="translate(7.2258, 1.9117)">
<path transform="scale(0.0040, -0.0040)" d="M0 -56v87c0 14 11 25 25 25h50c159 0 271 136 362 270c3 5 8 7 12 7c8 0 17 -7 17 -16c0 -3 -1 -6 -3 -9c-99 -144 -215 -364 -388 -364h-75z" fill="currentColor"/>
</g>
<g transform="translate(7.2258, 17.0473)">
<path transform="scale(0.0040, -0.0040)" d="M0 56h75c173 0 289 -220 388 -364c2 -3 3 -6 3 -9c0 -9 -9 -16 -17 -16c-4 0 -9 2 -12 7c-91 134 -203 270 -362 270h-50c-14 0 -25 11 -25 25v87z" fill="currentColor"/>
</g>
<g transform="translate(7.2258, 9.4795)">
<rect x="0.0000" y="-7.3878" width="0.4500" height="14.7757" ry="0.0000" fill="currentColor"/>
</g>
<g transform="translate(45.2245, 4.1867)">
<rect x="-0.0650" y="-0.3138" width="0.1300" height="3.3138" ry="0.0400" fill="currentColor"/>
</g>
<g transform="translate(48.1618, 3.6867)">
<path transform="scale(0.0040, -0.0040)" d="M0 -46c0 91 116 182 217 182c63 0 109 -35 109 -90c0 -87 -110 -182 -220 -182c-67 0 -106 39 -106 90z" fill="currentColor"/>
</g>
<g transform="translate(47.5847, 11.0273)">
<text font-family="serif" font-size="2.4697" text-anchor="start" fill="currentColor">
<tspan>つ</tspan>
</text>
</g>
<g transform="translate(48.2268, 4.1867)">
<rect x="-0.0650" y="-0.3138" width="0.1300" height="3.3138" ry="0.0400" fill="currentColor"/>
</g>
<g transform="translate(49.9866, 13.7723)">
<path transform="scale(0.0040, -0.0040)" d="M365 -156h-355c-6 0 -10 4 -10 10v136c0 6 4 10 10 10h355c6 0 10 -4 10 -10v-136c0 -6 -4 -10 -10 -10z" fill="currentColor"/>
</g>
<g transform="translate(51.1640, 4.1867)">
<path transform="scale(0.0040, -0.0040)" d="M0 -46c0 91 116 182 217 182c63 0 109 -35 109 -90c0 -87 -110 -182 -220 -182c-67 0 -106 39 -106 90z" fill="currentColor"/>
</g>
<g transform="translate(50.5870, 11.0273)">
<text font-family="serif" font-size="2.4697" text-anchor="start" fill="currentColor">
<tspan>か</tspan>
</text>
</g>
<g transform="translate(51.2290, 4.1867)">
<rect x="-0.0650" y="0.1862" width="0.1300" height="3.1471" ry="0.0400" fill="currentColor"/>
</g>
<g transform="translate(76.7707, 4.1867)">
<path stroke-width="0.0800" stroke-linejoin="round" stroke-linecap="round" stroke="currentColor" fill="currentColor" d="M0.8521 -1.2250C1.2905 -1.7552 2.1545 -1.7552 2.5929 -1.2250L2.5929 -1.2250C2.1545 -1.6352 1.2905 -1.6352 0.8521 -1.2250z"/>
</g>
<g transform="translate(53.4995, 11.0273)">
<text font-family="serif" font-size="2.4697" text-anchor="start" fill="currentColor">
<tspan>ぶ</tspan>
</text>
</g>
<g transform="translate(55.3158, 4.1867)">
<rect x="-0.0650" y="-2.5000" width="0.1300" height="3.3138" ry="0.0400" fill="currentColor"/>
</g>
<g transform="translate(76.7300, 13.7723)">
<path transform="scale(0.0040, -0.0040)" d="M365 -156h-355c-6 0 -10 4 -10 10v136c0 6 4 10 10 10h355c6 0 10 -4 10 -10v-136c0 -6 -4 -10 -10 -10z" fill="currentColor"/>
</g>
<g transform="translate(57.7928, 11.0273)">
<text font-family="serif" font-size="2.4697" text-anchor="start" fill="currentColor">
<tspan>た</tspan>
</text>
</g>
<g transform="translate(-1.8149, 15.4489)">
<text font-family="serif" font-size="2.2000" text-anchor="start" fill="currentColor">
<tspan>大場奈奈</tspan>
</text>
</g>
<g transform="translate(59.6090, 4.1867)">
<rect x="-0.0650" y="-2.0000" width="0.1300" height="3.3138" ry="0.0400" fill="currentColor"/>
</g>
<g transform="translate(61.3721, 6.1867)">
<path transform="scale(0.0040, -0.0040)" d="M0 -46c0 91 116 182 217 182c63 0 109 -35 109 -90c0 -87 -110 -182 -220 -182c-67 0 -106 39 -106 90z" fill="currentColor"/>
</g>
<g transform="translate(60.7950, 11.0273)">
<text font-family="serif" font-size="2.4697" text-anchor="start" fill="currentColor">
<tspan>い</tspan>
</text>
</g>
<g transform="translate(62.6113, 4.1867)">
<rect x="-0.0650" y="-1.5000" width="0.1300" height="3.3138" ry="0.0400" fill="currentColor"/>
</g>
<g transform="translate(64.3743, 6.1867)">
<path transform="scale(0.0040, -0.0040)" d="M0 -46c0 91 116 182 217 182c63 0 109 -35 109 -90c0 -87 -110 -182 -220 -182c-67 0 -106 39 -106 90z" fill="currentColor"/>
</g>
<g transform="translate(63.7973, 11.0273)">
<text font-family="serif" font-size="2.4697" text-anchor="start" fill="currentColor">
<tspan>で</tspan>
</text>
</g>
<g transform="translate(65.6135, 4.1867)">
<rect x="-0.0650" y="-1.5000" width="0.1300" height="3.3138" ry="0.0400" fill="currentColor"/>
</g>
<g transform="translate(67.3766, 4.1867)">
<path transform="scale(0.0040, -0.0040)" d="M70 205c79 0 46 -98 91 -98c16 0 54 48 61 63c3 6 8 9 14 9s12 -3 14 -9l-123 -420c-8 -7 -17 -10 -27 -10s-20 3 -28 10l117 326c-34 -12 -69 -22 -105 -22c-58 0 -85 41 -85 80c0 36 24 71 71 71z" fill="currentColor"/>
</g>
<g transform="translate(37.5246, 13.7723)">
<path transform="scale(0.0040, -0.0040)" d="M365 -156h-355c-6 0 -10 4 -10 10v136c0 6 4 10 10 10h355c6 0 10 -4 10 -10v-136c0 -6 -4 -10 -10 -10z" fill="currentColor"/>
</g>
<g transform="translate(69.1766, 7.1867)">
<path transform="scale(0.0040, -0.0040)" d="M0 -46c0 91 116 182 217 182c63 0 109 -35 109 -90c0 -87 -110 -182 -220 -182c-67 0 -106 39 -106 90z" fill="currentColor"/>
</g>
<g transform="translate(69.1766, 11.0273)">
<text font-family="serif" font-size="2.4697" text-anchor="start" fill="currentColor">
<tspan>あえ</tspan>
</text>
</g>
<g transform="translate(70.4158, 4.1867)">
<rect x="-0.0650" y="-0.5000" width="0.1300" height="3.3138" ry="0.0400" fill="currentColor"/>
</g>
<g transform="translate(70.4808, 3.7267)">
<path transform="scale(0.0040, -0.0040)" d="M0 0v-375h-16v375h16zM123 -729c0 10 42 87 42 196c0 103 -94 208 -165 283v250c0 -197 207 -336 207 -533c0 -71 -15 -141 -41 -207c-5 -8 -13 -12 -20 -12c-12 0 -23 9 -23 23z" fill="currentColor"/>
</g>
<g transform="translate(72.8340, 6.1867)">
<path transform="scale(0.0040, -0.0040)" d="M0 -46c0 91 116 182 217 182c63 0 109 -35 109 -90c0 -87 -110 -182 -220 -182c-67 0 -106 39 -106 90z" fill="currentColor"/>
</g>
<g transform="translate(24.5457, 13.7723)">
<path transform="scale(0.0040, -0.0040)" d="M365 -156h-355c-6 0 -10 4 -10 10v136c0 6 4 10 10 10h355c6 0 10 -4 10 -10v-136c0 -6 -4 -10 -10 -10z" fill="currentColor"/>
</g>
<g transform="translate(74.5882, 5.6867)">
<path transform="scale(0.0040, -0.0040)" d="M0 0c0 31 25 56 56 56s56 -25 56 -56s-25 -56 -56 -56s-56 25 -56 56z" fill="currentColor"/>
</g>
<g transform="translate(74.0732, 4.1867)">
<rect x="-0.0650" y="-1.5000" width="0.1300" height="3.3138" ry="0.0400" fill="currentColor"/>
</g>
<g transform="translate(76.7707, 4.1867)">
<path transform="scale(0.0040, -0.0040)" d="M0 -46c0 91 116 182 217 182c63 0 109 -35 109 -90c0 -87 -110 -182 -220 -182c-67 0 -106 39 -106 90z" fill="currentColor"/>
</g>
<g transform="translate(76.7707, 11.0273)">
<text font-family="serif" font-size="2.4697" text-anchor="start" fill="currentColor">
<tspan>るー</tspan>
</text>
</g>
<g transform="translate(76.8357, 4.1867)">
<rect x="-0.0650" y="0.1862" width="0.1300" height="3.1888" ry="0.0400" fill="currentColor"/>
</g>
<g transform="translate(76.9007, 7.5217)">
<path transform="scale(0.0040, -0.0040)" d="M0 0h-16v375h16v-375zM224 509c0 94 -40 158 -40 168c0 14 11 22 23 22c7 0 15 -3 20 -11c25 -56 40 -117 40 -179c0 -203 -267 -306 -267 -509v250c97 59 224 148 224 259z" fill="currentColor"/>
</g>
<g transform="translate(78.8749, 4.1867)">
<path transform="scale(0.0040, -0.0040)" d="M72 -106c40 0 204 110 231 143c7 9 11 19 11 28c0 22 -18 41 -42 41c-40 0 -204 -110 -231 -143c-7 -9 -10 -19 -10 -28c0 -22 17 -41 41 -41zM0 -67c0 71 46 203 258 203c41 0 86 -10 86 -69c0 -71 -46 -203 -258 -203c-41 0 -86 10 -86 69z" fill="currentColor"/>
</g>
<g transform="translate(78.9399, 4.1867)">
<rect x="-0.0650" y="0.2590" width="0.1300" height="3.0743" ry="0.0400" fill="currentColor"/>
</g>
<g transform="translate(-1.8149, 4.8368)">
<text font-family="serif" font-size="2.2000" text-anchor="start" fill="currentColor">
<tspan>星見純那</tspan>
</text>
</g>
</svg>
