<svg xmlns="http://www.w3.org/2000/svg" xmlns:xlink="http://www.w3.org/1999/xlink" version="1.2" width="187.27mm" height="72.06mm" viewBox="-4.1366 -0.0000 106.5665 41.0060">
<style type="text/css">
<![CDATA[
tspan { white-space: pre; }
]]>
</style>
<g transform="translate(39.6924, 4.1919)">
<rect x="0.0000" y="-2.0000" width="0.1900" height="4.0000" ry="0.0000" fill="currentColor"/>
</g>
<g transform="translate(8.5358, 6.1919)">
<line stroke-linejoin="round" stroke-linecap="round" stroke-width="0.1000" stroke="currentColor" x1="0.0500" y1="0" x2="93.8441" y2="0"/>
</g>
<g transform="translate(8.5358, 5.1919)">
<line stroke-linejoin="round" stroke-linecap="round" stroke-width="0.1000" stroke="currentColor" x1="0.0500" y1="0" x2="93.8441" y2="0"/>
</g>
<g transform="translate(8.5358, 4.1919)">
<line stroke-linejoin="round" stroke-linecap="round" stroke-width="0.1000" stroke="currentColor" x1="0.0500" y1="0" x2="93.8441" y2="0"/>
</g>
<g transform="translate(8.5358, 3.1919)">
<line stroke-linejoin="round" stroke-linecap="round" stroke-width="0.1000" stroke="currentColor" x1="0.0500" y1="0" x2="93.8441" y2="0"/>
</g>
<g transform="translate(8.5358, 2.1919)">
<line stroke-linejoin="round" stroke-linecap="round" stroke-width="0.1000" stroke="currentColor" x1="0.0500" y1="0" x2="93.8441" y2="0"/>
</g>
<g transform="translate(102.2399, 13.4182)">
<rect x="0.0000" y="-2.0000" width="0.1900" height="4.0000" ry="0.0000" fill="currentColor"/>
</g>
<g transform="translate(102.2399, 4.1919)">
<rect x="0.0000" y="-2.0000" width="0.1900" height="4.0000" ry="0.0000" fill="currentColor"/>
</g>
<g transform="translate(69.9354, 13.4182)">
<rect x="0.0000" y="-2.0000" width="0.1900" height="4.0000" ry="0.0000" fill="currentColor"/>
</g>
<g transform="translate(0.0000, 16.4182)">
<rect x="99.2325" y="-0.1000" width="1.9563" height="0.2000" ry="0.1000" fill="currentColor"/>
</g>
<g transform="translate(0.0000, 16.4182)">
<rect x="96.7653" y="-0.1000" width="1.9563" height="0.2000" ry="0.1000" fill="currentColor"/>
</g>
<g transform="translate(0.0000, 16.4182)">
<rect x="93.1353" y="-0.1000" width="1.9563" height="0.2000" ry="0.1000" fill="currentColor"/>
</g>
<g transform="translate(0.0000, 16.4182)">
<rect x="79.6174" y="-0.1000" width="1.9563" height="0.2000" ry="0.1000" fill="currentColor"/>
</g>
<g transform="translate(0.0000, 16.4182)">
<rect x="75.4799" y="-0.1000" width="1.9563" height="0.2000" ry="0.1000" fill="currentColor"/>
</g>
<g transform="translate(0.0000, 17.4182)">
<rect x="75.4799" y="-0.1000" width="1.9563" height="0.2000" ry="0.1000" fill="currentColor"/>
</g>
<g transform="translate(0.0000, 16.4182)">
<rect x="70.6870" y="-0.1000" width="1.9563" height="0.2000" ry="0.1000" fill="currentColor"/>
</g>
<g transform="translate(0.0000, 17.4182)">
<rect x="70.6870" y="-0.1000" width="1.9563" height="0.2000" ry="0.1000" fill="currentColor"/>
</g>
<g transform="translate(0.0000, 16.4182)">
<rect x="65.7293" y="-0.1000" width="1.9563" height="0.2000" ry="0.1000" fill="currentColor"/>
</g>
<g transform="translate(0.0000, 17.4182)">
<rect x="65.7293" y="-0.1000" width="1.9563" height="0.2000" ry="0.1000" fill="currentColor"/>
</g>
<g transform="translate(0.0000, 16.4182)">
<rect x="54.8392" y="-0.1000" width="1.9563" height="0.2000" ry="0.1000" fill="currentColor"/>
</g>
<g transform="translate(0.0000, 16.4182)">
<rect x="51.0841" y="-0.1000" width="1.9563" height="0.2000" ry="0.1000" fill="currentColor"/>
</g>
<g transform="translate(0.0000, 17.4182)">
<rect x="51.0841" y="-0.1000" width="1.9563" height="0.2000" ry="0.1000" fill="currentColor"/>
</g>
<g transform="translate(0.0000, 16.4182)">
<rect x="47.4541" y="-0.1000" width="1.9563" height="0.2000" ry="0.1000" fill="currentColor"/>
</g>
<g transform="translate(0.0000, 17.4182)">
<rect x="47.4541" y="-0.1000" width="1.9563" height="0.2000" ry="0.1000" fill="currentColor"/>
</g>
<g transform="translate(0.0000, 16.4182)">
<rect x="43.8240" y="-0.1000" width="1.9563" height="0.2000" ry="0.1000" fill="currentColor"/>
</g>
<g transform="translate(0.0000, 17.4182)">
<rect x="43.8240" y="-0.1000" width="1.9563" height="0.2000" ry="0.1000" fill="currentColor"/>
</g>
<g transform="translate(0.0000, 16.4182)">
<rect x="40.4440" y="-0.1000" width="1.9563" height="0.2000" ry="0.1000" fill="currentColor"/>
</g>
<g transform="translate(0.0000, 16.4182)">
<rect x="35.7363" y="-0.1000" width="1.9563" height="0.2000" ry="0.1000" fill="currentColor"/>
</g>
<g transform="translate(8.5358, 15.4182)">
<line stroke-linejoin="round" stroke-linecap="round" stroke-width="0.1000" stroke="currentColor" x1="0.0500" y1="0" x2="93.8441" y2="0"/>
</g>
<g transform="translate(8.5358, 14.4182)">
<line stroke-linejoin="round" stroke-linecap="round" stroke-width="0.1000" stroke="currentColor" x1="0.0500" y1="0" x2="93.8441" y2="0"/>
</g>
<g transform="translate(8.5358, 13.4182)">
<line stroke-linejoin="round" stroke-linecap="round" stroke-width="0.1000" stroke="currentColor" x1="0.0500" y1="0" x2="93.8441" y2="0"/>
</g>
<g transform="translate(8.5358, 12.4182)">
<line stroke-linejoin="round" stroke-linecap="round" stroke-width="0.1000" stroke="currentColor" x1="0.0500" y1="0" x2="93.8441" y2="0"/>
</g>
<g transform="translate(8.5358, 11.4182)">
<line stroke-linejoin="round" stroke-linecap="round" stroke-width="0.1000" stroke="currentColor" x1="0.0500" y1="0" x2="93.8441" y2="0"/>
</g>
<g transform="translate(69.9354, 4.1919)">
<rect x="0.0000" y="-2.0000" width="0.1900" height="4.0000" ry="0.0000" fill="currentColor"/>
</g>
<g transform="translate(39.6924, 13.4182)">
<rect x="0.0000" y="-2.0000" width="0.1900" height="4.0000" ry="0.0000" fill="currentColor"/>
</g>
<g transform="translate(8.4758, 8.8050)">
<rect x="0.0000" y="-6.6631" width="0.1600" height="13.3263" ry="0.0500" fill="currentColor"/>
</g>
<g transform="translate(99.5585, 4.1919)">
<path stroke-width="0.0800" stroke-linejoin="round" stroke-linecap="round" stroke="currentColor" fill="currentColor" d="M1.5042 2.5000C1.7765 2.8608 2.2091 2.8608 2.4814 2.5000L2.4814 2.5000C2.2091 2.7408 1.7765 2.7408 1.5042 2.5000z"/>
</g>
<g transform="translate(99.5585, 13.4182)">
<path stroke-width="0.0800" stroke-linejoin="round" stroke-linecap="round" stroke="currentColor" fill="currentColor" d="M1.5042 4.0000C1.7765 4.3608 2.2091 4.3608 2.4814 4.0000L2.4814 4.0000C2.2091 4.2408 1.7765 4.2408 1.5042 4.0000z"/>
</g>
<g transform="translate(94.6356, 13.2282)">
<polygon stroke-linejoin="round" stroke-linecap="round" stroke-width="0.0800" fill="currentColor" stroke="currentColor" points="6.1872 -0.0100 6.1872 0.3900 0.0400 0.2000 0.0400 -0.2000"/>
</g>
<g transform="translate(98.2656, 14.1489)">
<polygon stroke-linejoin="round" stroke-linecap="round" stroke-width="0.0800" fill="currentColor" stroke="currentColor" points="2.5571 -0.1208 2.5571 0.2792 0.0400 0.2000 0.0400 -0.2000"/>
</g>
<g transform="translate(94.6356, 2.1919)">
<polygon stroke-linejoin="round" stroke-linecap="round" stroke-width="0.0800" fill="currentColor" stroke="currentColor" points="6.1872 -0.0100 6.1872 0.3900 0.0400 0.2000 0.0400 -0.2000"/>
</g>
<g transform="translate(98.2656, 3.1127)">
<polygon stroke-linejoin="round" stroke-linecap="round" stroke-width="0.0800" fill="currentColor" stroke="currentColor" points="2.5571 -0.1208 2.5571 0.2792 0.0400 0.2000 0.0400 -0.2000"/>
</g>
<g transform="translate(22.1461, 4.1919)">
<path transform="scale(0.0040, -0.0040)" d="M365 0h-355c-6 0 -10 4 -10 10v136c0 6 4 10 10 10h355c6 0 10 -4 10 -10v-136c0 -6 -4 -10 -10 -10z" fill="currentColor"/>
</g>
<g transform="translate(9.3358, 5.1919)">
<path transform="scale(0.0040, -0.0040)" d="M266 -635h-6c-108 0 -195 88 -195 197c0 58 53 103 112 103c54 0 95 -47 95 -103c0 -52 -43 -95 -95 -95c-11 0 -21 2 -31 6c26 -39 68 -65 117 -65h4zM401 151c19 -89 48 -242 60 -354c76 27 112 94 112 163c0 89 -60 179 -172 191zM74 28c0 -112 98 -247 278 -247
c21 0 44 2 68 6c-7 64 -29 203 -63 364c-79 -8 -124 -61 -124 -119c0 -44 25 -91 81 -123c5 -5 7 -10 7 -15c0 -11 -10 -22 -22 -22c-15 0 -126 62 -126 187c0 88 58 174 160 197c-14 58 -29 117 -46 175c-107 -121 -213 -243 -213 -403zM357 1194c28 0 143 -206 143 -361
c0 -143 -86 -255 -180 -364c21 -68 39 -138 56 -207c5 0 10 1 14 1c155 0 255 -129 255 -262c0 -113 -74 -212 -180 -245c3 -35 5 -70 5 -105c0 -19 -1 -39 -2 -58c-7 -119 -88 -225 -202 -228l1 43c93 2 153 92 159 191c1 18 2 37 2 55c0 31 -1 61 -4 92
c-28 -5 -55 -8 -80 -8c-239 0 -342 217 -342 374c0 177 131 306 248 441c-29 96 -52 170 -52 346c0 189 144 295 159 295zM247 782c0 -55 12 -115 35 -190c82 100 147 202 147 326c0 40 -6 82 -21 127c-49 -24 -161 -97 -161 -263z" fill="currentColor"/>
</g>
<g transform="translate(12.8408, 4.1919)">
<path transform="scale(0.0040, -0.0040)" d="M27 41l-1 -66v-11c0 -22 1 -44 4 -66c45 38 93 80 93 139c0 33 -14 67 -43 67c-31 0 -52 -30 -53 -63zM-15 -138l-12 595c8 5 18 8 27 8s19 -3 27 -8l-7 -345c25 21 58 34 91 34c52 0 89 -48 89 -102c0 -80 -86 -117 -147 -169c-15 -13 -24 -38 -45 -38
c-13 0 -23 11 -23 25z" fill="currentColor"/>
</g>
<g transform="translate(13.7608, 2.6919)">
<path transform="scale(0.0040, -0.0040)" d="M27 41l-1 -66v-11c0 -22 1 -44 4 -66c45 38 93 80 93 139c0 33 -14 67 -43 67c-31 0 -52 -30 -53 -63zM-15 -138l-12 595c8 5 18 8 27 8s19 -3 27 -8l-7 -345c25 21 58 34 91 34c52 0 89 -48 89 -102c0 -80 -86 -117 -147 -169c-15 -13 -24 -38 -45 -38
c-13 0 -23 11 -23 25z" fill="currentColor"/>
</g>
<g transform="translate(14.6808, 4.6919)">
<path transform="scale(0.0040, -0.0040)" d="M27 41l-1 -66v-11c0 -22 1 -44 4 -66c45 38 93 80 93 139c0 33 -14 67 -43 67c-31 0 -52 -30 -53 -63zM-15 -138l-12 595c8 5 18 8 27 8s19 -3 27 -8l-7 -345c25 21 58 34 91 34c52 0 89 -48 89 -102c0 -80 -86 -117 -147 -169c-15 -13 -24 -38 -45 -38
c-13 0 -23 11 -23 25z" fill="currentColor"/>
</g>
<g transform="translate(15.6008, 3.1919)">
<path transform="scale(0.0040, -0.0040)" d="M27 41l-1 -66v-11c0 -22 1 -44 4 -66c45 38 93 80 93 139c0 33 -14 67 -43 67c-31 0 -52 -30 -53 -63zM-15 -138l-12 595c8 5 18 8 27 8s19 -3 27 -8l-7 -345c25 21 58 34 91 34c52 0 89 -48 89 -102c0 -80 -86 -117 -147 -169c-15 -13 -24 -38 -45 -38
c-13 0 -23 11 -23 25z" fill="currentColor"/>
</g>
<g transform="translate(16.5208, 5.1919)">
<path transform="scale(0.0040, -0.0040)" d="M27 41l-1 -66v-11c0 -22 1 -44 4 -66c45 38 93 80 93 139c0 33 -14 67 -43 67c-31 0 -52 -30 -53 -63zM-15 -138l-12 595c8 5 18 8 27 8s19 -3 27 -8l-7 -345c25 21 58 34 91 34c52 0 89 -48 89 -102c0 -80 -86 -117 -147 -169c-15 -13 -24 -38 -45 -38
c-13 0 -23 11 -23 25z" fill="currentColor"/>
</g>
<g transform="translate(18.4708, 4.1919)">
<path transform="scale(0.0040, -0.0040)" d="M433 -89c0 -22 -50 -174 -183 -174c-59 0 -250 19 -250 263c0 62 18 262 250 262c116 0 176 -106 176 -163c0 -40 -30 -72 -67 -72c-31 0 -75 25 -75 75c0 38 27 77 72 77c4 0 9 0 14 -1c-28 37 -72 59 -120 59c-106 0 -113 -73 -113 -186v-51v-51
c0 -113 7 -187 113 -187c80 0 139 70 158 151c2 7 7 10 12 10c6 0 13 -4 13 -12z" fill="currentColor"/>
</g>
<g transform="translate(22.1461, 13.4182)">
<path transform="scale(0.0040, -0.0040)" d="M365 0h-355c-6 0 -10 4 -10 10v136c0 6 4 10 10 10h355c6 0 10 -4 10 -10v-136c0 -6 -4 -10 -10 -10z" fill="currentColor"/>
</g>
<g transform="translate(9.3358, 14.4182)">
<path transform="scale(0.0040, -0.0040)" d="M266 -635h-6c-108 0 -195 88 -195 197c0 58 53 103 112 103c54 0 95 -47 95 -103c0 -52 -43 -95 -95 -95c-11 0 -21 2 -31 6c26 -39 68 -65 117 -65h4zM401 151c19 -89 48 -242 60 -354c76 27 112 94 112 163c0 89 -60 179 -172 191zM74 28c0 -112 98 -247 278 -247
c21 0 44 2 68 6c-7 64 -29 203 -63 364c-79 -8 -124 -61 -124 -119c0 -44 25 -91 81 -123c5 -5 7 -10 7 -15c0 -11 -10 -22 -22 -22c-15 0 -126 62 -126 187c0 88 58 174 160 197c-14 58 -29 117 -46 175c-107 -121 -213 -243 -213 -403zM357 1194c28 0 143 -206 143 -361
c0 -143 -86 -255 -180 -364c21 -68 39 -138 56 -207c5 0 10 1 14 1c155 0 255 -129 255 -262c0 -113 -74 -212 -180 -245c3 -35 5 -70 5 -105c0 -19 -1 -39 -2 -58c-7 -119 -88 -225 -202 -228l1 43c93 2 153 92 159 191c1 18 2 37 2 55c0 31 -1 61 -4 92
c-28 -5 -55 -8 -80 -8c-239 0 -342 217 -342 374c0 177 131 306 248 441c-29 96 -52 170 -52 346c0 189 144 295 159 295zM247 782c0 -55 12 -115 35 -190c82 100 147 202 147 326c0 40 -6 82 -21 127c-49 -24 -161 -97 -161 -263z" fill="currentColor"/>
</g>
<g transform="translate(12.8408, 13.4182)">
<path transform="scale(0.0040, -0.0040)" d="M27 41l-1 -66v-11c0 -22 1 -44 4 -66c45 38 93 80 93 139c0 33 -14 67 -43 67c-31 0 -52 -30 -53 -63zM-15 -138l-12 595c8 5 18 8 27 8s19 -3 27 -8l-7 -345c25 21 58 34 91 34c52 0 89 -48 89 -102c0 -80 -86 -117 -147 -169c-15 -13 -24 -38 -45 -38
c-13 0 -23 11 -23 25z" fill="currentColor"/>
</g>
<g transform="translate(13.7608, 11.9182)">
<path transform="scale(0.0040, -0.0040)" d="M27 41l-1 -66v-11c0 -22 1 -44 4 -66c45 38 93 80 93 139c0 33 -14 67 -43 67c-31 0 -52 -30 -53 -63zM-15 -138l-12 595c8 5 18 8 27 8s19 -3 27 -8l-7 -345c25 21 58 34 91 34c52 0 89 -48 89 -102c0 -80 -86 -117 -147 -169c-15 -13 -24 -38 -45 -38
c-13 0 -23 11 -23 25z" fill="currentColor"/>
</g>
<g transform="translate(14.6808, 13.9182)">
<path transform="scale(0.0040, -0.0040)" d="M27 41l-1 -66v-11c0 -22 1 -44 4 -66c45 38 93 80 93 139c0 33 -14 67 -43 67c-31 0 -52 -30 -53 -63zM-15 -138l-12 595c8 5 18 8 27 8s19 -3 27 -8l-7 -345c25 21 58 34 91 34c52 0 89 -48 89 -102c0 -80 -86 -117 -147 -169c-15 -13 -24 -38 -45 -38
c-13 0 -23 11 -23 25z" fill="currentColor"/>
</g>
<g transform="translate(15.6008, 12.4182)">
<path transform="scale(0.0040, -0.0040)" d="M27 41l-1 -66v-11c0 -22 1 -44 4 -66c45 38 93 80 93 139c0 33 -14 67 -43 67c-31 0 -52 -30 -53 -63zM-15 -138l-12 595c8 5 18 8 27 8s19 -3 27 -8l-7 -345c25 21 58 34 91 34c52 0 89 -48 89 -102c0 -80 -86 -117 -147 -169c-15 -13 -24 -38 -45 -38
c-13 0 -23 11 -23 25z" fill="currentColor"/>
</g>
<g transform="translate(16.5208, 14.4182)">
<path transform="scale(0.0040, -0.0040)" d="M27 41l-1 -66v-11c0 -22 1 -44 4 -66c45 38 93 80 93 139c0 33 -14 67 -43 67c-31 0 -52 -30 -53 -63zM-15 -138l-12 595c8 5 18 8 27 8s19 -3 27 -8l-7 -345c25 21 58 34 91 34c52 0 89 -48 89 -102c0 -80 -86 -117 -147 -169c-15 -13 -24 -38 -45 -38
c-13 0 -23 11 -23 25z" fill="currentColor"/>
</g>
<g transform="translate(18.4708, 13.4182)">
<path transform="scale(0.0040, -0.0040)" d="M433 -89c0 -22 -50 -174 -183 -174c-59 0 -250 19 -250 263c0 62 18 262 250 262c116 0 176 -106 176 -163c0 -40 -30 -72 -67 -72c-31 0 -75 25 -75 75c0 38 27 77 72 77c4 0 9 0 14 -1c-28 37 -72 59 -120 59c-106 0 -113 -73 -113 -186v-51v-51
c0 -113 7 -187 113 -187c80 0 139 70 158 151c2 7 7 10 12 10c6 0 13 -4 13 -12z" fill="currentColor"/>
</g>
<g transform="translate(6.0775, 1.2188)">
<text font-family="serif" font-size="1.7459" text-anchor="start" fill="currentColor">
<tspan>161</tspan>
</text>
</g>
<g transform="translate(28.2978, 4.1919)">
<path transform="scale(0.0040, -0.0040)" d="M-6 78c0 59 124 83 124 182c0 24 -8 49 -25 69l-35 42c-3 3 -4 7 -4 10c0 9 9 15 17 15c4 0 8 -1 11 -5l151 -180c7 -9 10 -17 10 -25c0 -59 -124 -83 -124 -182c0 -24 7 -49 24 -69l84 -99c3 -3 4 -7 4 -10c0 -9 -8 -16 -16 -16s-45 44 -109 44c-16 0 -53 0 -53 -67
c0 -62 30 -97 30 -100c0 -4 -4 -7 -8 -7c-13 0 -98 130 -98 204c0 41 27 42 40 42c33 0 78 -13 119 -31l-132 158c-7 9 -10 17 -10 25z" fill="currentColor"/>
</g>
<g transform="translate(28.2978, 13.4182)">
<path transform="scale(0.0040, -0.0040)" d="M-6 78c0 59 124 83 124 182c0 24 -8 49 -25 69l-35 42c-3 3 -4 7 -4 10c0 9 9 15 17 15c4 0 8 -1 11 -5l151 -180c7 -9 10 -17 10 -25c0 -59 -124 -83 -124 -182c0 -24 7 -49 24 -69l84 -99c3 -3 4 -7 4 -10c0 -9 -8 -16 -16 -16s-45 44 -109 44c-16 0 -53 0 -53 -67
c0 -62 30 -97 30 -100c0 -4 -4 -7 -8 -7c-13 0 -98 130 -98 204c0 41 27 42 40 42c33 0 78 -13 119 -31l-132 158c-7 9 -10 17 -10 25z" fill="currentColor"/>
</g>
<g transform="translate(32.7365, 4.1919)">
<path transform="scale(0.0040, -0.0040)" d="M70 205c79 0 46 -98 91 -98c16 0 54 48 61 63c3 6 8 9 14 9s12 -3 14 -9l-123 -420c-8 -7 -17 -10 -27 -10s-20 3 -28 10l117 326c-34 -12 -69 -22 -105 -22c-58 0 -85 41 -85 80c0 36 24 71 71 71z" fill="currentColor"/>
</g>
<g transform="translate(32.7365, 13.4182)">
<path transform="scale(0.0040, -0.0040)" d="M70 205c79 0 46 -98 91 -98c16 0 54 48 61 63c3 6 8 9 14 9s12 -3 14 -9l-123 -420c-8 -7 -17 -10 -27 -10s-20 3 -28 10l117 326c-34 -12 -69 -22 -105 -22c-58 0 -85 41 -85 80c0 36 24 71 71 71z" fill="currentColor"/>
</g>
<g transform="translate(36.0624, 5.1919)">
<path transform="scale(0.0040, -0.0040)" d="M0 -46c0 91 116 182 217 182c63 0 109 -35 109 -90c0 -87 -110 -182 -220 -182c-67 0 -106 39 -106 90z" fill="currentColor"/>
</g>
<g transform="translate(36.0624, 9.6706)">
<text font-family="serif" font-size="2.4697" text-anchor="start" fill="currentColor">
<tspan>ま</tspan>
</text>
</g>
<g transform="translate(36.0624, 16.4182)">
<path transform="scale(0.0040, -0.0040)" d="M0 -46c0 91 116 182 217 182c63 0 109 -35 109 -90c0 -87 -110 -182 -220 -182c-67 0 -106 39 -106 90z" fill="currentColor"/>
</g>
<g transform="translate(36.0624, 20.6105)">
<text font-family="serif" font-size="2.4697" text-anchor="start" fill="currentColor">
<tspan>ま</tspan>
</text>
</g>
<g transform="translate(37.3016, 4.1919)">
<rect x="-0.0650" y="-2.5000" width="0.1300" height="3.3138" ry="0.0400" fill="currentColor"/>
</g>
<g transform="translate(37.3666, 1.7319)">
<path transform="scale(0.0040, -0.0040)" d="M0 0v-375h-16v375h16zM123 -729c0 10 42 87 42 196c0 103 -94 208 -165 283v250c0 -197 207 -336 207 -533c0 -71 -15 -141 -41 -207c-5 -8 -13 -12 -20 -12c-12 0 -23 9 -23 23z" fill="currentColor"/>
</g>
<g transform="translate(37.3016, 13.4182)">
<rect x="-0.0650" y="-0.5000" width="0.1300" height="3.3138" ry="0.0400" fill="currentColor"/>
</g>
<g transform="translate(37.3666, 12.9582)">
<path transform="scale(0.0040, -0.0040)" d="M0 0v-375h-16v375h16zM123 -729c0 10 42 87 42 196c0 103 -94 208 -165 283v250c0 -197 207 -336 207 -533c0 -71 -15 -141 -41 -207c-5 -8 -13 -12 -20 -12c-12 0 -23 9 -23 23z" fill="currentColor"/>
</g>
<g transform="translate(76.9802, 13.4182)">
<polygon stroke-linejoin="round" stroke-linecap="round" stroke-width="0.0800" fill="currentColor" stroke="currentColor" points="10.0441 -1.0100 10.0441 -0.6100 0.0400 0.2000 0.0400 -0.2000"/>
</g>
<g transform="translate(76.9802, 14.2282)">
<polygon stroke-linejoin="round" stroke-linecap="round" stroke-width="0.0800" fill="currentColor" stroke="currentColor" points="10.0441 -1.0100 10.0441 -0.6100 0.0400 0.2000 0.0400 -0.2000"/>
</g>
<g transform="translate(40.7701, 5.1919)">
<path transform="scale(0.0040, -0.0040)" d="M0 -46c0 91 116 182 217 182c63 0 109 -35 109 -90c0 -87 -110 -182 -220 -182c-67 0 -106 39 -106 90z" fill="currentColor"/>
</g>
<g transform="translate(40.7701, 16.4182)">
<path transform="scale(0.0040, -0.0040)" d="M0 -46c0 91 116 182 217 182c63 0 109 -35 109 -90c0 -87 -110 -182 -220 -182c-67 0 -106 39 -106 90z" fill="currentColor"/>
</g>
<g transform="translate(42.0093, 4.1919)">
<rect x="-0.0650" y="-1.8063" width="0.1300" height="2.6201" ry="0.0400" fill="currentColor"/>
</g>
<g transform="translate(42.0093, 13.4182)">
<rect x="-0.0650" y="-0.1889" width="0.1300" height="3.0027" ry="0.0400" fill="currentColor"/>
</g>
<g transform="translate(44.1501, 6.1919)">
<path transform="scale(0.0040, -0.0040)" d="M0 -46c0 91 116 182 217 182c63 0 109 -35 109 -90c0 -87 -110 -182 -220 -182c-67 0 -106 39 -106 90z" fill="currentColor"/>
</g>
<g transform="translate(43.5730, 9.6706)">
<text font-family="serif" font-size="2.4697" text-anchor="start" fill="currentColor">
<tspan>ー</tspan>
</text>
</g>
<g transform="translate(44.1501, 17.4182)">
<path transform="scale(0.0040, -0.0040)" d="M0 -46c0 91 116 182 217 182c63 0 109 -35 109 -90c0 -87 -110 -182 -220 -182c-67 0 -106 39 -106 90z" fill="currentColor"/>
</g>
<g transform="translate(43.5730, 20.6105)">
<text font-family="serif" font-size="2.4697" text-anchor="start" fill="currentColor">
<tspan>ー</tspan>
</text>
</g>
<g transform="translate(45.3893, 4.1919)">
<rect x="-0.0650" y="-1.6117" width="0.1300" height="3.4255" ry="0.0400" fill="currentColor"/>
</g>
<g transform="translate(45.3893, 13.4182)">
<rect x="-0.0650" y="-0.1292" width="0.1300" height="3.9430" ry="0.0400" fill="currentColor"/>
</g>
<g transform="translate(76.9802, 3.3819)">
<polygon stroke-linejoin="round" stroke-linecap="round" stroke-width="0.0800" fill="currentColor" stroke="currentColor" points="10.0441 -1.3900 10.0441 -0.9900 0.0400 0.2000 0.0400 -0.2000"/>
</g>
<g transform="translate(76.9802, 4.1919)">
<polygon stroke-linejoin="round" stroke-linecap="round" stroke-width="0.0800" fill="currentColor" stroke="currentColor" points="10.0441 -1.3900 10.0441 -0.9900 0.0400 0.2000 0.0400 -0.2000"/>
</g>
<g transform="translate(47.7801, 6.6919)">
<path transform="scale(0.0040, -0.0040)" d="M0 -46c0 91 116 182 217 182c63 0 109 -35 109 -90c0 -87 -110 -182 -220 -182c-67 0 -106 39 -106 90z" fill="currentColor"/>
</g>
<g transform="translate(47.2031, 9.6706)">
<text font-family="serif" font-size="2.4697" text-anchor="start" fill="currentColor">
<tspan>る</tspan>
</text>
</g>
<g transform="translate(47.7801, 17.9182)">
<path transform="scale(0.0040, -0.0040)" d="M0 -46c0 91 116 182 217 182c63 0 109 -35 109 -90c0 -87 -110 -182 -220 -182c-67 0 -106 39 -106 90z" fill="currentColor"/>
</g>
<g transform="translate(47.2031, 20.6105)">
<text font-family="serif" font-size="2.4697" text-anchor="start" fill="currentColor">
<tspan>る</tspan>
</text>
</g>
<g transform="translate(49.0193, 4.1919)">
<rect x="-0.0650" y="-1.4027" width="0.1300" height="3.7165" ry="0.0400" fill="currentColor"/>
</g>
<g transform="translate(49.0193, 13.4182)">
<rect x="-0.0650" y="-0.0652" width="0.1300" height="4.3790" ry="0.0400" fill="currentColor"/>
</g>
<g transform="translate(51.4102, 6.1919)">
<path transform="scale(0.0040, -0.0040)" d="M0 -46c0 91 116 182 217 182c63 0 109 -35 109 -90c0 -87 -110 -182 -220 -182c-67 0 -106 39 -106 90z" fill="currentColor"/>
</g>
<g transform="translate(50.8331, 9.6706)">
<text font-family="serif" font-size="2.4697" text-anchor="start" fill="currentColor">
<tspan>で</tspan>
</text>
</g>
<g transform="translate(51.4102, 17.4182)">
<path transform="scale(0.0040, -0.0040)" d="M0 -46c0 91 116 182 217 182c63 0 109 -35 109 -90c0 -87 -110 -182 -220 -182c-67 0 -106 39 -106 90z" fill="currentColor"/>
</g>
<g transform="translate(50.8331, 20.6105)">
<text font-family="serif" font-size="2.4697" text-anchor="start" fill="currentColor">
<tspan>で</tspan>
</text>
</g>
<g transform="translate(52.6494, 4.1919)">
<rect x="-0.0650" y="-1.1937" width="0.1300" height="3.0075" ry="0.0400" fill="currentColor"/>
</g>
<g transform="translate(52.6494, 13.4182)">
<rect x="-0.0650" y="-0.0011" width="0.1300" height="3.8149" ry="0.0400" fill="currentColor"/>
</g>
<g transform="translate(55.1652, 5.6919)">
<path transform="scale(0.0040, -0.0040)" d="M0 -46c0 91 116 182 217 182c63 0 109 -35 109 -90c0 -87 -110 -182 -220 -182c-67 0 -106 39 -106 90z" fill="currentColor"/>
</g>
<g transform="translate(54.5882, 9.6706)">
<text font-family="serif" font-size="2.4697" text-anchor="start" fill="currentColor">
<tspan>な</tspan>
</text>
</g>
<g transform="translate(55.1652, 16.4182)">
<path transform="scale(0.0040, -0.0040)" d="M0 -46c0 91 116 182 217 182c63 0 109 -35 109 -90c0 -87 -110 -182 -220 -182c-67 0 -106 39 -106 90z" fill="currentColor"/>
</g>
<g transform="translate(54.5882, 20.6105)">
<text font-family="serif" font-size="2.4697" text-anchor="start" fill="currentColor">
<tspan>な</tspan>
</text>
</g>
<g transform="translate(56.4044, 4.1919)">
<rect x="-0.0650" y="-2.0000" width="0.1300" height="3.3138" ry="0.0400" fill="currentColor"/>
</g>
<g transform="translate(56.4044, 13.4182)">
<rect x="-0.0650" y="-0.8100" width="0.1300" height="3.6238" ry="0.0400" fill="currentColor"/>
</g>
<g transform="translate(59.0453, 4.6919)">
<path transform="scale(0.0040, -0.0040)" d="M0 -46c0 91 116 182 217 182c63 0 109 -35 109 -90c0 -87 -110 -182 -220 -182c-67 0 -106 39 -106 90z" fill="currentColor"/>
</g>
<g transform="translate(58.4682, 9.6706)">
<text font-family="serif" font-size="2.4697" text-anchor="start" fill="currentColor">
<tspan>が</tspan>
</text>
</g>
<g transform="translate(59.0453, 15.4182)">
<path transform="scale(0.0040, -0.0040)" d="M0 -46c0 91 116 182 217 182c63 0 109 -35 109 -90c0 -87 -110 -182 -220 -182c-67 0 -106 39 -106 90z" fill="currentColor"/>
</g>
<g transform="translate(58.4682, 20.6105)">
<text font-family="serif" font-size="2.4697" text-anchor="start" fill="currentColor">
<tspan>が</tspan>
</text>
</g>
<g transform="translate(60.2845, 4.1919)">
<rect x="-0.0650" y="-2.0000" width="0.1300" height="2.3138" ry="0.0400" fill="currentColor"/>
</g>
<g transform="translate(60.2845, 13.4182)">
<rect x="-0.0650" y="-0.8100" width="0.1300" height="2.6238" ry="0.0400" fill="currentColor"/>
</g>
<g transform="translate(62.6753, 5.1919)">
<path transform="scale(0.0040, -0.0040)" d="M0 -46c0 91 116 182 217 182c63 0 109 -35 109 -90c0 -87 -110 -182 -220 -182c-67 0 -106 39 -106 90z" fill="currentColor"/>
</g>
<g transform="translate(62.0982, 9.6706)">
<text font-family="serif" font-size="2.4697" text-anchor="start" fill="currentColor">
<tspan>れ</tspan>
</text>
</g>
<g transform="translate(62.6753, 15.9182)">
<path transform="scale(0.0040, -0.0040)" d="M0 -46c0 91 116 182 217 182c63 0 109 -35 109 -90c0 -87 -110 -182 -220 -182c-67 0 -106 39 -106 90z" fill="currentColor"/>
</g>
<g transform="translate(62.0982, 20.6105)">
<text font-family="serif" font-size="2.4697" text-anchor="start" fill="currentColor">
<tspan>れ</tspan>
</text>
</g>
<g transform="translate(63.9145, 4.1919)">
<rect x="-0.0650" y="-2.0000" width="0.1300" height="2.8138" ry="0.0400" fill="currentColor"/>
</g>
<g transform="translate(63.9145, 13.4182)">
<rect x="-0.0650" y="-0.8100" width="0.1300" height="3.1238" ry="0.0400" fill="currentColor"/>
</g>
<g transform="translate(66.0553, 6.6919)">
<path transform="scale(0.0040, -0.0040)" d="M0 -46c0 91 116 182 217 182c63 0 109 -35 109 -90c0 -87 -110 -182 -220 -182c-67 0 -106 39 -106 90z" fill="currentColor"/>
</g>
<g transform="translate(65.4783, 9.6706)">
<text font-family="serif" font-size="2.4697" text-anchor="start" fill="currentColor">
<tspan>ぼ</tspan>
</text>
</g>
<g transform="translate(66.0553, 17.4182)">
<path transform="scale(0.0040, -0.0040)" d="M0 -46c0 91 116 182 217 182c63 0 109 -35 109 -90c0 -87 -110 -182 -220 -182c-67 0 -106 39 -106 90z" fill="currentColor"/>
</g>
<g transform="translate(65.4783, 20.6105)">
<text font-family="serif" font-size="2.4697" text-anchor="start" fill="currentColor">
<tspan>ぼ</tspan>
</text>
</g>
<g transform="translate(67.2945, 4.1919)">
<rect x="-0.0650" y="-2.0000" width="0.1300" height="4.3138" ry="0.0400" fill="currentColor"/>
</g>
<g transform="translate(67.2945, 13.4182)">
<rect x="-0.0650" y="-0.8100" width="0.1300" height="4.6238" ry="0.0400" fill="currentColor"/>
</g>
<g transform="translate(7.2258, 1.9169)">
<path transform="scale(0.0040, -0.0040)" d="M0 -56v87c0 14 11 25 25 25h50c159 0 271 136 362 270c3 5 8 7 12 7c8 0 17 -7 17 -16c0 -3 -1 -6 -3 -9c-99 -144 -215 -364 -388 -364h-75z" fill="currentColor"/>
</g>
<g transform="translate(7.2258, 15.6932)">
<path transform="scale(0.0040, -0.0040)" d="M0 56h75c173 0 289 -220 388 -364c2 -3 3 -6 3 -9c0 -9 -9 -16 -17 -16c-4 0 -9 2 -12 7c-91 134 -203 270 -362 270h-50c-14 0 -25 11 -25 25v87z" fill="currentColor"/>
</g>
<g transform="translate(7.2258, 8.8050)">
<rect x="0.0000" y="-6.7081" width="0.4500" height="13.4163" ry="0.0000" fill="currentColor"/>
</g>
<g transform="translate(71.0130, 6.6919)">
<path transform="scale(0.0040, -0.0040)" d="M0 -46c0 91 116 182 217 182c63 0 109 -35 109 -90c0 -87 -110 -182 -220 -182c-67 0 -106 39 -106 90z" fill="currentColor"/>
</g>
<g transform="translate(0.5922, 14.2234)">
<text font-family="serif" font-size="2.2000" text-anchor="start" fill="currentColor">
<tspan>Vo.2</tspan>
</text>
</g>
<g transform="translate(70.4360, 9.6706)">
<text font-family="serif" font-size="2.4697" text-anchor="start" fill="currentColor">
<tspan>し</tspan>
</text>
</g>
<g transform="translate(71.0130, 17.4182)">
<path transform="scale(0.0040, -0.0040)" d="M0 -46c0 91 116 182 217 182c63 0 109 -35 109 -90c0 -87 -110 -182 -220 -182c-67 0 -106 39 -106 90z" fill="currentColor"/>
</g>
<g transform="translate(70.4360, 20.6105)">
<text font-family="serif" font-size="2.4697" text-anchor="start" fill="currentColor">
<tspan>し</tspan>
</text>
</g>
<g transform="translate(72.2522, 4.1919)">
<rect x="-0.0650" y="-1.0000" width="0.1300" height="3.3138" ry="0.0400" fill="currentColor"/>
</g>
<g transform="translate(72.2522, 13.4182)">
<rect x="-0.0650" y="-0.0000" width="0.1300" height="3.8138" ry="0.0400" fill="currentColor"/>
</g>
<g transform="translate(75.8060, 6.6919)">
<path transform="scale(0.0040, -0.0040)" d="M0 -46c0 91 116 182 217 182c63 0 109 -35 109 -90c0 -87 -110 -182 -220 -182c-67 0 -106 39 -106 90z" fill="currentColor"/>
</g>
<g transform="translate(73.9998, 9.6706)">
<text font-family="serif" font-size="2.4697" text-anchor="start" fill="currentColor">
<tspan>のー</tspan>
</text>
</g>
<g transform="translate(75.8060, 17.4182)">
<path transform="scale(0.0040, -0.0040)" d="M0 -46c0 91 116 182 217 182c63 0 109 -35 109 -90c0 -87 -110 -182 -220 -182c-67 0 -106 39 -106 90z" fill="currentColor"/>
</g>
<g transform="translate(73.9998, 20.6105)">
<text font-family="serif" font-size="2.4697" text-anchor="start" fill="currentColor">
<tspan>のー</tspan>
</text>
</g>
<g transform="translate(77.0452, 4.1919)">
<rect x="-0.0650" y="-0.8177" width="0.1300" height="3.1315" ry="0.0400" fill="currentColor"/>
</g>
<g transform="translate(77.0452, 13.4182)">
<rect x="-0.0650" y="-0.0052" width="0.1300" height="3.8190" ry="0.0400" fill="currentColor"/>
</g>
<g transform="translate(79.9434, 6.1919)">
<path transform="scale(0.0040, -0.0040)" d="M0 -46c0 91 116 182 217 182c63 0 109 -35 109 -90c0 -87 -110 -182 -220 -182c-67 0 -106 39 -106 90z" fill="currentColor"/>
</g>
<g transform="translate(79.3664, 9.6706)">
<text font-family="serif" font-size="2.4697" text-anchor="start" fill="currentColor">
<tspan>よ</tspan>
</text>
</g>
<g transform="translate(79.9434, 16.9182)">
<path transform="scale(0.0040, -0.0040)" d="M0 -46c0 91 116 182 217 182c63 0 109 -35 109 -90c0 -87 -110 -182 -220 -182c-67 0 -106 39 -106 90z" fill="currentColor"/>
</g>
<g transform="translate(79.3664, 20.6105)">
<text font-family="serif" font-size="2.4697" text-anchor="start" fill="currentColor">
<tspan>よ</tspan>
</text>
</g>
<g transform="translate(81.1826, 4.1919)">
<rect x="-0.0650" y="-1.3059" width="0.1300" height="3.1197" ry="0.0400" fill="currentColor"/>
</g>
<g transform="translate(81.1826, 13.4182)">
<rect x="-0.0650" y="-0.3376" width="0.1300" height="3.6514" ry="0.0400" fill="currentColor"/>
</g>
<g transform="translate(82.8518, 5.1919)">
<path transform="scale(0.0040, -0.0040)" d="M0 -46c0 91 116 182 217 182c63 0 109 -35 109 -90c0 -87 -110 -182 -220 -182c-67 0 -106 39 -106 90z" fill="currentColor"/>
</g>
<g transform="translate(82.2747, 9.6706)">
<text font-family="serif" font-size="2.4697" text-anchor="start" fill="currentColor">
<tspan>う</tspan>
</text>
</g>
<g transform="translate(82.8518, 15.9182)">
<path transform="scale(0.0040, -0.0040)" d="M0 -46c0 91 116 182 217 182c63 0 109 -35 109 -90c0 -87 -110 -182 -220 -182c-67 0 -106 39 -106 90z" fill="currentColor"/>
</g>
<g transform="translate(82.2747, 20.6105)">
<text font-family="serif" font-size="2.4697" text-anchor="start" fill="currentColor">
<tspan>う</tspan>
</text>
</g>
<g transform="translate(84.0910, 4.1919)">
<rect x="-0.0650" y="-1.6491" width="0.1300" height="2.4629" ry="0.0400" fill="currentColor"/>
</g>
<g transform="translate(84.0910, 13.4182)">
<rect x="-0.0650" y="-0.5712" width="0.1300" height="2.8850" ry="0.0400" fill="currentColor"/>
</g>
<g transform="translate(56.3394, 12.6082)">
<polygon stroke-linejoin="round" stroke-linecap="round" stroke-width="0.0800" fill="currentColor" stroke="currentColor" points="10.9801 -0.2000 10.9801 0.2000 0.0400 0.2000 0.0400 -0.2000"/>
</g>
<g transform="translate(85.7601, 4.6919)">
<path transform="scale(0.0040, -0.0040)" d="M0 -46c0 91 116 182 217 182c63 0 109 -35 109 -90c0 -87 -110 -182 -220 -182c-67 0 -106 39 -106 90z" fill="currentColor"/>
</g>
<g transform="translate(85.1830, 9.6706)">
<text font-family="serif" font-size="2.4697" text-anchor="start" fill="currentColor">
<tspan>な</tspan>
</text>
</g>
<g transform="translate(85.7601, 15.4182)">
<path transform="scale(0.0040, -0.0040)" d="M0 -46c0 91 116 182 217 182c63 0 109 -35 109 -90c0 -87 -110 -182 -220 -182c-67 0 -106 39 -106 90z" fill="currentColor"/>
</g>
<g transform="translate(85.1830, 20.6105)">
<text font-family="serif" font-size="2.4697" text-anchor="start" fill="currentColor">
<tspan>な</tspan>
</text>
</g>
<g transform="translate(86.9993, 4.1919)">
<rect x="-0.0650" y="-1.9923" width="0.1300" height="2.3061" ry="0.0400" fill="currentColor"/>
</g>
<g transform="translate(86.9993, 13.4182)">
<rect x="-0.0650" y="-0.8048" width="0.1300" height="2.6186" ry="0.0400" fill="currentColor"/>
</g>
<g transform="translate(88.6684, 5.1919)">
<path transform="scale(0.0040, -0.0040)" d="M0 -46c0 91 116 182 217 182c63 0 109 -35 109 -90c0 -87 -110 -182 -220 -182c-67 0 -106 39 -106 90z" fill="currentColor"/>
</g>
<g transform="translate(88.0913, 9.6706)">
<text font-family="serif" font-size="2.4697" text-anchor="start" fill="currentColor">
<tspan>ふ</tspan>
</text>
</g>
<g transform="translate(88.6684, 15.9182)">
<path transform="scale(0.0040, -0.0040)" d="M0 -46c0 91 116 182 217 182c63 0 109 -35 109 -90c0 -87 -110 -182 -220 -182c-67 0 -106 39 -106 90z" fill="currentColor"/>
</g>
<g transform="translate(88.0913, 20.6105)">
<text font-family="serif" font-size="2.4697" text-anchor="start" fill="currentColor">
<tspan>ふ</tspan>
</text>
</g>
<g transform="translate(89.9076, 4.1919)">
<rect x="-0.0650" y="-2.5000" width="0.1300" height="3.3138" ry="0.0400" fill="currentColor"/>
</g>
<g transform="translate(89.9076, 13.4182)">
<rect x="-0.0650" y="-1.0000" width="0.1300" height="3.3138" ry="0.0400" fill="currentColor"/>
</g>
<g transform="translate(56.3394, 2.1919)">
<polygon stroke-linejoin="round" stroke-linecap="round" stroke-width="0.0800" fill="currentColor" stroke="currentColor" points="10.9801 -0.2000 10.9801 0.2000 0.0400 0.2000 0.0400 -0.2000"/>
</g>
<g transform="translate(93.4614, 5.6919)">
<path transform="scale(0.0040, -0.0040)" d="M0 -46c0 91 116 182 217 182c63 0 109 -35 109 -90c0 -87 -110 -182 -220 -182c-67 0 -106 39 -106 90z" fill="currentColor"/>
</g>
<g transform="translate(92.8843, 9.6706)">
<text font-family="serif" font-size="2.4697" text-anchor="start" fill="currentColor">
<tspan>た</tspan>
</text>
</g>
<g transform="translate(93.4614, 16.4182)">
<path transform="scale(0.0040, -0.0040)" d="M0 -46c0 91 116 182 217 182c63 0 109 -35 109 -90c0 -87 -110 -182 -220 -182c-67 0 -106 39 -106 90z" fill="currentColor"/>
</g>
<g transform="translate(92.8843, 20.6105)">
<text font-family="serif" font-size="2.4697" text-anchor="start" fill="currentColor">
<tspan>た</tspan>
</text>
</g>
<g transform="translate(94.7006, 4.1919)">
<rect x="-0.0650" y="-1.9980" width="0.1300" height="3.3118" ry="0.0400" fill="currentColor"/>
</g>
<g transform="translate(94.7006, 13.4182)">
<rect x="-0.0650" y="-0.1880" width="0.1300" height="3.0018" ry="0.0400" fill="currentColor"/>
</g>
<g transform="translate(97.0914, 6.1919)">
<path transform="scale(0.0040, -0.0040)" d="M0 -46c0 91 116 182 217 182c63 0 109 -35 109 -90c0 -87 -110 -182 -220 -182c-67 0 -106 39 -106 90z" fill="currentColor"/>
</g>
<g transform="translate(96.5143, 9.6706)">
<text font-family="serif" font-size="2.4697" text-anchor="start" fill="currentColor">
<tspan>り</tspan>
</text>
</g>
<g transform="translate(97.0914, 16.9182)">
<path transform="scale(0.0040, -0.0040)" d="M0 -46c0 91 116 182 217 182c63 0 109 -35 109 -90c0 -87 -110 -182 -220 -182c-67 0 -106 39 -106 90z" fill="currentColor"/>
</g>
<g transform="translate(96.5143, 20.6105)">
<text font-family="serif" font-size="2.4697" text-anchor="start" fill="currentColor">
<tspan>り</tspan>
</text>
</g>
<g transform="translate(98.3306, 4.1919)">
<rect x="-0.0650" y="-1.8873" width="0.1300" height="3.7011" ry="0.0400" fill="currentColor"/>
</g>
<g transform="translate(98.3306, 13.4182)">
<rect x="-0.0650" y="-0.0773" width="0.1300" height="3.3911" ry="0.0400" fill="currentColor"/>
</g>
<g transform="translate(99.5585, 6.1919)">
<path transform="scale(0.0040, -0.0040)" d="M0 -46c0 91 116 182 217 182c63 0 109 -35 109 -90c0 -87 -110 -182 -220 -182c-67 0 -106 39 -106 90z" fill="currentColor"/>
</g>
<g transform="translate(99.5585, 9.6706)">
<text font-family="serif" font-size="2.4697" text-anchor="start" fill="currentColor">
<tspan>だ</tspan>
</text>
</g>
<g transform="translate(99.5585, 16.9182)">
<path transform="scale(0.0040, -0.0040)" d="M0 -46c0 91 116 182 217 182c63 0 109 -35 109 -90c0 -87 -110 -182 -220 -182c-67 0 -106 39 -106 90z" fill="currentColor"/>
</g>
<g transform="translate(99.5585, 20.6105)">
<text font-family="serif" font-size="2.4697" text-anchor="start" fill="currentColor">
<tspan>だ</tspan>
</text>
</g>
<g transform="translate(100.7977, 4.1919)">
<rect x="-0.0650" y="-1.8120" width="0.1300" height="3.6258" ry="0.0400" fill="currentColor"/>
</g>
<g transform="translate(100.7977, 13.4182)">
<rect x="-0.0650" y="-0.0020" width="0.1300" height="3.3158" ry="0.0400" fill="currentColor"/>
</g>
<g transform="translate(0.5922, 4.9982)">
<text font-family="serif" font-size="2.2000" text-anchor="start" fill="currentColor">
<tspan>Vo.1</tspan>
</text>
</g>
<g transform="translate(36.0624, 4.1919)">
<path stroke-width="0.0800" stroke-linejoin="round" stroke-linecap="round" stroke="currentColor" fill="currentColor" d="M1.5042 1.2171C2.1569 1.9162 3.8550 1.9162 4.5077 1.2171L4.5077 1.2171C3.8550 1.7962 2.1569 1.7962 1.5042 1.2171z"/>
</g>
<g transform="translate(36.0624, 13.4182)">
<path stroke-width="0.0800" stroke-linejoin="round" stroke-linecap="round" stroke="currentColor" fill="currentColor" d="M0.8521 3.7500C1.6720 4.5441 4.3399 4.5441 5.1598 3.7500L5.1598 3.7500C4.3399 4.4241 1.6720 4.4241 0.8521 3.7500z"/>
</g>
<g transform="translate(41.9443, 2.3819)">
<polygon stroke-linejoin="round" stroke-linecap="round" stroke-width="0.0800" fill="currentColor" stroke="currentColor" points="10.7301 0.4200 10.7301 0.8200 0.0400 0.2000 0.0400 -0.2000"/>
</g>
<g transform="translate(41.9443, 13.2282)">
<polygon stroke-linejoin="round" stroke-linecap="round" stroke-width="0.0800" fill="currentColor" stroke="currentColor" points="10.7301 -0.0100 10.7301 0.3900 0.0400 0.2000 0.0400 -0.2000"/>
</g>
<g transform="translate(45.8226, 25.0000)">
<rect x="0.0000" y="-2.0000" width="0.1900" height="4.0000" ry="0.0000" fill="currentColor"/>
</g>
<g transform="translate(0.0000, 27.0000)">
<line stroke-linejoin="round" stroke-linecap="round" stroke-width="0.1000" stroke="currentColor" x1="0.0500" y1="0" x2="102.3799" y2="0"/>
</g>
<g transform="translate(0.0000, 26.0000)">
<line stroke-linejoin="round" stroke-linecap="round" stroke-width="0.1000" stroke="currentColor" x1="0.0500" y1="0" x2="102.3799" y2="0"/>
</g>
<g transform="translate(0.0000, 25.0000)">
<line stroke-linejoin="round" stroke-linecap="round" stroke-width="0.1000" stroke="currentColor" x1="0.0500" y1="0" x2="102.3799" y2="0"/>
</g>
<g transform="translate(0.0000, 24.0000)">
<line stroke-linejoin="round" stroke-linecap="round" stroke-width="0.1000" stroke="currentColor" x1="0.0500" y1="0" x2="102.3799" y2="0"/>
</g>
<g transform="translate(0.0000, 23.0000)">
<line stroke-linejoin="round" stroke-linecap="round" stroke-width="0.1000" stroke="currentColor" x1="0.0500" y1="0" x2="102.3799" y2="0"/>
</g>
<g transform="translate(102.2399, 34.4112)">
<rect x="0.0000" y="-2.0000" width="0.1900" height="4.0000" ry="0.0000" fill="currentColor"/>
</g>
<g transform="translate(102.2399, 25.0000)">
<rect x="0.0000" y="-2.0000" width="0.1900" height="4.0000" ry="0.0000" fill="currentColor"/>
</g>
<g transform="translate(90.5583, 34.4112)">
<rect x="0.0000" y="-2.0000" width="0.1900" height="4.0000" ry="0.0000" fill="currentColor"/>
</g>
<g transform="translate(0.0000, 37.4112)">
<rect x="69.1421" y="-0.1000" width="1.9563" height="0.2000" ry="0.1000" fill="currentColor"/>
</g>
<g transform="translate(0.0000, 37.4112)">
<rect x="42.4570" y="-0.1000" width="1.9563" height="0.2000" ry="0.1000" fill="currentColor"/>
</g>
<g transform="translate(0.0000, 37.4112)">
<rect x="39.5487" y="-0.1000" width="1.9563" height="0.2000" ry="0.1000" fill="currentColor"/>
</g>
<g transform="translate(0.0000, 37.4112)">
<rect x="21.3262" y="-0.1000" width="1.9563" height="0.2000" ry="0.1000" fill="currentColor"/>
</g>
<g transform="translate(0.0000, 37.4112)">
<rect x="18.4178" y="-0.1000" width="1.9563" height="0.2000" ry="0.1000" fill="currentColor"/>
</g>
<g transform="translate(0.0000, 37.4112)">
<rect x="15.5095" y="-0.1000" width="1.9563" height="0.2000" ry="0.1000" fill="currentColor"/>
</g>
<g transform="translate(0.0000, 37.4112)">
<rect x="11.1990" y="-0.1000" width="1.9563" height="0.2000" ry="0.1000" fill="currentColor"/>
</g>
<g transform="translate(0.0000, 36.4112)">
<line stroke-linejoin="round" stroke-linecap="round" stroke-width="0.1000" stroke="currentColor" x1="0.0500" y1="0" x2="102.3799" y2="0"/>
</g>
<g transform="translate(0.0000, 35.4112)">
<line stroke-linejoin="round" stroke-linecap="round" stroke-width="0.1000" stroke="currentColor" x1="0.0500" y1="0" x2="102.3799" y2="0"/>
</g>
<g transform="translate(0.0000, 34.4112)">
<line stroke-linejoin="round" stroke-linecap="round" stroke-width="0.1000" stroke="currentColor" x1="0.0500" y1="0" x2="102.3799" y2="0"/>
</g>
<g transform="translate(0.0000, 33.4112)">
<line stroke-linejoin="round" stroke-linecap="round" stroke-width="0.1000" stroke="currentColor" x1="0.0500" y1="0" x2="102.3799" y2="0"/>
</g>
<g transform="translate(0.0000, 32.4112)">
<line stroke-linejoin="round" stroke-linecap="round" stroke-width="0.1000" stroke="currentColor" x1="0.0500" y1="0" x2="102.3799" y2="0"/>
</g>
<g transform="translate(90.5583, 25.0000)">
<rect x="0.0000" y="-2.0000" width="0.1900" height="4.0000" ry="0.0000" fill="currentColor"/>
</g>
<g transform="translate(57.5043, 34.4112)">
<rect x="0.0000" y="-2.0000" width="0.1900" height="4.0000" ry="0.0000" fill="currentColor"/>
</g>
<g transform="translate(57.5043, 25.0000)">
<rect x="0.0000" y="-2.0000" width="0.1900" height="4.0000" ry="0.0000" fill="currentColor"/>
</g>
<g transform="translate(45.8226, 34.4112)">
<rect x="0.0000" y="-2.0000" width="0.1900" height="4.0000" ry="0.0000" fill="currentColor"/>
</g>
<g transform="translate(59.6480, 26.0000)">
<path transform="scale(0.0040, -0.0040)" d="M0 -46c0 91 116 182 217 182c63 0 109 -35 109 -90c0 -87 -110 -182 -220 -182c-67 0 -106 39 -106 90z" fill="currentColor"/>
</g>
<g transform="translate(0.0000, 25.0000)">
<path stroke-width="0.0800" stroke-linejoin="round" stroke-linecap="round" stroke="currentColor" fill="currentColor" d="M8.9850 2.5000C9.5330 3.1239 10.7770 3.1239 11.3250 2.5000L11.3250 2.5000C10.7770 3.0039 9.5330 3.0039 8.9850 2.5000z"/>
</g>
<g transform="translate(0.0000, 34.4112)">
<path stroke-width="0.0800" stroke-linejoin="round" stroke-linecap="round" stroke="currentColor" fill="currentColor" d="M8.9850 4.0000C9.5330 4.6239 10.7770 4.6239 11.3250 4.0000L11.3250 4.0000C10.7770 4.5039 9.5330 4.5039 8.9850 4.0000z"/>
</g>
<g transform="translate(83.0511, 33.2212)">
<polygon stroke-linejoin="round" stroke-linecap="round" stroke-width="0.0800" fill="currentColor" stroke="currentColor" points="4.4006 -0.0100 4.4006 0.3900 0.0400 0.2000 0.0400 -0.2000"/>
</g>
<g transform="translate(0.8000, 26.0000)">
<path transform="scale(0.0040, -0.0040)" d="M266 -635h-6c-108 0 -195 88 -195 197c0 58 53 103 112 103c54 0 95 -47 95 -103c0 -52 -43 -95 -95 -95c-11 0 -21 2 -31 6c26 -39 68 -65 117 -65h4zM401 151c19 -89 48 -242 60 -354c76 27 112 94 112 163c0 89 -60 179 -172 191zM74 28c0 -112 98 -247 278 -247
c21 0 44 2 68 6c-7 64 -29 203 -63 364c-79 -8 -124 -61 -124 -119c0 -44 25 -91 81 -123c5 -5 7 -10 7 -15c0 -11 -10 -22 -22 -22c-15 0 -126 62 -126 187c0 88 58 174 160 197c-14 58 -29 117 -46 175c-107 -121 -213 -243 -213 -403zM357 1194c28 0 143 -206 143 -361
c0 -143 -86 -255 -180 -364c21 -68 39 -138 56 -207c5 0 10 1 14 1c155 0 255 -129 255 -262c0 -113 -74 -212 -180 -245c3 -35 5 -70 5 -105c0 -19 -1 -39 -2 -58c-7 -119 -88 -225 -202 -228l1 43c93 2 153 92 159 191c1 18 2 37 2 55c0 31 -1 61 -4 92
c-28 -5 -55 -8 -80 -8c-239 0 -342 217 -342 374c0 177 131 306 248 441c-29 96 -52 170 -52 346c0 189 144 295 159 295zM247 782c0 -55 12 -115 35 -190c82 100 147 202 147 326c0 40 -6 82 -21 127c-49 -24 -161 -97 -161 -263z" fill="currentColor"/>
</g>
<g transform="translate(4.3050, 25.0000)">
<path transform="scale(0.0040, -0.0040)" d="M27 41l-1 -66v-11c0 -22 1 -44 4 -66c45 38 93 80 93 139c0 33 -14 67 -43 67c-31 0 -52 -30 -53 -63zM-15 -138l-12 595c8 5 18 8 27 8s19 -3 27 -8l-7 -345c25 21 58 34 91 34c52 0 89 -48 89 -102c0 -80 -86 -117 -147 -169c-15 -13 -24 -38 -45 -38
c-13 0 -23 11 -23 25z" fill="currentColor"/>
</g>
<g transform="translate(5.2250, 23.5000)">
<path transform="scale(0.0040, -0.0040)" d="M27 41l-1 -66v-11c0 -22 1 -44 4 -66c45 38 93 80 93 139c0 33 -14 67 -43 67c-31 0 -52 -30 -53 -63zM-15 -138l-12 595c8 5 18 8 27 8s19 -3 27 -8l-7 -345c25 21 58 34 91 34c52 0 89 -48 89 -102c0 -80 -86 -117 -147 -169c-15 -13 -24 -38 -45 -38
c-13 0 -23 11 -23 25z" fill="currentColor"/>
</g>
<g transform="translate(6.1450, 25.5000)">
<path transform="scale(0.0040, -0.0040)" d="M27 41l-1 -66v-11c0 -22 1 -44 4 -66c45 38 93 80 93 139c0 33 -14 67 -43 67c-31 0 -52 -30 -53 -63zM-15 -138l-12 595c8 5 18 8 27 8s19 -3 27 -8l-7 -345c25 21 58 34 91 34c52 0 89 -48 89 -102c0 -80 -86 -117 -147 -169c-15 -13 -24 -38 -45 -38
c-13 0 -23 11 -23 25z" fill="currentColor"/>
</g>
<g transform="translate(7.0650, 24.0000)">
<path transform="scale(0.0040, -0.0040)" d="M27 41l-1 -66v-11c0 -22 1 -44 4 -66c45 38 93 80 93 139c0 33 -14 67 -43 67c-31 0 -52 -30 -53 -63zM-15 -138l-12 595c8 5 18 8 27 8s19 -3 27 -8l-7 -345c25 21 58 34 91 34c52 0 89 -48 89 -102c0 -80 -86 -117 -147 -169c-15 -13 -24 -38 -45 -38
c-13 0 -23 11 -23 25z" fill="currentColor"/>
</g>
<g transform="translate(7.9850, 26.0000)">
<path transform="scale(0.0040, -0.0040)" d="M27 41l-1 -66v-11c0 -22 1 -44 4 -66c45 38 93 80 93 139c0 33 -14 67 -43 67c-31 0 -52 -30 -53 -63zM-15 -138l-12 595c8 5 18 8 27 8s19 -3 27 -8l-7 -345c25 21 58 34 91 34c52 0 89 -48 89 -102c0 -80 -86 -117 -147 -169c-15 -13 -24 -38 -45 -38
c-13 0 -23 11 -23 25z" fill="currentColor"/>
</g>
<g transform="translate(0.8000, 35.4112)">
<path transform="scale(0.0040, -0.0040)" d="M266 -635h-6c-108 0 -195 88 -195 197c0 58 53 103 112 103c54 0 95 -47 95 -103c0 -52 -43 -95 -95 -95c-11 0 -21 2 -31 6c26 -39 68 -65 117 -65h4zM401 151c19 -89 48 -242 60 -354c76 27 112 94 112 163c0 89 -60 179 -172 191zM74 28c0 -112 98 -247 278 -247
c21 0 44 2 68 6c-7 64 -29 203 -63 364c-79 -8 -124 -61 -124 -119c0 -44 25 -91 81 -123c5 -5 7 -10 7 -15c0 -11 -10 -22 -22 -22c-15 0 -126 62 -126 187c0 88 58 174 160 197c-14 58 -29 117 -46 175c-107 -121 -213 -243 -213 -403zM357 1194c28 0 143 -206 143 -361
c0 -143 -86 -255 -180 -364c21 -68 39 -138 56 -207c5 0 10 1 14 1c155 0 255 -129 255 -262c0 -113 -74 -212 -180 -245c3 -35 5 -70 5 -105c0 -19 -1 -39 -2 -58c-7 -119 -88 -225 -202 -228l1 43c93 2 153 92 159 191c1 18 2 37 2 55c0 31 -1 61 -4 92
c-28 -5 -55 -8 -80 -8c-239 0 -342 217 -342 374c0 177 131 306 248 441c-29 96 -52 170 -52 346c0 189 144 295 159 295zM247 782c0 -55 12 -115 35 -190c82 100 147 202 147 326c0 40 -6 82 -21 127c-49 -24 -161 -97 -161 -263z" fill="currentColor"/>
</g>
<g transform="translate(4.3050, 34.4112)">
<path transform="scale(0.0040, -0.0040)" d="M27 41l-1 -66v-11c0 -22 1 -44 4 -66c45 38 93 80 93 139c0 33 -14 67 -43 67c-31 0 -52 -30 -53 -63zM-15 -138l-12 595c8 5 18 8 27 8s19 -3 27 -8l-7 -345c25 21 58 34 91 34c52 0 89 -48 89 -102c0 -80 -86 -117 -147 -169c-15 -13 -24 -38 -45 -38
c-13 0 -23 11 -23 25z" fill="currentColor"/>
</g>
<g transform="translate(5.2250, 32.9112)">
<path transform="scale(0.0040, -0.0040)" d="M27 41l-1 -66v-11c0 -22 1 -44 4 -66c45 38 93 80 93 139c0 33 -14 67 -43 67c-31 0 -52 -30 -53 -63zM-15 -138l-12 595c8 5 18 8 27 8s19 -3 27 -8l-7 -345c25 21 58 34 91 34c52 0 89 -48 89 -102c0 -80 -86 -117 -147 -169c-15 -13 -24 -38 -45 -38
c-13 0 -23 11 -23 25z" fill="currentColor"/>
</g>
<g transform="translate(6.1450, 34.9112)">
<path transform="scale(0.0040, -0.0040)" d="M27 41l-1 -66v-11c0 -22 1 -44 4 -66c45 38 93 80 93 139c0 33 -14 67 -43 67c-31 0 -52 -30 -53 -63zM-15 -138l-12 595c8 5 18 8 27 8s19 -3 27 -8l-7 -345c25 21 58 34 91 34c52 0 89 -48 89 -102c0 -80 -86 -117 -147 -169c-15 -13 -24 -38 -45 -38
c-13 0 -23 11 -23 25z" fill="currentColor"/>
</g>
<g transform="translate(7.0650, 33.4112)">
<path transform="scale(0.0040, -0.0040)" d="M27 41l-1 -66v-11c0 -22 1 -44 4 -66c45 38 93 80 93 139c0 33 -14 67 -43 67c-31 0 -52 -30 -53 -63zM-15 -138l-12 595c8 5 18 8 27 8s19 -3 27 -8l-7 -345c25 21 58 34 91 34c52 0 89 -48 89 -102c0 -80 -86 -117 -147 -169c-15 -13 -24 -38 -45 -38
c-13 0 -23 11 -23 25z" fill="currentColor"/>
</g>
<g transform="translate(7.9850, 35.4112)">
<path transform="scale(0.0040, -0.0040)" d="M27 41l-1 -66v-11c0 -22 1 -44 4 -66c45 38 93 80 93 139c0 33 -14 67 -43 67c-31 0 -52 -30 -53 -63zM-15 -138l-12 595c8 5 18 8 27 8s19 -3 27 -8l-7 -345c25 21 58 34 91 34c52 0 89 -48 89 -102c0 -80 -86 -117 -147 -169c-15 -13 -24 -38 -45 -38
c-13 0 -23 11 -23 25z" fill="currentColor"/>
</g>
<g transform="translate(-2.4583, 22.0268)">
<text font-family="serif" font-size="1.7459" text-anchor="start" fill="currentColor">
<tspan>164</tspan>
</text>
</g>
<g transform="translate(81.8769, 27.8100)">
<polygon stroke-linejoin="round" stroke-linecap="round" stroke-width="0.0800" fill="currentColor" stroke="currentColor" points="4.4006 -0.0100 4.4006 0.3900 0.0400 0.2000 0.0400 -0.2000"/>
</g>
<g transform="translate(11.5250, 27.0000)">
<path transform="scale(0.0040, -0.0040)" d="M0 -46c0 91 116 182 217 182c63 0 109 -35 109 -90c0 -87 -110 -182 -220 -182c-67 0 -106 39 -106 90z" fill="currentColor"/>
</g>
<g transform="translate(11.5250, 37.9112)">
<path transform="scale(0.0040, -0.0040)" d="M0 -46c0 91 116 182 217 182c63 0 109 -35 109 -90c0 -87 -110 -182 -220 -182c-67 0 -106 39 -106 90z" fill="currentColor"/>
</g>
<g transform="translate(11.5250, 25.0000)">
<path stroke-width="0.0800" stroke-linejoin="round" stroke-linecap="round" stroke="currentColor" fill="currentColor" d="M-1.3000 2.5000C-0.9986 2.8924 -0.5014 2.8924 -0.2000 2.5000L-0.2000 2.5000C-0.5014 2.7724 -0.9986 2.7724 -1.3000 2.5000z"/>
</g>
<g transform="translate(12.7642, 25.0000)">
<rect x="-0.0650" y="-1.8117" width="0.1300" height="3.6255" ry="0.0400" fill="currentColor"/>
</g>
<g transform="translate(11.5250, 34.4112)">
<path stroke-width="0.0800" stroke-linejoin="round" stroke-linecap="round" stroke="currentColor" fill="currentColor" d="M-1.3000 4.0000C-0.9986 4.3924 -0.5014 4.3924 -0.2000 4.0000L-0.2000 4.0000C-0.5014 4.2724 -0.9986 4.2724 -1.3000 4.0000z"/>
</g>
<g transform="translate(12.7642, 34.4112)">
<rect x="-0.0650" y="0.1883" width="0.1300" height="3.1255" ry="0.0400" fill="currentColor"/>
</g>
<g transform="translate(15.8356, 26.5000)">
<path transform="scale(0.0040, -0.0040)" d="M0 -46c0 91 116 182 217 182c63 0 109 -35 109 -90c0 -87 -110 -182 -220 -182c-67 0 -106 39 -106 90z" fill="currentColor"/>
</g>
<g transform="translate(15.2585, 30.7404)">
<text font-family="serif" font-size="2.4697" text-anchor="start" fill="currentColor">
<tspan>ー</tspan>
</text>
</g>
<g transform="translate(15.8356, 37.4112)">
<path transform="scale(0.0040, -0.0040)" d="M0 -46c0 91 116 182 217 182c63 0 109 -35 109 -90c0 -87 -110 -182 -220 -182c-67 0 -106 39 -106 90z" fill="currentColor"/>
</g>
<g transform="translate(15.2585, 40.8899)">
<text font-family="serif" font-size="2.4697" text-anchor="start" fill="currentColor">
<tspan>ー</tspan>
</text>
</g>
<g transform="translate(17.0748, 25.0000)">
<rect x="-0.0650" y="-1.9231" width="0.1300" height="3.2369" ry="0.0400" fill="currentColor"/>
</g>
<g transform="translate(17.0748, 34.4112)">
<rect x="-0.0650" y="0.0769" width="0.1300" height="2.7369" ry="0.0400" fill="currentColor"/>
</g>
<g transform="translate(18.7439, 26.5000)">
<path transform="scale(0.0040, -0.0040)" d="M0 -46c0 91 116 182 217 182c63 0 109 -35 109 -90c0 -87 -110 -182 -220 -182c-67 0 -106 39 -106 90z" fill="currentColor"/>
</g>
<g transform="translate(18.1668, 30.7404)">
<text font-family="serif" font-size="2.4697" text-anchor="start" fill="currentColor">
<tspan>ね</tspan>
</text>
</g>
<g transform="translate(18.7439, 37.4112)">
<path transform="scale(0.0040, -0.0040)" d="M0 -46c0 91 116 182 217 182c63 0 109 -35 109 -90c0 -87 -110 -182 -220 -182c-67 0 -106 39 -106 90z" fill="currentColor"/>
</g>
<g transform="translate(18.1668, 40.8899)">
<text font-family="serif" font-size="2.4697" text-anchor="start" fill="currentColor">
<tspan>ね</tspan>
</text>
</g>
<g transform="translate(19.9831, 25.0000)">
<rect x="-0.0650" y="-1.9983" width="0.1300" height="3.3121" ry="0.0400" fill="currentColor"/>
</g>
<g transform="translate(19.9831, 34.4112)">
<rect x="-0.0650" y="0.0017" width="0.1300" height="2.8121" ry="0.0400" fill="currentColor"/>
</g>
<g transform="translate(21.6522, 26.5000)">
<path transform="scale(0.0040, -0.0040)" d="M0 -46c0 91 116 182 217 182c63 0 109 -35 109 -90c0 -87 -110 -182 -220 -182c-67 0 -106 39 -106 90z" fill="currentColor"/>
</g>
<g transform="translate(21.0752, 30.7404)">
<text font-family="serif" font-size="2.4697" text-anchor="start" fill="currentColor">
<tspan>と</tspan>
</text>
</g>
<g transform="translate(21.6522, 37.4112)">
<path transform="scale(0.0040, -0.0040)" d="M0 -46c0 91 116 182 217 182c63 0 109 -35 109 -90c0 -87 -110 -182 -220 -182c-67 0 -106 39 -106 90z" fill="currentColor"/>
</g>
<g transform="translate(21.0752, 40.8899)">
<text font-family="serif" font-size="2.4697" text-anchor="start" fill="currentColor">
<tspan>と</tspan>
</text>
</g>
<g transform="translate(22.8914, 25.0000)">
<rect x="-0.0650" y="-2.0000" width="0.1300" height="3.3138" ry="0.0400" fill="currentColor"/>
</g>
<g transform="translate(22.8914, 34.4112)">
<rect x="-0.0650" y="-0.5000" width="0.1300" height="3.3138" ry="0.0400" fill="currentColor"/>
</g>
<g transform="translate(74.9529, 32.6012)">
<polygon stroke-linejoin="round" stroke-linecap="round" stroke-width="0.0800" fill="currentColor" stroke="currentColor" points="5.2799 -0.3900 5.2799 0.0100 0.0400 0.2000 0.0400 -0.2000"/>
</g>
<g transform="translate(79.1078, 33.2628)">
<polygon stroke-linejoin="round" stroke-linecap="round" stroke-width="0.0800" fill="currentColor" stroke="currentColor" points="1.1250 -0.2416 1.1250 0.1584 0.0400 0.2000 0.0400 -0.2000"/>
</g>
<g transform="translate(27.7160, 25.5000)">
<path transform="scale(0.0040, -0.0040)" d="M0 -46c0 91 116 182 217 182c63 0 109 -35 109 -90c0 -87 -110 -182 -220 -182c-67 0 -106 39 -106 90z" fill="currentColor"/>
</g>
<g transform="translate(27.1389, 30.7404)">
<text font-family="serif" font-size="2.4697" text-anchor="start" fill="currentColor">
<tspan>ー</tspan>
</text>
</g>
<g transform="translate(27.7160, 36.4112)">
<path transform="scale(0.0040, -0.0040)" d="M0 -46c0 91 116 182 217 182c63 0 109 -35 109 -90c0 -87 -110 -182 -220 -182c-67 0 -106 39 -106 90z" fill="currentColor"/>
</g>
<g transform="translate(27.1389, 40.8899)">
<text font-family="serif" font-size="2.4697" text-anchor="start" fill="currentColor">
<tspan>ー</tspan>
</text>
</g>
<g transform="translate(29.4702, 25.5000)">
<path transform="scale(0.0040, -0.0040)" d="M0 0c0 31 25 56 56 56s56 -25 56 -56s-25 -56 -56 -56s-56 25 -56 56z" fill="currentColor"/>
</g>
<g transform="translate(28.9552, 25.0000)">
<rect x="-0.0650" y="-2.9977" width="0.1300" height="3.3115" ry="0.0400" fill="currentColor"/>
</g>
<g transform="translate(29.4702, 35.9112)">
<path transform="scale(0.0040, -0.0040)" d="M0 0c0 31 25 56 56 56s56 -25 56 -56s-25 -56 -56 -56s-56 25 -56 56z" fill="currentColor"/>
</g>
<g transform="translate(28.9552, 34.4112)">
<rect x="-0.0650" y="-1.1854" width="0.1300" height="2.9992" ry="0.0400" fill="currentColor"/>
</g>
<g transform="translate(32.9059, 26.0000)">
<path transform="scale(0.0040, -0.0040)" d="M0 -46c0 91 116 182 217 182c63 0 109 -35 109 -90c0 -87 -110 -182 -220 -182c-67 0 -106 39 -106 90z" fill="currentColor"/>
</g>
<g transform="translate(32.3288, 30.7404)">
<text font-family="serif" font-size="2.4697" text-anchor="start" fill="currentColor">
<tspan>ま</tspan>
</text>
</g>
<g transform="translate(32.9059, 36.9112)">
<path transform="scale(0.0040, -0.0040)" d="M0 -46c0 91 116 182 217 182c63 0 109 -35 109 -90c0 -87 -110 -182 -220 -182c-67 0 -106 39 -106 90z" fill="currentColor"/>
</g>
<g transform="translate(32.3288, 40.8899)">
<text font-family="serif" font-size="2.4697" text-anchor="start" fill="currentColor">
<tspan>ま</tspan>
</text>
</g>
<g transform="translate(34.1451, 25.0000)">
<rect x="-0.0650" y="-2.8123" width="0.1300" height="3.6261" ry="0.0400" fill="currentColor"/>
</g>
<g transform="translate(34.1451, 34.4112)">
<rect x="-0.0650" y="-0.8146" width="0.1300" height="3.1284" ry="0.0400" fill="currentColor"/>
</g>
<g transform="translate(77.9336, 27.0832)">
<polygon stroke-linejoin="round" stroke-linecap="round" stroke-width="0.0800" fill="currentColor" stroke="currentColor" points="1.1250 -0.2832 1.1250 0.1168 0.0400 0.2000 0.0400 -0.2000"/>
</g>
<g transform="translate(73.7787, 28.1900)">
<polygon stroke-linejoin="round" stroke-linecap="round" stroke-width="0.0800" fill="currentColor" stroke="currentColor" points="5.2799 -0.5800 5.2799 -0.1800 0.0400 0.2000 0.0400 -0.2000"/>
</g>
<g transform="translate(35.8142, 26.0000)">
<path transform="scale(0.0040, -0.0040)" d="M0 -46c0 91 116 182 217 182c63 0 109 -35 109 -90c0 -87 -110 -182 -220 -182c-67 0 -106 39 -106 90z" fill="currentColor"/>
</g>
<g transform="translate(35.2371, 30.7404)">
<text font-family="serif" font-size="2.4697" text-anchor="start" fill="currentColor">
<tspan>ぶ</tspan>
</text>
</g>
<g transform="translate(35.8142, 36.9112)">
<path transform="scale(0.0040, -0.0040)" d="M0 -46c0 91 116 182 217 182c63 0 109 -35 109 -90c0 -87 -110 -182 -220 -182c-67 0 -106 39 -106 90z" fill="currentColor"/>
</g>
<g transform="translate(35.2371, 40.8899)">
<text font-family="serif" font-size="2.4697" text-anchor="start" fill="currentColor">
<tspan>ぶ</tspan>
</text>
</g>
<g transform="translate(37.0534, 25.0000)">
<rect x="-0.0650" y="-1.8026" width="0.1300" height="2.6164" ry="0.0400" fill="currentColor"/>
</g>
<g transform="translate(37.0534, 34.4112)">
<rect x="-0.0650" y="-0.1865" width="0.1300" height="2.5003" ry="0.0400" fill="currentColor"/>
</g>
<g transform="translate(83.8382, 40.8899)">
<rect x="0.0000" y="-0.0800" width="1.4200" height="0.0800" ry="0.0320" fill="currentColor"/>
</g>
<g transform="translate(39.8748, 27.0000)">
<path transform="scale(0.0040, -0.0040)" d="M0 -46c0 91 116 182 217 182c63 0 109 -35 109 -90c0 -87 -110 -182 -220 -182c-67 0 -106 39 -106 90z" fill="currentColor"/>
</g>
<g transform="translate(39.2977, 30.7404)">
<text font-family="serif" font-size="2.4697" text-anchor="start" fill="currentColor">
<tspan>ー</tspan>
</text>
</g>
<g transform="translate(39.8748, 37.9112)">
<path transform="scale(0.0040, -0.0040)" d="M0 -46c0 91 116 182 217 182c63 0 109 -35 109 -90c0 -87 -110 -182 -220 -182c-67 0 -106 39 -106 90z" fill="currentColor"/>
</g>
<g transform="translate(39.2977, 40.8899)">
<text font-family="serif" font-size="2.4697" text-anchor="start" fill="currentColor">
<tspan>ー</tspan>
</text>
</g>
<g transform="translate(41.1140, 25.0000)">
<rect x="-0.0650" y="-1.3393" width="0.1300" height="3.1531" ry="0.0400" fill="currentColor"/>
</g>
<g transform="translate(41.1140, 34.4112)">
<rect x="-0.0650" y="0.0308" width="0.1300" height="3.2830" ry="0.0400" fill="currentColor"/>
</g>
<g transform="translate(83.8382, 30.7404)">
<rect x="0.0000" y="-0.0800" width="1.4200" height="0.0800" ry="0.0320" fill="currentColor"/>
</g>
<g transform="translate(42.7831, 27.0000)">
<path transform="scale(0.0040, -0.0040)" d="M0 -46c0 91 116 182 217 182c63 0 109 -35 109 -90c0 -87 -110 -182 -220 -182c-67 0 -106 39 -106 90z" fill="currentColor"/>
</g>
<g transform="translate(42.2060, 30.7404)">
<text font-family="serif" font-size="2.4697" text-anchor="start" fill="currentColor">
<tspan>し</tspan>
</text>
</g>
<g transform="translate(42.7831, 37.9112)">
<path transform="scale(0.0040, -0.0040)" d="M0 -46c0 91 116 182 217 182c63 0 109 -35 109 -90c0 -87 -110 -182 -220 -182c-67 0 -106 39 -106 90z" fill="currentColor"/>
</g>
<g transform="translate(42.2060, 40.8899)">
<text font-family="serif" font-size="2.4697" text-anchor="start" fill="currentColor">
<tspan>し</tspan>
</text>
</g>
<g transform="translate(44.0223, 25.0000)">
<rect x="-0.0650" y="-1.0074" width="0.1300" height="2.8212" ry="0.0400" fill="currentColor"/>
</g>
<g transform="translate(44.0223, 34.4112)">
<rect x="-0.0650" y="0.1865" width="0.1300" height="3.1273" ry="0.0400" fill="currentColor"/>
</g>
<g transform="translate(48.0263, 26.0000)">
<path transform="scale(0.0040, -0.0040)" d="M347 -26c0 102 -89 139 -133 139c-23 0 -70 -10 -70 -89c0 -91 76 -136 132 -136c22 0 71 8 71 86zM245 136c144 0 246 -65 246 -136s-102 -136 -246 -136s-245 65 -245 136s101 136 245 136z" fill="currentColor"/>
</g>
<g transform="translate(-0.0600, 29.7056)">
<rect x="0.0000" y="-6.7556" width="0.1600" height="13.5112" ry="0.0500" fill="currentColor"/>
</g>
<g transform="translate(48.0263, 30.7404)">
<text font-family="serif" font-size="2.4697" text-anchor="start" fill="currentColor">
<tspan>く</tspan>
</text>
</g>
<g transform="translate(48.0263, 36.9112)">
<path transform="scale(0.0040, -0.0040)" d="M347 -26c0 102 -89 139 -133 139c-23 0 -70 -10 -70 -89c0 -91 76 -136 132 -136c22 0 71 8 71 86zM245 136c144 0 246 -65 246 -136s-102 -136 -246 -136s-245 65 -245 136s101 136 245 136z" fill="currentColor"/>
</g>
<g transform="translate(-1.3100, 22.7250)">
<path transform="scale(0.0040, -0.0040)" d="M0 -56v87c0 14 11 25 25 25h50c159 0 271 136 362 270c3 5 8 7 12 7c8 0 17 -7 17 -16c0 -3 -1 -6 -3 -9c-99 -144 -215 -364 -388 -364h-75z" fill="currentColor"/>
</g>
<g transform="translate(-1.3100, 36.6862)">
<path transform="scale(0.0040, -0.0040)" d="M0 56h75c173 0 289 -220 388 -364c2 -3 3 -6 3 -9c0 -9 -9 -16 -17 -16c-4 0 -9 2 -12 7c-91 134 -203 270 -362 270h-50c-14 0 -25 11 -25 25v87z" fill="currentColor"/>
</g>
<g transform="translate(-1.3100, 29.7056)">
<rect x="0.0000" y="-6.8006" width="0.4500" height="13.6012" ry="0.0000" fill="currentColor"/>
</g>
<g transform="translate(48.0263, 40.8899)">
<text font-family="serif" font-size="2.4697" text-anchor="start" fill="currentColor">
<tspan>く</tspan>
</text>
</g>
<g transform="translate(59.6480, 36.9112)">
<path transform="scale(0.0040, -0.0040)" d="M0 -46c0 91 116 182 217 182c63 0 109 -35 109 -90c0 -87 -110 -182 -220 -182c-67 0 -106 39 -106 90z" fill="currentColor"/>
</g>
<g transform="translate(59.6480, 25.0000)">
<path stroke-width="0.0800" stroke-linejoin="round" stroke-linecap="round" stroke="currentColor" fill="currentColor" d="M-1.3000 1.3412C-0.9986 1.7336 -0.5014 1.7336 -0.2000 1.3412L-0.2000 1.3412C-0.5014 1.6136 -0.9986 1.6136 -1.3000 1.3412z"/>
</g>
<g transform="translate(60.8872, 25.0000)">
<rect x="-0.0650" y="-2.5000" width="0.1300" height="3.3138" ry="0.0400" fill="currentColor"/>
</g>
<g transform="translate(59.6480, 34.4112)">
<path stroke-width="0.0800" stroke-linejoin="round" stroke-linecap="round" stroke="currentColor" fill="currentColor" d="M-1.3000 3.0000C-0.9986 3.3924 -0.5014 3.3924 -0.2000 3.0000L-0.2000 3.0000C-0.5014 3.2724 -0.9986 3.2724 -1.3000 3.0000z"/>
</g>
<g transform="translate(60.8872, 34.4112)">
<rect x="-0.0650" y="-1.0000" width="0.1300" height="3.3138" ry="0.0400" fill="currentColor"/>
</g>
<g transform="translate(65.4617, 25.0000)">
<path transform="scale(0.0040, -0.0040)" d="M70 205c79 0 46 -98 91 -98c16 0 54 48 61 63c3 6 8 9 14 9s12 -3 14 -9l-123 -420c-8 -7 -17 -10 -27 -10s-20 3 -28 10l117 326c-34 -12 -69 -22 -105 -22c-58 0 -85 41 -85 80c0 36 24 71 71 71z" fill="currentColor"/>
</g>
<g transform="translate(65.4617, 34.4112)">
<path transform="scale(0.0040, -0.0040)" d="M70 205c79 0 46 -98 91 -98c16 0 54 48 61 63c3 6 8 9 14 9s12 -3 14 -9l-123 -420c-8 -7 -17 -10 -27 -10s-20 3 -28 10l117 326c-34 -12 -69 -22 -105 -22c-58 0 -85 41 -85 80c0 36 24 71 71 71z" fill="currentColor"/>
</g>
<g transform="translate(69.4681, 27.0000)">
<path transform="scale(0.0040, -0.0040)" d="M0 -46c0 91 116 182 217 182c63 0 109 -35 109 -90c0 -87 -110 -182 -220 -182c-67 0 -106 39 -106 90z" fill="currentColor"/>
</g>
<g transform="translate(68.8911, 30.7404)">
<text font-family="serif" font-size="2.4697" text-anchor="start" fill="currentColor">
<tspan>て</tspan>
</text>
</g>
<g transform="translate(69.4681, 37.9112)">
<path transform="scale(0.0040, -0.0040)" d="M0 -46c0 91 116 182 217 182c63 0 109 -35 109 -90c0 -87 -110 -182 -220 -182c-67 0 -106 39 -106 90z" fill="currentColor"/>
</g>
<g transform="translate(68.8911, 40.8899)">
<text font-family="serif" font-size="2.4697" text-anchor="start" fill="currentColor">
<tspan>て</tspan>
</text>
</g>
<g transform="translate(70.7073, 25.0000)">
<rect x="-0.0650" y="-1.5000" width="0.1300" height="3.3138" ry="0.0400" fill="currentColor"/>
</g>
<g transform="translate(70.7723, 23.5400)">
<path transform="scale(0.0040, -0.0040)" d="M0 0v-375h-16v375h16zM123 -729c0 10 42 87 42 196c0 103 -94 208 -165 283v250c0 -197 207 -336 207 -533c0 -71 -15 -141 -41 -207c-5 -8 -13 -12 -20 -12c-12 0 -23 9 -23 23z" fill="currentColor"/>
</g>
<g transform="translate(70.7073, 34.4112)">
<rect x="-0.0650" y="-0.0000" width="0.1300" height="3.3138" ry="0.0400" fill="currentColor"/>
</g>
<g transform="translate(70.7723, 34.4512)">
<path transform="scale(0.0040, -0.0040)" d="M0 0v-375h-16v375h16zM123 -729c0 10 42 87 42 196c0 103 -94 208 -165 283v250c0 -197 207 -336 207 -533c0 -71 -15 -141 -41 -207c-5 -8 -13 -12 -20 -12c-12 0 -23 9 -23 23z" fill="currentColor"/>
</g>
<g transform="translate(71.4294, 40.8899)">
<rect x="0.0000" y="-0.0800" width="1.4200" height="0.0800" ry="0.0320" fill="currentColor"/>
</g>
<g transform="translate(73.7787, 25.0000)">
<path transform="scale(0.0040, -0.0040)" d="M0 -46c0 91 116 182 217 182c63 0 109 -35 109 -90c0 -87 -110 -182 -220 -182c-67 0 -106 39 -106 90z" fill="currentColor"/>
</g>
<g transform="translate(73.2016, 30.7404)">
<text font-family="serif" font-size="2.4697" text-anchor="start" fill="currentColor">
<tspan>ま</tspan>
</text>
</g>
<g transform="translate(73.7787, 36.4112)">
<path transform="scale(0.0040, -0.0040)" d="M0 -46c0 91 116 182 217 182c63 0 109 -35 109 -90c0 -87 -110 -182 -220 -182c-67 0 -106 39 -106 90z" fill="currentColor"/>
</g>
<g transform="translate(73.2016, 40.8899)">
<text font-family="serif" font-size="2.4697" text-anchor="start" fill="currentColor">
<tspan>ま</tspan>
</text>
</g>
<g transform="translate(75.5329, 24.5000)">
<path transform="scale(0.0040, -0.0040)" d="M0 0c0 31 25 56 56 56s56 -25 56 -56s-25 -56 -56 -56s-56 25 -56 56z" fill="currentColor"/>
</g>
<g transform="translate(73.8437, 25.0000)">
<rect x="-0.0650" y="0.1862" width="0.1300" height="2.9992" ry="0.0400" fill="currentColor"/>
</g>
<g transform="translate(75.5329, 35.9112)">
<path transform="scale(0.0040, -0.0040)" d="M0 0c0 31 25 56 56 56s56 -25 56 -56s-25 -56 -56 -56s-56 25 -56 56z" fill="currentColor"/>
</g>
<g transform="translate(75.0179, 34.4112)">
<rect x="-0.0650" y="-1.8123" width="0.1300" height="3.6261" ry="0.0400" fill="currentColor"/>
</g>
<g transform="translate(71.4294, 30.7404)">
<rect x="0.0000" y="-0.0800" width="1.4200" height="0.0800" ry="0.0320" fill="currentColor"/>
</g>
<g transform="translate(78.9686, 24.5000)">
<path transform="scale(0.0040, -0.0040)" d="M0 -46c0 91 116 182 217 182c63 0 109 -35 109 -90c0 -87 -110 -182 -220 -182c-67 0 -106 39 -106 90z" fill="currentColor"/>
</g>
<g transform="translate(78.3915, 30.7404)">
<text font-family="serif" font-size="2.4697" text-anchor="start" fill="currentColor">
<tspan>ぶ</tspan>
</text>
</g>
<g transform="translate(78.9686, 35.9112)">
<path transform="scale(0.0040, -0.0040)" d="M0 -46c0 91 116 182 217 182c63 0 109 -35 109 -90c0 -87 -110 -182 -220 -182c-67 0 -106 39 -106 90z" fill="currentColor"/>
</g>
<g transform="translate(78.3915, 40.8899)">
<text font-family="serif" font-size="2.4697" text-anchor="start" fill="currentColor">
<tspan>ぶ</tspan>
</text>
</g>
<g transform="translate(79.0336, 25.0000)">
<rect x="-0.0650" y="-0.3138" width="0.1300" height="3.1284" ry="0.0400" fill="currentColor"/>
</g>
<g transform="translate(80.2078, 34.4112)">
<rect x="-0.0650" y="-1.9977" width="0.1300" height="3.3115" ry="0.0400" fill="currentColor"/>
</g>
<g transform="translate(81.8769, 24.5000)">
<path transform="scale(0.0040, -0.0040)" d="M0 -46c0 91 116 182 217 182c63 0 109 -35 109 -90c0 -87 -110 -182 -220 -182c-67 0 -106 39 -106 90z" fill="currentColor"/>
</g>
<g transform="translate(81.2998, 30.7404)">
<text font-family="serif" font-size="2.4697" text-anchor="start" fill="currentColor">
<tspan>し</tspan>
</text>
</g>
<g transform="translate(81.8769, 35.9112)">
<path transform="scale(0.0040, -0.0040)" d="M0 -46c0 91 116 182 217 182c63 0 109 -35 109 -90c0 -87 -110 -182 -220 -182c-67 0 -106 39 -106 90z" fill="currentColor"/>
</g>
<g transform="translate(81.2998, 40.8899)">
<text font-family="serif" font-size="2.4697" text-anchor="start" fill="currentColor">
<tspan>し</tspan>
</text>
</g>
<g transform="translate(81.9419, 25.0000)">
<rect x="-0.0650" y="-0.3138" width="0.1300" height="3.1266" ry="0.0400" fill="currentColor"/>
</g>
<g transform="translate(83.1161, 34.4112)">
<rect x="-0.0650" y="-1.1872" width="0.1300" height="2.5010" ry="0.0400" fill="currentColor"/>
</g>
<g transform="translate(86.1875, 25.0000)">
<path transform="scale(0.0040, -0.0040)" d="M0 -46c0 91 116 182 217 182c63 0 109 -35 109 -90c0 -87 -110 -182 -220 -182c-67 0 -106 39 -106 90z" fill="currentColor"/>
</g>
<g transform="translate(85.6104, 30.7404)">
<text font-family="serif" font-size="2.4697" text-anchor="start" fill="currentColor">
<tspan>く</tspan>
</text>
</g>
<g transform="translate(86.1875, 36.4112)">
<path transform="scale(0.0040, -0.0040)" d="M0 -46c0 91 116 182 217 182c63 0 109 -35 109 -90c0 -87 -110 -182 -220 -182c-67 0 -106 39 -106 90z" fill="currentColor"/>
</g>
<g transform="translate(85.6104, 40.8899)">
<text font-family="serif" font-size="2.4697" text-anchor="start" fill="currentColor">
<tspan>く</tspan>
</text>
</g>
<g transform="translate(86.2525, 25.0000)">
<rect x="-0.0650" y="0.1862" width="0.1300" height="2.8110" ry="0.0400" fill="currentColor"/>
</g>
<g transform="translate(87.4267, 34.4112)">
<rect x="-0.0650" y="-1.0028" width="0.1300" height="2.8166" ry="0.0400" fill="currentColor"/>
</g>
<g transform="translate(48.0263, 34.4112)">
<path stroke-width="0.0800" stroke-linejoin="round" stroke-linecap="round" stroke="currentColor" fill="currentColor" d="M2.1620 3.0000C3.3599 3.9304 10.2237 3.9304 11.4216 3.0000L11.4216 3.0000C10.2237 3.8104 3.3599 3.8104 2.1620 3.0000z"/>
</g>
<g transform="translate(92.7620, 26.0000)">
<path transform="scale(0.0040, -0.0040)" d="M347 -26c0 102 -89 139 -133 139c-23 0 -70 -10 -70 -89c0 -91 76 -136 132 -136c22 0 71 8 71 86zM245 136c144 0 246 -65 246 -136s-102 -136 -246 -136s-245 65 -245 136s101 136 245 136z" fill="currentColor"/>
</g>
<g transform="translate(-4.1366, 35.2164)">
<text font-family="serif" font-size="2.2000" text-anchor="start" fill="currentColor">
<tspan>V2</tspan>
</text>
</g>
<g transform="translate(92.5138, 30.7404)">
<text font-family="serif" font-size="2.4697" text-anchor="start" fill="currentColor">
<tspan>て</tspan>
</text>
</g>
<g transform="translate(92.7620, 36.9112)">
<path transform="scale(0.0040, -0.0040)" d="M347 -26c0 102 -89 139 -133 139c-23 0 -70 -10 -70 -89c0 -91 76 -136 132 -136c22 0 71 8 71 86zM245 136c144 0 246 -65 246 -136s-102 -136 -246 -136s-245 65 -245 136s101 136 245 136z" fill="currentColor"/>
</g>
<g transform="translate(92.5138, 40.8899)">
<text font-family="serif" font-size="2.4697" text-anchor="start" fill="currentColor">
<tspan>て</tspan>
</text>
</g>
<g transform="translate(36.9884, 34.2212)">
<polygon stroke-linejoin="round" stroke-linecap="round" stroke-width="0.0800" fill="currentColor" stroke="currentColor" points="7.0589 0.1800 7.0589 0.5800 0.0400 0.2000 0.0400 -0.2000"/>
</g>
<g transform="translate(41.0490, 35.2486)">
<polygon stroke-linejoin="round" stroke-linecap="round" stroke-width="0.0800" fill="currentColor" stroke="currentColor" points="2.9983 -0.0374 2.9983 0.3626 0.0400 0.2000 0.0400 -0.2000"/>
</g>
<g transform="translate(-4.1366, 25.8063)">
<text font-family="serif" font-size="2.2000" text-anchor="start" fill="currentColor">
<tspan>V1</tspan>
</text>
</g>
<g transform="translate(12.6992, 23.1900)">
<polygon stroke-linejoin="round" stroke-linecap="round" stroke-width="0.0800" fill="currentColor" stroke="currentColor" points="7.3089 -0.3900 7.3089 0.0100 0.0400 0.2000 0.0400 -0.2000"/>
</g>
<g transform="translate(17.0098, 23.8885)">
<polygon stroke-linejoin="round" stroke-linecap="round" stroke-width="0.0800" fill="currentColor" stroke="currentColor" points="2.9983 -0.2786 2.9983 0.1214 0.0400 0.2000 0.0400 -0.2000"/>
</g>
<g transform="translate(12.6992, 34.6012)">
<polygon stroke-linejoin="round" stroke-linecap="round" stroke-width="0.0800" fill="currentColor" stroke="currentColor" points="7.3089 -0.3900 7.3089 0.0100 0.0400 0.2000 0.0400 -0.2000"/>
</g>
<g transform="translate(17.0098, 35.2998)">
<polygon stroke-linejoin="round" stroke-linecap="round" stroke-width="0.0800" fill="currentColor" stroke="currentColor" points="2.9983 -0.2786 2.9983 0.1214 0.0400 0.2000 0.0400 -0.2000"/>
</g>
<g transform="translate(28.8902, 22.0000)">
<polygon stroke-linejoin="round" stroke-linecap="round" stroke-width="0.0800" fill="currentColor" stroke="currentColor" points="5.2799 -0.0100 5.2799 0.3900 0.0400 0.2000 0.0400 -0.2000"/>
</g>
<g transform="translate(33.0451, 22.9584)">
<polygon stroke-linejoin="round" stroke-linecap="round" stroke-width="0.0800" fill="currentColor" stroke="currentColor" points="1.1250 -0.1584 1.1250 0.2416 0.0400 0.2000 0.0400 -0.2000"/>
</g>
<g transform="translate(28.8902, 33.2212)">
<polygon stroke-linejoin="round" stroke-linecap="round" stroke-width="0.0800" fill="currentColor" stroke="currentColor" points="5.2799 0.1800 5.2799 0.5800 0.0400 0.2000 0.0400 -0.2000"/>
</g>
<g transform="translate(33.0451, 34.3280)">
<polygon stroke-linejoin="round" stroke-linecap="round" stroke-width="0.0800" fill="currentColor" stroke="currentColor" points="1.1250 -0.1168 1.1250 0.2832 0.0400 0.2000 0.0400 -0.2000"/>
</g>
<g transform="translate(36.9884, 23.1900)">
<polygon stroke-linejoin="round" stroke-linecap="round" stroke-width="0.0800" fill="currentColor" stroke="currentColor" points="7.0589 0.6100 7.0589 1.0100 0.0400 0.2000 0.0400 -0.2000"/>
</g>
<g transform="translate(41.0490, 24.4633)">
<polygon stroke-linejoin="round" stroke-linecap="round" stroke-width="0.0800" fill="currentColor" stroke="currentColor" points="2.9983 0.1467 2.9983 0.5467 0.0400 0.2000 0.0400 -0.2000"/>
</g>
<g transform="translate(48.0263, 25.0000)">
<path stroke-width="0.0800" stroke-linejoin="round" stroke-linecap="round" stroke="currentColor" fill="currentColor" d="M1.1810 1.7500C2.4555 2.6994 10.7992 2.6994 12.0737 1.7500L12.0737 1.7500C10.7992 2.5794 2.4555 2.5794 1.1810 1.7500z"/>
</g>
</svg>
